<svg xmlns="http://www.w3.org/2000/svg" xmlns:xlink="http://www.w3.org/1999/xlink" viewBox="0 0 511.76 512.02"><defs><style>.cls-1{fill:url(#Безымянный_градиент_2);}</style><linearGradient id="Безымянный_градиент_2" y1="256.01" x2="511.76" y2="256.01" gradientUnits="userSpaceOnUse"><stop offset="0" stop-color="#fccb36"/><stop offset="1" stop-color="#f49f24"/></linearGradient></defs><g id="Слой_2" data-name="Слой 2"><g id="Layer_1" data-name="Layer 1"><path class="cls-1" d="M405.09,255.89H349.32l11.52-92.39a64.36,64.36,0,0,0-62.42-77.91H247.88c2.33-16.45.92-42.82,24.2-42.92h69a21.34,21.34,0,0,0,0-42.67h-69a64,64,0,0,0-63.47,56.06l-3.69,29.53H63.76A64.4,64.4,0,0,0,1,161.43L33.29,418.67A106.79,106.79,0,0,0,139.08,512l266-.25A106.67,106.67,0,0,0,511.76,405.1V362.56A106.67,106.67,0,0,0,405.09,255.89Zm64,106.67h-256a64,64,0,0,1,64-64h128A64,64,0,0,1,469.09,362.56ZM298.42,128.23a21.57,21.57,0,0,1,21.45,21.69,21.22,21.22,0,0,1-1,6.28l-1.85,14.36H237.26l5.29-42.37Zm-251.22,8a21.37,21.37,0,0,1,16.56-8H199.59l-5.32,42.33H45.07l-2.13-16.43A21.17,21.17,0,0,1,47.2,136.21ZM75.62,413.38,50.44,213.23H311.71l-5.35,42.66H277.09A106.67,106.67,0,0,0,170.42,362.56c-.89,34.86-2.13,79.79,22.1,106.88H139.08A64,64,0,0,1,75.62,413.38Zm329.47,55.85h-128a64,64,0,0,1-64-64H292c8.26,4,61.34,45,70.4,42.66,8.88,2.52,62.51-38.89,70.4-42.66h36.27A64,64,0,0,1,405.09,469.23Z"/></g></g></svg>