<svg xmlns="http://www.w3.org/2000/svg" xmlns:xlink="http://www.w3.org/1999/xlink" viewBox="0 0 512 384"><defs><style>.cls-1{fill:url(#Безымянный_градиент_2);}.cls-2{fill:url(#Безымянный_градиент_2-2);}</style><linearGradient id="Безымянный_градиент_2" y1="192" x2="512" y2="192" gradientUnits="userSpaceOnUse"><stop offset="0" stop-color="#fccb36"/><stop offset="1" stop-color="#f49f24"/></linearGradient><linearGradient id="Безымянный_градиент_2-2" x1="256" y1="266.67" x2="426.67" y2="266.67" xlink:href="#Безымянный_градиент_2"/></defs><g id="Слой_2" data-name="Слой 2"><g id="Outline"><path class="cls-1" d="M405.33,0H106.67A106.8,106.8,0,0,0,0,106.67V277.33A106.8,106.8,0,0,0,106.67,384H405.33A106.8,106.8,0,0,0,512,277.33V106.67A106.8,106.8,0,0,0,405.33,0Zm64,277.33a64,64,0,0,1-64,64H106.67a64,64,0,0,1-64-64V106.67a64,64,0,0,1,64-64H405.33a64,64,0,0,1,64,64h-.27Z"/><rect class="cls-2" x="256" y="234.67" width="170.67" height="64" rx="32"/></g></g></svg>