<svg xmlns="http://www.w3.org/2000/svg" xmlns:xlink="http://www.w3.org/1999/xlink" viewBox="0 0 512 512"><defs><style>.cls-1{fill:url(#Безымянный_градиент);}.cls-2{fill:url(#Безымянный_градиент-2);}.cls-3{fill:url(#Безымянный_градиент-3);}.cls-4{fill:url(#Безымянный_градиент-4);}.cls-5{fill:url(#Безымянный_градиент-5);}.cls-6{fill:url(#Безымянный_градиент-6);}.cls-7{fill:url(#Безымянный_градиент-7);}</style><linearGradient id="Безымянный_градиент" x1="53.62" y1="83.94" x2="425.62" y2="453.94" gradientUnits="userSpaceOnUse"><stop offset="0" stop-color="#fccb36"/><stop offset="1" stop-color="#f49f24"/></linearGradient><linearGradient id="Безымянный_градиент-2" x1="100.41" y1="36.9" x2="472.41" y2="406.9" xlink:href="#Безымянный_градиент"/><linearGradient id="Безымянный_градиент-3" x1="4.58" y1="133.25" x2="376.58" y2="503.25" xlink:href="#Безымянный_градиент"/><linearGradient id="Безымянный_градиент-4" x1="20.15" y1="117.59" x2="392.15" y2="487.59" xlink:href="#Безымянный_градиент"/><linearGradient id="Безымянный_градиент-5" x1="68.19" y1="69.29" x2="440.19" y2="439.29" xlink:href="#Безымянный_градиент"/><linearGradient id="Безымянный_градиент-6" x1="99.85" y1="37.46" x2="471.85" y2="407.46" xlink:href="#Безымянный_градиент"/><linearGradient id="Безымянный_градиент-7" x1="-27.55" y1="165.55" x2="344.45" y2="535.55" xlink:href="#Безымянный_градиент"/></defs><g id="Слой_2" data-name="Слой 2"><g id="Слой_1-2" data-name="Слой 1"><path class="cls-1" d="M507.44,208.64a16,16,0,0,0-30.3-3.62,31.76,31.76,0,0,1-59.57-3.92,16,16,0,0,0-19-11,63.3,63.3,0,0,1-76.72-76.71,16,16,0,0,0-11-19A31.74,31.74,0,0,1,307,34.88a16,16,0,0,0-3.62-30.32A256.7,256.7,0,0,0,256,0C114.78,0,0,114.78,0,256S114.78,512,256,512,512,397.22,512,256A256.7,256.7,0,0,0,507.44,208.64ZM414.32,414.32A223.9,223.9,0,1,1,256,32c2.88,0,5.7.3,8.56.43a63,63,0,0,0,24,86.87A81.59,81.59,0,0,0,288,128a96.09,96.09,0,0,0,96,96,81.59,81.59,0,0,0,8.7-.59,63,63,0,0,0,86.87,24c.13,2.85.43,5.68.43,8.56A223.23,223.23,0,0,1,414.32,414.32Z"/><circle class="cls-2" cx="192" cy="128" r="32"/><circle class="cls-3" cx="128" cy="256" r="32"/><circle class="cls-4" cx="288" cy="384" r="32"/><circle class="cls-5" cx="272" cy="272" r="16"/><circle class="cls-6" cx="400" cy="336" r="16"/><circle class="cls-7" cx="176" cy="368" r="16"/></g></g></svg>