<svg xmlns="http://www.w3.org/2000/svg" xmlns:xlink="http://www.w3.org/1999/xlink" viewBox="0 0 496 315.32"><defs><style>.cls-1{fill-rule:evenodd;fill:url(#Безымянный_градиент_2);}</style><linearGradient id="Безымянный_градиент_2" x1="-23.06" y1="157.66" x2="508.73" y2="157.66" gradientUnits="userSpaceOnUse"><stop offset="0" stop-color="#fccb36"/><stop offset="1" stop-color="#f49f24"/></linearGradient></defs><g id="Слой_2" data-name="Слой 2"><g id="Capa_1" data-name="Capa 1"><path class="cls-1" d="M359.6,8a8,8,0,0,1,8-8h41.34L487.2,142.28H447.44L395.84,16H367.6a8,8,0,0,1-8-8ZM99.51,16H128.4a8,8,0,0,0,0-16H87.06L8.8,142.28H47.92ZM496,158.28V282.34c0,18.17-14.35,33-31.95,33h-153c-14.19,0-26.23-9.13-30.48-23.11L272.31,265H223.69l-8.26,27.18c-4.25,14-16.29,23.11-30.49,23.11H32c-17.6,0-31.95-14.82-31.95-33V158.28H496Zm-49.92,49.91H49.91V265.4h121.5l12.53-41.21H312.06l12.53,41.21H446.08V208.19Z"/></g></g></svg>