<svg xmlns="http://www.w3.org/2000/svg" xmlns:xlink="http://www.w3.org/1999/xlink" viewBox="0 0 536.6 128.92"><defs><style>.cls-1{fill:none;}.cls-2{opacity:0.25;}.cls-3{clip-path:url(#clip-path);}.cls-4{fill:url(#Безымянный_градиент_2);}.cls-5{clip-path:url(#clip-path-2);}.cls-6{fill:url(#Безымянный_градиент_2-2);}.cls-7{clip-path:url(#clip-path-3);}.cls-8{fill:url(#Безымянный_градиент_4);}.cls-9{clip-path:url(#clip-path-4);}.cls-10{fill:url(#Безымянный_градиент_4-2);}.cls-11{clip-path:url(#clip-path-5);}.cls-12{fill:url(#Безымянный_градиент_6);}.cls-13{clip-path:url(#clip-path-6);}.cls-14{fill:url(#Безымянный_градиент_6-2);}.cls-15{fill:#fff;}</style><clipPath id="clip-path" transform="translate(18.4 7.14)"><path class="cls-1" d="M116.32,62.34c-2.33,4.59-5.45,12.35-7.2,16.17-2.17,4.78-.51,7.88,4.51,10.29,4.69,2.24,20,8.7,24.91,11.14,5.33,2.64,9,1.48,11.08-3,1.75-3.8,4.93-10.39,7.46-16.35s.18-9-4.21-11-20.82-9.47-25.5-11.41a11.53,11.53,0,0,0-4.36-1c-2.78,0-4.86,1.65-6.69,5.25"/></clipPath><linearGradient id="Безымянный_градиент_2" x1="692.64" y1="795.64" x2="693.64" y2="795.64" gradientTransform="matrix(-33.19, 0, 0, 33.19, 23137.51, -26325.21)" gradientUnits="userSpaceOnUse"><stop offset="0" stop-color="#fccc39"/><stop offset="0.35" stop-color="#fabf33"/><stop offset="0.99" stop-color="#f39b24"/><stop offset="1" stop-color="#f39b24"/></linearGradient><clipPath id="clip-path-2" transform="translate(18.4 7.14)"><path class="cls-1" d="M154.89,90.32c-1.63,3.66,3,11.61,5.57,10.9,2.24-.6,1-3,4.45-7,2.5-2.93,6.81-2.82,6.48-5.18-.25-1.77-3.13-2.63-6.45-2.63-4.13,0-8.91,1.33-10.05,3.91"/></clipPath><linearGradient id="Безымянный_градиент_2-2" x1="692.64" y1="796.09" x2="693.64" y2="796.09" gradientTransform="matrix(-33.19, 0, 0, 33.19, 23167.11, -26324.39)" xlink:href="#Безымянный_градиент_2"/><clipPath id="clip-path-3" transform="translate(18.4 7.14)"><path class="cls-1" d="M42.34,12.44c-.58,7.81-2.13,24.32-2.45,28.68-.69,9.3,3.72,12.62,12.41,13.41s37,3.29,45.28,4c9.52.77,13.54-3.48,14.26-10.84.59-6.11,2.06-19.43,2.79-28S113,4.88,103.19,4.13C94.86,3.5,65.05.65,57.07.07,56.44,0,55.82,0,55.22,0,47.43,0,43,4,42.34,12.44"/></clipPath><linearGradient id="Безымянный_градиент_4" x1="687.79" y1="806.92" x2="688.79" y2="806.92" gradientTransform="matrix(-54.27, 0, 0, 54.27, 37432.37, -43763.09)" gradientUnits="userSpaceOnUse"><stop offset="0" stop-color="#bfd23e"/><stop offset="0.14" stop-color="#bad13e"/><stop offset="0.31" stop-color="#adcd40"/><stop offset="0.48" stop-color="#96c741"/><stop offset="0.66" stop-color="#76be44"/><stop offset="0.84" stop-color="#4eb347"/><stop offset="1" stop-color="#24a84b"/></linearGradient><clipPath id="clip-path-4" transform="translate(18.4 7.14)"><path class="cls-1" d="M115.4,33.88c0,6.7,12.46,15.7,15.94,12.85,3-2.44-.45-5.29,2-13.71,1.82-6.17,8.47-8.94,6.36-12.32-.71-1.13-2.1-1.63-3.88-1.63-7.14,0-20.46,8-20.45,14.81"/></clipPath><linearGradient id="Безымянный_градиент_4-2" x1="687.79" y1="807.37" x2="688.79" y2="807.37" gradientTransform="matrix(-54.27, 0, 0, 54.27, 37484.13, -43783.21)" xlink:href="#Безымянный_градиент_4"/><clipPath id="clip-path-5" transform="translate(18.4 7.14)"><path class="cls-1" d="M43.94,37.91c-7,2.12-28.76,8.68-35.8,11s-9.5,6.45-7.43,14c1.61,5.86,5.52,18,7,22.66C9.9,92.53,14,94.11,21.33,92c6.69-2,28.4-8.66,35.81-11s9.78-6.14,7.43-14c-.89-3-4.28-14-6.63-21.63-1.73-5.7-4.12-8.4-8.57-8.4a19.33,19.33,0,0,0-5.43,1"/></clipPath><linearGradient id="Безымянный_градиент_6" x1="679.71" y1="807.83" x2="680.71" y2="807.83" gradientTransform="matrix(0, 44.86, 44.86, 0, -36205.78, -30448.5)" gradientUnits="userSpaceOnUse"><stop offset="0" stop-color="#e8463a"/><stop offset="0.28" stop-color="#e04039"/><stop offset="0.72" stop-color="#ca2f36"/><stop offset="1" stop-color="#b82133"/></linearGradient><clipPath id="clip-path-6" transform="translate(18.4 7.14)"><path class="cls-1" d="M62.79,55c2.24,5.46,15.38,8.65,17.27,5.17,1.63-3-2.13-4.17-2.91-11.85-.58-5.64,3.92-10.12,1.07-12.17a2.75,2.75,0,0,0-1.65-.5c-5.65,0-16.34,13.13-13.78,19.35"/></clipPath><linearGradient id="Безымянный_градиент_6-2" x1="679.71" y1="808.22" x2="680.71" y2="808.22" gradientTransform="matrix(0, 44.86, 44.86, 0, -36182.69, -30459.5)" xlink:href="#Безымянный_градиент_6"/></defs><g id="Слой_2" data-name="Слой 2"><g id="Слой_1-2" data-name="Слой 1"><path class="cls-2" d="M151.16,73.16c-4.4-2-20.26-9.34-24.93-11.28-5.15-2.14-8.38-1.06-11,4.21-2.33,4.6-5.46,12.35-7.2,16.17-2.17,4.78-.51,7.89,4.51,10.29,4.69,2.25,19.43,8.57,24.34,11,5.33,2.64,9,1.48,11.08-3,1.75-3.8,4.93-10.39,7.46-16.35s.18-9.06-4.21-11" transform="translate(18.4 7.14)"/><path class="cls-2" d="M153.48,94.07c2.05-4.64,16-5.26,16.5-1.28.33,2.36-4,2.26-6.48,5.19-3.4,4-2.21,6.39-4.45,7-2.59.7-7.2-7.25-5.57-10.91" transform="translate(18.4 7.14)"/><path class="cls-2" d="M114.79,38.9c0-8.48,20.76-18.89,24.32-13.18,2.11,3.38-4.54,6.15-6.36,12.32-2.47,8.42,1,11.26-2,13.71-3.48,2.84-15.92-6.15-15.93-12.85" transform="translate(18.4 7.14)"/><path class="cls-2" d="M45.16,42.53c-7,2.12-28.44,8.36-35.48,10.65s-9.51,6.46-7.44,14c1.61,5.87,5.52,18,7,22.66,2.2,7,6.24,8.57,13.63,6.41,6.69-2,28.08-8.35,35.49-10.66s9.78-6.13,7.43-14c-.89-3-4.28-14-6.63-21.63s-5.86-9.9-14-7.43" transform="translate(18.4 7.14)"/><path class="cls-2" d="M102.57,9.15C94.25,8.52,64.88,5.67,56.9,5.09,48,4.43,42.84,8.35,42.17,17.45c-.58,7.82-2.13,24.33-2.45,28.68-.69,9.3,3.72,12.62,12.42,13.41,2.74.25,7.41.68,12.76,1.15,3.52,4.68,14.8,7.13,16.54,3.93a2.83,2.83,0,0,0,.23-2.43c6.47.57,12.23,1.07,15.3,1.32,9.51.77,13.54-2.49,14.25-10.85.53-6.11,2.06-19.42,2.8-28S112.42,9.9,102.57,9.15Z" transform="translate(18.4 7.14)"/><g class="cls-3"><rect class="cls-4" x="101.95" y="46.64" width="62.67" height="66.41" transform="translate(25.48 177.59) rotate(-66.6)"/></g><g class="cls-5"><rect class="cls-6" x="151.7" y="82.61" width="21.58" height="23.11" transform="translate(29.94 213.03) rotate(-66.6)"/></g><g class="cls-7"><rect class="cls-8" x="44.2" y="-11.07" width="66.17" height="81.4" transform="translate(58.91 110.92) rotate(-84.6)"/></g><g class="cls-9"><rect class="cls-10" x="112.18" y="19.73" width="32.86" height="29.2" transform="translate(100.74 166.27) rotate(-84.6)"/></g><g class="cls-11"><rect class="cls-12" x="-8.61" y="27.68" width="82.78" height="75.71" transform="translate(-0.52 20.74) rotate(-18.3)"/></g><g class="cls-13"><rect class="cls-14" x="56.38" y="32.98" width="29.16" height="33.32" transform="translate(6.41 31.93) rotate(-18.3)"/></g><path class="cls-15" d="M116.06,69.26l-.08,0a.22.22,0,0,1-.12-.24c1.49-5.35,4.81-8.42,9.12-8.42a11.51,11.51,0,0,1,4.59,1.05.22.22,0,0,1,.11.24.2.2,0,0,1-.2.15h0c-.32,0-.65,0-1,0a14.65,14.65,0,0,0-12.26,7.17.18.18,0,0,1-.17.11" transform="translate(18.4 7.14)"/><path class="cls-15" d="M60.64,16.87a3.47,3.47,0,1,1-2.84-4,3.47,3.47,0,0,1,2.84,4" transform="translate(18.4 7.14)"/><path class="cls-15" d="M16.57,61.91a2.95,2.95,0,1,1-2.69-3.19,3,3,0,0,1,2.69,3.19" transform="translate(18.4 7.14)"/><path class="cls-15" d="M126.37,68.69a2.21,2.21,0,1,1-1.89-2.49,2.22,2.22,0,0,1,1.89,2.49" transform="translate(18.4 7.14)"/><path class="cls-15" d="M6,68.21a.21.21,0,0,1-.19-.12C4,63.35,3.75,59.71,5.05,57c1.15-2.43,3.54-4.23,7.29-5.49h.07a.18.18,0,0,1,.17.1.19.19,0,0,1-.05.25C7.89,55.52,5.68,61.11,6.16,68a.2.2,0,0,1-.16.21H6" transform="translate(18.4 7.14)"/><path class="cls-15" d="M45.73,20h0a.19.19,0,0,1-.18-.19c-.12-5.18,1.24-9.39,3.93-12.16A12.77,12.77,0,0,1,58.92,4a20.3,20.3,0,0,1,2.77.2.2.2,0,0,1,.17.2.21.21,0,0,1-.17.2c-7,1.16-13.79,7.73-15.76,15.27a.21.21,0,0,1-.2.15" transform="translate(18.4 7.14)"/><path class="cls-15" d="M335.79,83.9a2.73,2.73,0,0,0-2.92-2.64c-2.57,0-3.39,2.45-3.39,4.65s.52,4.74,3.37,4.74c1.4,0,2.59-1,2.94-2.92h2c-.21,2-1.4,4.72-5,4.72-3.46,0-5.52-2.62-5.52-6.19,0-3.81,1.85-6.87,5.91-6.87,3.25,0,4.47,2.36,4.63,4.51Z" transform="translate(18.4 7.14)"/><path class="cls-15" d="M347.94,85c-.12-1.92-.94-3.69-3.48-3.69A3.61,3.61,0,0,0,341.07,85Zm2,3.27c-.47,1.91-1.75,4.23-5.56,4.23-3.46,0-5.49-2.62-5.49-6.19,0-3.86,1.82-6.87,5.91-6.87,3.55,0,5.3,2.85,5.3,7.22h-9c0,2.54,1.19,4,3.57,4a3.09,3.09,0,0,0,3.18-2.43Z" transform="translate(18.4 7.14)"/><polygon class="cls-15" points="379.33 86.87 379.33 88.6 375.26 88.6 375.26 99.23 373.19 99.23 373.19 88.6 369.12 88.6 369.12 86.87 379.33 86.87"/><path class="cls-15" d="M364.5,90.37h3c1.89,0,2.55-.59,2.55-2s-.87-2-2.55-2h-3Zm0-5.66h2.95c3.15,0,4.69,1.64,4.69,3.81,0,1.92-1.31,3.58-4.65,3.58h-5.07V79.74h2.08Z" transform="translate(18.4 7.14)"/><polygon class="cls-15" points="400.87 92.25 406.17 86.87 408.81 86.87 404.09 91.47 409.09 99.23 406.62 99.23 402.62 92.92 400.87 94.56 400.87 99.23 398.79 99.23 398.79 86.87 400.87 86.87 400.87 92.25"/><polygon class="cls-15" points="412.43 96.12 412.48 96.12 418.53 86.87 420.7 86.87 420.7 99.23 418.63 99.23 418.63 89.98 418.58 89.98 412.53 99.23 410.36 99.23 410.36 86.87 412.43 86.87 412.43 96.12"/><polygon class="cls-15" points="425.49 91.85 431.26 91.85 431.26 86.87 433.34 86.87 433.34 99.23 431.26 99.23 431.26 93.58 425.49 93.58 425.49 99.23 423.42 99.23 423.42 86.87 425.49 86.87 425.49 91.85"/><path class="cls-15" d="M422.7,90.65c3,0,3.6-3.09,3.6-4.75s-.64-4.71-3.6-4.71-3.6,3.06-3.6,4.71.63,4.75,3.6,4.75m0-11.26c3.95,0,5.72,3.34,5.72,6.51s-1.77,6.55-5.72,6.55S417,89.08,417,85.9s1.78-6.51,5.73-6.51" transform="translate(18.4 7.14)"/><polygon class="cls-15" points="457.69 86.87 457.69 88.6 453.62 88.6 453.62 99.23 451.54 99.23 451.54 88.6 447.48 88.6 447.48 86.87 457.69 86.87"/><path class="cls-15" d="M449.19,85c-.12-1.92-.93-3.69-3.48-3.69A3.61,3.61,0,0,0,442.32,85Zm2,3.27c-.46,1.91-1.75,4.23-5.56,4.23-3.46,0-5.49-2.62-5.49-6.19,0-3.86,1.82-6.87,5.91-6.87,3.55,0,5.31,2.85,5.31,7.22h-9c0,2.54,1.19,4,3.58,4a3.08,3.08,0,0,0,3.17-2.43Z" transform="translate(18.4 7.14)"/><path class="cls-15" d="M460.87,85.79c-.33.25-.84.44-3.41.77-1,.14-2.66.42-2.66,2a2,2,0,0,0,2.26,2.18c1.94,0,3.81-1.24,3.81-2.9Zm-7.59-2.29c0-3,2-4.11,5.09-4.11,1,0,4.58.28,4.58,3.45V89.9c0,.51.26.77.68.77a4.73,4.73,0,0,0,.68-.09V92.1a4,4,0,0,1-1.13.23c-1.84,0-2.1-1-2.19-1.89a5.69,5.69,0,0,1-4.46,2,3.54,3.54,0,0,1-3.86-3.58c0-1.47.37-3.64,4.72-4,3.25-.26,3.48-.51,3.48-1.8s-.91-2-2.87-2c-2.36,0-2.69,1.45-2.81,2.39Z" transform="translate(18.4 7.14)"/><polygon class="cls-15" points="493.36 86.87 493.36 88.6 489.3 88.6 489.3 99.23 487.22 99.23 487.22 88.6 483.15 88.6 483.15 86.87 493.36 86.87"/><path class="cls-15" d="M478.53,85.88c0,2.69,1.05,4.77,3.32,4.77,1.31,0,3.27-.89,3.27-4.18,0-2-.21-5.21-3.2-5.21-3.22,0-3.39,3-3.39,4.62m-2.08-6.14h1.94v1.75a4.07,4.07,0,0,1,3.74-2.1c3.27,0,5.12,2.66,5.12,6.16,0,3-1.17,6.9-5.38,6.9a3.7,3.7,0,0,1-3.34-1.8V97h-2.08Z" transform="translate(18.4 7.14)"/><path class="cls-15" d="M494.33,90.65c3,0,3.59-3.09,3.59-4.75s-.63-4.71-3.59-4.71-3.6,3.06-3.6,4.71.63,4.75,3.6,4.75m0-11.26c3.95,0,5.72,3.34,5.72,6.51s-1.77,6.55-5.72,6.55-5.73-3.37-5.73-6.55,1.78-6.51,5.73-6.51" transform="translate(18.4 7.14)"/><path class="cls-15" d="M504.16,90.37h3.72c1.61,0,2.5-.54,2.5-1.92s-1-2-2.71-2h-3.51Zm0-5.52h3c1.8,0,2.47-.51,2.47-1.87,0-1-.61-1.51-2.43-1.51h-3.06Zm-2.08-5.11h5.61c2.73,0,4,1.44,4,3.15a2.71,2.71,0,0,1-2.08,2.66,3.24,3.24,0,0,1,2.81,3.28c0,2-1.59,3.27-4.54,3.27h-5.84Z" transform="translate(18.4 7.14)"/><path class="cls-15" d="M311.27,40.08h-8.21a1.09,1.09,0,0,0-1,.88L297.75,65.2a.72.72,0,0,0,.72.88h8.21a1.09,1.09,0,0,0,1-.88L312,41a.72.72,0,0,0-.72-.88" transform="translate(18.4 7.14)"/><path class="cls-15" d="M367,40.08h-8.21a1.08,1.08,0,0,0-1,.88L353.47,65.2a.72.72,0,0,0,.72.88h8.21a1.1,1.1,0,0,0,1-.88L367.7,41a.71.71,0,0,0-.71-.88" transform="translate(18.4 7.14)"/><path class="cls-15" d="M256.56,60.23h-9.35l2.49-14.11h9.35ZM269.19,45.1a4,4,0,0,0-4-4.92H245.43a6.15,6.15,0,0,0-5.6,4.92h0L237,61.19h0a4,4,0,0,0,3.87,4.88h19.79a6.14,6.14,0,0,0,5.7-4.92v0h0l2.81-15.92h0a.29.29,0,0,1,0-.09" transform="translate(18.4 7.14)"/><path class="cls-15" d="M236.08,45.1a4,4,0,0,0-4-4.92H192.74A6.15,6.15,0,0,0,187.16,45h0L183.59,65.2a.72.72,0,0,0,.72.88h8.31a1.09,1.09,0,0,0,1-.88s3.1-17.52,3.37-19.08h9.35L203,65.2a.71.71,0,0,0,.71.88h8.21a1.11,1.11,0,0,0,1-.88l3.36-19.08H226c-.29,1.6-3.37,19.08-3.37,19.08a.71.71,0,0,0,.72.88h8.21a1.09,1.09,0,0,0,1-.88l3.52-19.94h0l0-.15" transform="translate(18.4 7.14)"/><path class="cls-15" d="M485.35,45.1a4,4,0,0,0-4-4.92H442A6.15,6.15,0,0,0,436.43,45h0L432.86,65.2a.72.72,0,0,0,.73.88h8.3a1.11,1.11,0,0,0,1-.88s3.09-17.52,3.36-19.08h9.35c-.28,1.6-3.36,19.08-3.36,19.08a.71.71,0,0,0,.72.88h8.2a1.1,1.1,0,0,0,1-.88l3.37-19.08h9.63c-.29,1.6-3.37,19.08-3.37,19.08a.72.72,0,0,0,.72.88h8.21a1.11,1.11,0,0,0,1-.88l3.51-19.94h0l0-.15" transform="translate(18.4 7.14)"/><path class="cls-15" d="M400.13,45a4,4,0,0,0-3.87-4.85h-20A6.15,6.15,0,0,0,370.65,45h0L367.09,65.2a.72.72,0,0,0,.72.88h8.34a1.09,1.09,0,0,0,1-.88l3.36-19.08h9.31L386.49,65.2a.72.72,0,0,0,.72.88h8.34a1.1,1.1,0,0,0,1-.88L400.14,45Z" transform="translate(18.4 7.14)"/><path class="cls-15" d="M431.39,52.71l-.05.33c0-.11,0-.22.05-.33" transform="translate(18.4 7.14)"/><path class="cls-15" d="M427.62,56h0" transform="translate(18.4 7.14)"/><path class="cls-15" d="M421.73,50.52h-9.26l.78-4.4h9.25Zm7.18-10.38H409a6.15,6.15,0,0,0-5.57,5h0l-2.93,16.6,0,0a4,4,0,0,0,3.94,4.33h21.09a2.92,2.92,0,0,0,0-5.84H410.76l.75-4.21h16.2a3.83,3.83,0,0,0,3.63-3l.05-.33,1.35-7.6h0a4,4,0,0,0-3.83-5" transform="translate(18.4 7.14)"/><path class="cls-15" d="M505.4,60.1h-9.25l.77-4.4h9.26Zm12.77-15.62a4,4,0,0,0-3.94-4.33H493.14a2.92,2.92,0,0,0,0,5.84h14.77l-.74,4.21H490.94a3.8,3.8,0,0,0-3.62,3l-.06.33-1.34,7.6h0a4,4,0,0,0,3.82,5h20a6.14,6.14,0,0,0,5.56-5h0l2.93-16.61Z" transform="translate(18.4 7.14)"/><path class="cls-15" d="M350.28,40.15H329a6.15,6.15,0,0,0-5.57,5h0l-2.84,16.08h0a4,4,0,0,0,3.88,4.88h22.32a2.92,2.92,0,0,0,.3-5.82v0H330.77l2.49-14.1H350.1a3,3,0,0,0,.18-6" transform="translate(18.4 7.14)"/><path class="cls-15" d="M297.32,40.09h-18.8l0,0A6.12,6.12,0,0,0,273,45v0h0L269.39,65.2a.72.72,0,0,0,.72.88h8.3a1.09,1.09,0,0,0,1-.88l3.37-19.08h14.33a3,3,0,0,0,.18-6" transform="translate(18.4 7.14)"/></g></g></svg>