<svg xmlns="http://www.w3.org/2000/svg" xmlns:xlink="http://www.w3.org/1999/xlink" viewBox="0 0 584.72 792"><defs><style>.cls-1{fill:url(#Безымянный_градиент_2);}.cls-2{fill:url(#Безымянный_градиент_2-2);}.cls-3{fill:url(#Безымянный_градиент_2-3);}</style><linearGradient id="Безымянный_градиент_2" x1="-19.7" y1="396" x2="572.63" y2="396" gradientUnits="userSpaceOnUse"><stop offset="0" stop-color="#fccb36"/><stop offset="1" stop-color="#f49f24"/></linearGradient><linearGradient id="Безымянный_градиент_2-2" x1="-19.7" y1="155.12" x2="572.63" y2="155.12" xlink:href="#Безымянный_градиент_2"/><linearGradient id="Безымянный_градиент_2-3" x1="-19.7" y1="187.62" x2="572.63" y2="187.62" xlink:href="#Безымянный_градиент_2"/></defs><g id="Слой_2" data-name="Слой 2"><g id="Capa_1" data-name="Capa 1"><path class="cls-1" d="M566,248.16a103.39,103.39,0,0,0,1.35-16.57,101.59,101.59,0,0,0-53.45-89.5,104.57,104.57,0,0,0-103-87.17,106.24,106.24,0,0,0-13.73.89,101.93,101.93,0,0,0-67.22-25.46c-1.75,0-3.5,0-5.24.13A131.95,131.95,0,0,0,118.56,81.16a95.58,95.58,0,0,0-35.12,46.63A114.66,114.66,0,0,0,18.61,248.17H0L108.73,792H476L584.72,248.16Zm-62.33,186H386.89c11,24.8,17.42,54.22,17.42,85.8,0,31.1-6.21,60.12-16.94,84.69h83.89l-15.61,78.06H129.08l-15.6-78.06h83.89c-10.74-24.57-17-53.6-17-84.69,0-31.57,6.4-61,17.43-85.8H81.11L65.5,356.14H519.21Zm14.16-186H66.44A67.55,67.55,0,0,1,114,166.44l10.15-2.75,1.3-10.45a48.67,48.67,0,0,1,26-37.25l5.85-3,1.93-6.28A84.91,84.91,0,0,1,302.54,74.11l6.17,6.67,8.85-2.07a54.56,54.56,0,0,1,56.37,20.88l6.88,9.41,11-3.89a56.69,56.69,0,0,1,19.07-3.25A57.51,57.51,0,0,1,468.3,159.3c0,1.14,0,2.31-.1,3.44l-.79,12.83,12.45,3.26a54.67,54.67,0,0,1,37.92,69.33Z"/><path class="cls-2" d="M318.54,137.68a27.19,27.19,0,0,0-5.23,6.28c9.88-4.39,21.6-2.35,28.86,5.89S350,170,344.39,179.22a26.68,26.68,0,0,0,6.88-4.4c10.7-9.42,12.05-25.39,3-35.64S329.24,128.26,318.54,137.68Z"/><path class="cls-3" d="M249.47,165.08a26.69,26.69,0,0,0-7.89-2.08c-14.19-1.47-26.84,8.37-28.25,22s8.95,25.81,23.14,27.28a27,27,0,0,0,8.16-.4c-9.92-4.3-16.37-14.31-15.23-25.22S238.88,167.25,249.47,165.08Z"/></g></g></svg>