<svg xmlns="http://www.w3.org/2000/svg" xmlns:xlink="http://www.w3.org/1999/xlink" viewBox="0 0 117.49 114.77"><defs><style>.cls-1{fill:url(#Безымянный_градиент_2);}.cls-2{fill:url(#Безымянный_градиент_2-2);}.cls-3{fill:url(#Безымянный_градиент_2-6);}.cls-4{fill:url(#Безымянный_градиент_2-9);}.cls-5{fill:url(#Безымянный_градиент_2-10);}.cls-6{fill:url(#Безымянный_градиент_2-11);}.cls-7{fill:url(#Безымянный_градиент_2-12);}.cls-8{fill:url(#Безымянный_градиент_2-14);}.cls-9{fill:url(#Безымянный_градиент_2-16);}.cls-10{fill:url(#Безымянный_градиент_2-17);}.cls-11{fill:url(#Безымянный_градиент_2-22);}</style><linearGradient id="Безымянный_градиент_2" x1="2.29" y1="40.38" x2="113.64" y2="40.38" gradientUnits="userSpaceOnUse"><stop offset="0" stop-color="#fccb36"/><stop offset="1" stop-color="#f49f24"/></linearGradient><linearGradient id="Безымянный_градиент_2-2" x1="2.29" y1="108.16" x2="113.64" y2="108.16" xlink:href="#Безымянный_градиент_2"/><linearGradient id="Безымянный_градиент_2-6" x1="2.29" y1="93.53" x2="113.64" y2="93.53" xlink:href="#Безымянный_градиент_2"/><linearGradient id="Безымянный_градиент_2-9" x1="2.29" y1="113.77" x2="113.64" y2="113.77" xlink:href="#Безымянный_градиент_2"/><linearGradient id="Безымянный_градиент_2-10" x1="2.29" y1="39.33" x2="113.64" y2="39.33" xlink:href="#Безымянный_градиент_2"/><linearGradient id="Безымянный_градиент_2-11" x1="2.29" y1="39.33" x2="113.64" y2="39.33" xlink:href="#Безымянный_градиент_2"/><linearGradient id="Безымянный_градиент_2-12" x1="2.29" y1="50.34" x2="113.64" y2="50.34" xlink:href="#Безымянный_градиент_2"/><linearGradient id="Безымянный_градиент_2-14" x1="2.29" y1="32.16" x2="113.64" y2="32.16" xlink:href="#Безымянный_градиент_2"/><linearGradient id="Безымянный_градиент_2-16" x1="2.29" y1="41.29" x2="113.64" y2="41.29" xlink:href="#Безымянный_градиент_2"/><linearGradient id="Безымянный_градиент_2-17" x1="2.29" y1="41.28" x2="113.64" y2="41.28" xlink:href="#Безымянный_градиент_2"/><linearGradient id="Безымянный_градиент_2-22" x1="2.29" y1="41.22" x2="113.64" y2="41.22" xlink:href="#Безымянный_градиент_2"/></defs><g id="Слой_2" data-name="Слой 2"><g id="Режим_изоляции" data-name="Режим изоляции"><path class="cls-1" d="M113.34,80.75H4.16a1,1,0,0,1-1-1V1a1,1,0,0,1,1-1H113.34a1,1,0,0,1,1,1V79.75A1,1,0,0,1,113.34,80.75Zm-108.18-2H112.34V2H5.16Z"/><path class="cls-2" d="M29,114.77a1,1,0,0,1-1-1V108.7a5.14,5.14,0,0,0-5.14-5.14H13.18A5.14,5.14,0,0,0,8,108.7v5.07a1,1,0,1,1-2,0V108.7a7.14,7.14,0,0,1,7.14-7.14h9.66A7.14,7.14,0,0,1,30,108.7v5.07A1,1,0,0,1,29,114.77Z"/><path class="cls-2" d="M56.14,114.77a1,1,0,0,1-1-1V108.7A5.14,5.14,0,0,0,50,103.56H40.34a5.14,5.14,0,0,0-5.14,5.14v5.07a1,1,0,0,1-2,0V108.7a7.14,7.14,0,0,1,7.14-7.14H50a7.14,7.14,0,0,1,7.14,7.14v5.07A1,1,0,0,1,56.14,114.77Z"/><path class="cls-2" d="M83.3,114.77a1,1,0,0,1-1-1V108.7a5.14,5.14,0,0,0-5.14-5.14H67.5a5.15,5.15,0,0,0-5.15,5.14v5.07a1,1,0,0,1-2,0V108.7a7.15,7.15,0,0,1,7.15-7.14h9.66a7.15,7.15,0,0,1,7.14,7.14v5.07A1,1,0,0,1,83.3,114.77Z"/><path class="cls-2" d="M110.46,114.77a1,1,0,0,1-1-1V108.7a5.15,5.15,0,0,0-5.15-5.14H94.65a5.14,5.14,0,0,0-5.14,5.14v5.07a1,1,0,0,1-2,0V108.7a7.15,7.15,0,0,1,7.14-7.14h9.66a7.15,7.15,0,0,1,7.15,7.14v5.07A1,1,0,0,1,110.46,114.77Z"/><path class="cls-3" d="M42.56,98.58a1,1,0,0,1-1-1v-2a5.15,5.15,0,0,0-5.14-5.14H26.76a5.14,5.14,0,0,0-5.14,5.14v2a1,1,0,0,1-2,0v-2a7.14,7.14,0,0,1,7.14-7.14h9.66a7.14,7.14,0,0,1,7.14,7.14v2A1,1,0,0,1,42.56,98.58Z"/><path class="cls-3" d="M69.72,98.58a1,1,0,0,1-1-1v-2a5.15,5.15,0,0,0-5.14-5.14H53.92a5.14,5.14,0,0,0-5.14,5.14v2a1,1,0,1,1-2,0v-2a7.14,7.14,0,0,1,7.14-7.14h9.66a7.15,7.15,0,0,1,7.14,7.14v2A1,1,0,0,1,69.72,98.58Z"/><path class="cls-3" d="M96.88,98.58a1,1,0,0,1-1-1v-2a5.15,5.15,0,0,0-5.15-5.14H81.07a5.15,5.15,0,0,0-5.14,5.14v2a1,1,0,0,1-2,0v-2a7.15,7.15,0,0,1,7.14-7.14h9.66a7.15,7.15,0,0,1,7.15,7.14v2A1,1,0,0,1,96.88,98.58Z"/><path class="cls-4" d="M116.49,114.77H1a1,1,0,0,1,0-2H116.49a1,1,0,0,1,0,2Z"/><path class="cls-5" d="M58.75,54.49A15.16,15.16,0,1,1,73.91,39.33,15.18,15.18,0,0,1,58.75,54.49Zm0-28.32A13.16,13.16,0,1,0,71.91,39.33,13.17,13.17,0,0,0,58.75,26.17Z"/><path class="cls-6" d="M55.56,47.49a1,1,0,0,1-.46-.11,1,1,0,0,1-.54-.89V32.16a1,1,0,0,1,1.58-.81l10.1,7.16a1,1,0,0,1,.42.82,1,1,0,0,1-.42.81l-10.1,7.17A1,1,0,0,1,55.56,47.49Zm1-13.39V44.56l7.37-5.23Z"/><path class="cls-7" d="M41.22,51.34H24.3a1,1,0,1,1,0-2H41.22a1,1,0,0,1,0,2Z"/><path class="cls-7" d="M16.51,51.34h-12a1,1,0,1,1,0-2h12a1,1,0,1,1,0,2Z"/><path class="cls-8" d="M12.27,33.16H5.15a1,1,0,1,1,0-2h7.12a1,1,0,0,1,0,2Z"/><path class="cls-8" d="M38.3,33.16h-17a1,1,0,0,1,0-2h17a1,1,0,1,1,0,2Z"/><path class="cls-9" d="M37.1,42.29H28.88a1,1,0,0,1,0-2H37.1a1,1,0,0,1,0,2Z"/><path class="cls-10" d="M22.15,42.28h-17a1,1,0,1,1,0-2h17a1,1,0,0,1,0,2Z"/><path class="cls-8" d="M93.8,33.16h-18a1,1,0,0,1,0-2h18a1,1,0,1,1,0,2Z"/><path class="cls-8" d="M113,33.16H101a1,1,0,0,1,0-2h12a1,1,0,1,1,0,2Z"/><path class="cls-7" d="M113,51.34h-7.13a1,1,0,0,1,0-2H113a1,1,0,1,1,0,2Z"/><path class="cls-7" d="M96.79,51.34h-17a1,1,0,1,1,0-2h17a1,1,0,0,1,0,2Z"/><path class="cls-11" d="M89.22,42.22H81a1,1,0,0,1,0-2h8.22a1,1,0,0,1,0,2Z"/><path class="cls-11" d="M113,42.22H96a1,1,0,0,1,0-2h17a1,1,0,1,1,0,2Z"/></g></g></svg>