<svg xmlns="http://www.w3.org/2000/svg" xmlns:xlink="http://www.w3.org/1999/xlink" viewBox="0 0 119.64 105.1"><defs><style>.cls-1{fill:url(#Безымянный_градиент_2);}.cls-2{fill:url(#Безымянный_градиент_2-2);}.cls-3{fill:url(#Безымянный_градиент_2-3);}.cls-4{fill:url(#Безымянный_градиент_2-4);}.cls-5{fill:url(#Безымянный_градиент_2-5);}.cls-6{fill:url(#Безымянный_градиент_2-6);}.cls-7{fill:url(#Безымянный_градиент_2-7);}.cls-8{fill:url(#Безымянный_градиент_2-8);}.cls-9{fill:url(#Безымянный_градиент_2-9);}.cls-10{fill:url(#Безымянный_градиент_2-10);}.cls-11{fill:url(#Безымянный_градиент_2-11);}.cls-12{fill:url(#Безымянный_градиент_2-12);}.cls-13{fill:url(#Безымянный_градиент_2-13);}.cls-14{fill:url(#Безымянный_градиент_2-14);}.cls-15{fill:url(#Безымянный_градиент_2-15);}.cls-16{fill:url(#Безымянный_градиент_2-16);}.cls-17{fill:url(#Безымянный_градиент_2-17);}.cls-18{fill:url(#Безымянный_градиент_2-18);}.cls-19{fill:url(#Безымянный_градиент_2-19);}.cls-20{fill:url(#Безымянный_градиент_2-20);}.cls-21{fill:url(#Безымянный_градиент_2-21);}.cls-22{fill:url(#Безымянный_градиент_2-23);}.cls-23{fill:url(#Безымянный_градиент_2-24);}.cls-24{fill:url(#Безымянный_градиент_2-25);}.cls-25{fill:url(#Безымянный_градиент_2-26);}.cls-26{fill:url(#Безымянный_градиент_2-27);}.cls-27{fill:url(#Безымянный_градиент_2-28);}.cls-28{fill:url(#Безымянный_градиент_2-29);}.cls-29{fill:url(#Безымянный_градиент_2-30);}.cls-30{fill:url(#Безымянный_градиент_2-31);}</style><linearGradient id="Безымянный_градиент_2" x1="-11.39" y1="73.61" x2="118.28" y2="73.61" gradientUnits="userSpaceOnUse"><stop offset="0" stop-color="#fccb36"/><stop offset="1" stop-color="#f49f24"/></linearGradient><linearGradient id="Безымянный_градиент_2-2" x1="-11.39" y1="76.55" x2="118.28" y2="76.55" xlink:href="#Безымянный_градиент_2"/><linearGradient id="Безымянный_градиент_2-3" x1="-11.39" y1="70.88" x2="118.28" y2="70.88" xlink:href="#Безымянный_градиент_2"/><linearGradient id="Безымянный_градиент_2-4" x1="-11.39" y1="52.3" x2="118.28" y2="52.3" xlink:href="#Безымянный_градиент_2"/><linearGradient id="Безымянный_градиент_2-5" x1="-11.39" y1="58.61" x2="118.28" y2="58.61" xlink:href="#Безымянный_градиент_2"/><linearGradient id="Безымянный_градиент_2-6" x1="-11.39" y1="60.75" x2="118.28" y2="60.75" xlink:href="#Безымянный_градиент_2"/><linearGradient id="Безымянный_градиент_2-7" x1="-11.39" y1="55.13" x2="118.28" y2="55.13" xlink:href="#Безымянный_градиент_2"/><linearGradient id="Безымянный_градиент_2-8" x1="-11.39" y1="64.25" x2="118.28" y2="64.25" xlink:href="#Безымянный_градиент_2"/><linearGradient id="Безымянный_градиент_2-9" x1="-11.39" y1="66.69" x2="118.28" y2="66.69" xlink:href="#Безымянный_градиент_2"/><linearGradient id="Безымянный_градиент_2-10" x1="-11.39" y1="76.09" x2="118.28" y2="76.09" xlink:href="#Безымянный_градиент_2"/><linearGradient id="Безымянный_градиент_2-11" x1="-11.39" y1="69.79" x2="118.28" y2="69.79" xlink:href="#Безымянный_градиент_2"/><linearGradient id="Безымянный_градиент_2-12" x1="-11.39" y1="72.95" x2="118.28" y2="72.95" xlink:href="#Безымянный_градиент_2"/><linearGradient id="Безымянный_градиент_2-13" x1="-11.39" y1="73.69" x2="118.28" y2="73.69" xlink:href="#Безымянный_градиент_2"/><linearGradient id="Безымянный_градиент_2-14" x1="-11.39" y1="59.39" x2="118.28" y2="59.39" xlink:href="#Безымянный_градиент_2"/><linearGradient id="Безымянный_градиент_2-15" x1="-11.39" y1="38.89" x2="118.28" y2="38.89" xlink:href="#Безымянный_градиент_2"/><linearGradient id="Безымянный_градиент_2-16" x1="-11.39" y1="29.5" x2="118.28" y2="29.5" xlink:href="#Безымянный_градиент_2"/><linearGradient id="Безымянный_градиент_2-17" x1="-11.39" y1="44.91" x2="118.28" y2="44.91" xlink:href="#Безымянный_градиент_2"/><linearGradient id="Безымянный_градиент_2-18" x1="-11.39" y1="21.99" x2="118.28" y2="21.99" xlink:href="#Безымянный_градиент_2"/><linearGradient id="Безымянный_градиент_2-19" x1="-11.39" y1="51.34" x2="118.28" y2="51.34" xlink:href="#Безымянный_градиент_2"/><linearGradient id="Безымянный_градиент_2-20" x1="-11.39" y1="44.66" x2="118.28" y2="44.66" xlink:href="#Безымянный_градиент_2"/><linearGradient id="Безымянный_градиент_2-21" x1="-11.39" y1="44.64" x2="118.28" y2="44.64" xlink:href="#Безымянный_градиент_2"/><linearGradient id="Безымянный_градиент_2-23" x1="-11.39" y1="10.89" x2="118.28" y2="10.89" xlink:href="#Безымянный_градиент_2"/><linearGradient id="Безымянный_градиент_2-24" x1="-11.39" y1="18.49" x2="118.28" y2="18.49" xlink:href="#Безымянный_градиент_2"/><linearGradient id="Безымянный_градиент_2-25" x1="-11.39" y1="18.47" x2="118.28" y2="18.47" xlink:href="#Безымянный_градиент_2"/><linearGradient id="Безымянный_градиент_2-26" x1="-11.39" y1="10.92" x2="118.28" y2="10.92" xlink:href="#Безымянный_градиент_2"/><linearGradient id="Безымянный_градиент_2-27" x1="-11.39" y1="29.54" x2="118.28" y2="29.54" xlink:href="#Безымянный_градиент_2"/><linearGradient id="Безымянный_градиент_2-28" x1="-11.39" y1="18.29" x2="118.28" y2="18.29" xlink:href="#Безымянный_градиент_2"/><linearGradient id="Безымянный_градиент_2-29" x1="-11.39" y1="66.27" x2="118.28" y2="66.27" xlink:href="#Безымянный_градиент_2"/><linearGradient id="Безымянный_градиент_2-30" x1="-11.39" y1="37.28" x2="118.28" y2="37.28" xlink:href="#Безымянный_градиент_2"/><linearGradient id="Безымянный_градиент_2-31" x1="-11.39" y1="91.81" x2="118.28" y2="91.81" xlink:href="#Безымянный_градиент_2"/></defs><g id="Слой_2" data-name="Слой 2"><g id="Режим_изоляции" data-name="Режим изоляции"><path class="cls-1" d="M11.84,105.1c-4,0-7.22-2.93-9.09-8.35C.21,88.84.11,80.65,0,72.73a36.78,36.78,0,0,1,1.8-12.9,8.79,8.79,0,0,1,4.82-5.08,9.72,9.72,0,0,1,7-.45l.18.08a2.19,2.19,0,0,0,1.74,0c3.38-.91,4.38,1,5,3.19l2,7.46a3.34,3.34,0,0,0,1.21,2,2.68,2.68,0,0,0,2.23.18l16.65-4.48a2.67,2.67,0,0,0,1.83-1.27,3.25,3.25,0,0,0,.07-2.31l-2-7.46c-.59-2.19-.67-4.34,2.7-5.25a2.88,2.88,0,0,0,1.57-1,9.2,9.2,0,0,1,6.39-3.27,9,9,0,0,1,6.67,2.06,32.6,32.6,0,0,1,8,10.28h0l.84,1.56c3.44,6.45,7,13.11,8.64,20.6,1.19,6.1-.43,10.45-4.57,12.25-3.8,1.74-8.63-.1-12-4.59a24.39,24.39,0,0,1-2.25-2.94c-.5-.76-1.07-1.54-1.62-2.28s-1.12-1.53-1.64-2.31a6.44,6.44,0,0,0-.51-.53A8.42,8.42,0,0,1,42.36,79a39.62,39.62,0,0,0-4.1,1,40.91,40.91,0,0,0-4.06,1.24A8.74,8.74,0,0,1,28.61,86a8,8,0,0,1-6.59-1,5.66,5.66,0,0,0-.12.68c0,.91-.16,1.89-.26,2.84s-.2,1.87-.26,2.79a25.28,25.28,0,0,1-.48,3.75c-.87,5.69-4,9.51-8.07,9.91A8.35,8.35,0,0,1,11.84,105.1Zm-1-49.26a8.21,8.21,0,0,0-3.34.73,6.8,6.8,0,0,0-3.75,3.89A35.08,35.08,0,0,0,2,72.69c.09,7.79.18,15.83,2.63,23.43,1.18,3.43,3.54,7.45,8,6.93,3.16-.31,5.58-3.48,6.31-8.27a24.21,24.21,0,0,0,.46-3.52c.05-1,.16-1.94.26-2.89s.21-1.88.26-2.79.31-2.66,2.15-2.69a.94.94,0,0,1,.62.2,6.1,6.1,0,0,0,5.41,1A6.86,6.86,0,0,0,32.54,80a1,1,0,0,1,.54-.54A39.63,39.63,0,0,1,37.73,78,40.53,40.53,0,0,1,42.51,77a1,1,0,0,1,.78.23,6.33,6.33,0,0,0,5.85,1.26,6.71,6.71,0,0,0,4.19-3.64,1,1,0,0,1,.41-.44c1.42-.78,2.49.42,3.13,1.14a.44.44,0,0,1,.08.11c.51.77,1.08,1.54,1.63,2.29s1.15,1.56,1.68,2.36a22.52,22.52,0,0,0,2.13,2.79c2.83,3.78,6.69,5.37,9.63,4,4.1-1.79,4.12-6.44,3.42-10-1.57-7.2-5.07-13.73-8.45-20l-.83-1.56a30.66,30.66,0,0,0-7.57-9.7,7,7,0,0,0-5.21-1.59,7.18,7.18,0,0,0-5,2.51,4.76,4.76,0,0,1-2.61,1.72c-1.52.41-1.83.78-1.29,2.8l2,7.46a5.21,5.21,0,0,1-.21,3.73,4.58,4.58,0,0,1-3.1,2.3L26.53,69.15a4.57,4.57,0,0,1-3.84-.44,5.1,5.1,0,0,1-2.05-3.11l-2-7.47c-.54-2-1-2.18-2.52-1.77A4.21,4.21,0,0,1,13,56.17,7,7,0,0,0,10.8,55.84Z"/><path class="cls-2" d="M26.05,81.71A5.11,5.11,0,0,1,23.48,81a5.16,5.16,0,1,1,3.92.51A5.22,5.22,0,0,1,26.05,81.71Zm0-8.33a3.3,3.3,0,0,0-.82.11h0A3.18,3.18,0,0,0,23,77.37a3.2,3.2,0,0,0,1.48,1.92,3.16,3.16,0,0,0,4.63-3.57A3.18,3.18,0,0,0,26.06,73.38ZM25,72.53h0Z"/><path class="cls-3" d="M47.1,76.05a5.18,5.18,0,0,1-2.57-.69,5.12,5.12,0,0,1-2.41-3.14,5.17,5.17,0,0,1,3.65-6.32h0a5.16,5.16,0,0,1,2.68,10A5.22,5.22,0,0,1,47.1,76.05Zm-.81-8.22a3.16,3.16,0,1,0,3.87,2.23,3.16,3.16,0,0,0-3.87-2.23Z"/><path class="cls-4" d="M19.29,57.65a1,1,0,0,1-1-.74,4,4,0,0,1,2.92-5L39.12,47.1a4,4,0,0,1,5,2.86,1,1,0,1,1-1.94.52A2,2,0,0,0,39.64,49L21.77,53.84a2,2,0,0,0-1.51,2.55,1,1,0,0,1-.71,1.23A1.15,1.15,0,0,1,19.29,57.65Z"/><path class="cls-5" d="M61.78,61.75a3.15,3.15,0,1,1,2.72-1.57,3,3,0,0,1-1.9,1.46A2.89,2.89,0,0,1,61.78,61.75Zm0-4.29a1.54,1.54,0,0,0-.3,0,1.13,1.13,0,0,0-.69.54,1.14,1.14,0,0,0,2,1.14,1.2,1.2,0,0,0,.12-.87,1.18,1.18,0,0,0-1.11-.85Z"/><path class="cls-6" d="M52.48,63.9a3.14,3.14,0,0,1-.82-6.18,3.14,3.14,0,0,1,3.54,4.6,3.09,3.09,0,0,1-1.9,1.47A3.36,3.36,0,0,1,52.48,63.9Zm0-4.29a1,1,0,0,0-.3,0,1.15,1.15,0,0,0-.69.53,1.21,1.21,0,0,0-.12.87,1.16,1.16,0,0,0,1.41.81,1.15,1.15,0,0,0,.8-1.4,1.11,1.11,0,0,0-.53-.7A1.16,1.16,0,0,0,52.48,59.61Z"/><path class="cls-7" d="M56,58.28a3.14,3.14,0,0,1-1.57-.43A3.09,3.09,0,0,1,53,56a3.14,3.14,0,0,1,4.61-3.54A3.09,3.09,0,0,1,59,54.31a3.21,3.21,0,0,1-.31,2.39,3.14,3.14,0,0,1-1.91,1.47A3.3,3.3,0,0,1,56,58.28ZM56,54a1,1,0,0,0-.3,0,1.08,1.08,0,0,0-.69.53,1.15,1.15,0,0,0,.42,1.56,1.15,1.15,0,0,0,.87.11A1.08,1.08,0,0,0,57,55.7a1.19,1.19,0,0,0,.12-.87A1.15,1.15,0,0,0,56,54Z"/><path class="cls-8" d="M58.14,67.39a3.14,3.14,0,0,1-.82-6.18,3.09,3.09,0,0,1,2.38.31A3.14,3.14,0,0,1,59,67.28,2.82,2.82,0,0,1,58.14,67.39Zm0-4.29a1.54,1.54,0,0,0-.3,0,1.15,1.15,0,0,0-.7.54,1.12,1.12,0,0,0-.11.86A1.14,1.14,0,1,0,59.24,64a1.15,1.15,0,0,0-.53-.69A1.07,1.07,0,0,0,58.14,63.1Z"/><path class="cls-9" d="M11,70.14a1.94,1.94,0,0,1-1.27-.46l-.08-.09L7.47,67.2A1.71,1.71,0,0,1,7,65.57a2.08,2.08,0,0,1,1.47-1.5l2.81-.75a1.87,1.87,0,0,1,1.72.36,2,2,0,0,1,.74,1.65.59.59,0,0,1,0,.14l-.64,3.18A1,1,0,0,1,13,69a2.35,2.35,0,0,1-1.66,1.16A2,2,0,0,1,11,70.14ZM9.07,66,11,68.14a.37.37,0,0,0,.18-.1l.57-2.82Z"/><path class="cls-10" d="M12.1,79.53a1.92,1.92,0,0,1-1.21-.43,2,2,0,0,1-.74-1.66.78.78,0,0,1,0-.14l.65-3.18a.27.27,0,0,1,0-.12,2,2,0,0,1,1.46-1.27,2.07,2.07,0,0,1,1.9.37l.08.09,2.13,2.39a1.7,1.7,0,0,1,.47,1.63,2.1,2.1,0,0,1-1.47,1.5l-2.81.75A1.79,1.79,0,0,1,12.1,79.53Zm.64-4.84-.58,2.87,2.67-.77-1.92-2.15Zm.22,0h0Z"/><path class="cls-11" d="M18.11,73.19h-.25l-3.18-.65-.12,0A2.05,2.05,0,0,1,13.29,71a2,2,0,0,1,.37-1.9l.08-.09,2.39-2.12a1.66,1.66,0,0,1,1.63-.47,2,2,0,0,1,1.5,1.47l.76,2.8a1.93,1.93,0,0,1-.37,1.73A2,2,0,0,1,18.11,73.19Zm-2.86-2.6,2.87.59-.77-2.67L15.2,70.42A.37.37,0,0,0,15.25,70.59Z"/><path class="cls-12" d="M6.53,76.3a2,2,0,0,1-.72-.13,1.89,1.89,0,0,1-1.18-1.31l-.76-2.8a1.92,1.92,0,0,1,.37-1.73,2,2,0,0,1,1.65-.74l.14,0,3.18.65.12,0a2.09,2.09,0,0,1,1.28,1.46,2,2,0,0,1-.38,1.9l-.08.09L7.72,75.89,7.61,76A2,2,0,0,1,6.53,76.3Zm-.75-4.7.76,2.67,2.15-1.91a.37.37,0,0,0,0-.18ZM9.48,73h0Z"/><path class="cls-13" d="M34.58,75.25a1,1,0,0,1-.26-2l4.22-1.14a1,1,0,1,1,.52,1.93l-4.22,1.14Z"/><path class="cls-14" d="M27.13,62.92a1,1,0,0,1-.95-.69l-1.63-5.07a1,1,0,0,1,1.91-.61l1.33,4.17,11.83-3.08a1,1,0,0,1,.5,1.94L27.38,62.89Z"/><path class="cls-15" d="M91.88,77.77a7.69,7.69,0,0,1-4.65-1.57c-3.41-2.43-4.22-7.54-2-12.69a23.38,23.38,0,0,1,1.43-3.42c.4-.82.79-1.69,1.17-2.54S88.58,55.82,89,55a6.61,6.61,0,0,0,.2-.69h0a8.5,8.5,0,0,1-6.11-2.42,8.4,8.4,0,0,1-2.45-7,39.9,39.9,0,0,0-2.87-3.08c-1-1-2-2-3.1-2.89a8.77,8.77,0,0,1-7-2.43,8,8,0,0,1-2.45-6.2c-.13,0-.34.11-.66.24-.81.41-1.71.81-2.58,1.19s-1.73.76-2.55,1.17a24.58,24.58,0,0,1-3.49,1.45c-5.37,2.09-10.22,1.32-12.62-2-2.68-3.62-1.91-8.2,2.16-12.87C51,13.24,58.08,9.06,64.89,5A37,37,0,0,1,77,.15c4.64-.93,9.74,2.65,10.71,7.51a1.23,1.23,0,0,1,0,.19,2.2,2.2,0,0,0,.83,1.54,3.91,3.91,0,0,1,1.41,3,5.1,5.1,0,0,1-1.69,2.85l-5.47,5.46c-1.41,1.41-1.45,2.74-.14,4.05L94.83,37c1.32,1.32,2.64,1.27,4-.14l5.47-5.46a5,5,0,0,1,2.85-1.69,3.88,3.88,0,0,1,3,1.41,2.88,2.88,0,0,0,1.67.84,9.19,9.19,0,0,1,6,3.91,9,9,0,0,1,1.55,6.8,32.82,32.82,0,0,1-4.89,12.1h0l-.94,1.5c-3.86,6.2-7.85,12.61-13.53,17.76C97.27,76.52,94.46,77.77,91.88,77.77Zm-2.1-25.52a1,1,0,0,1,.52.15c1.39.83.88,2.36.57,3.27a.5.5,0,0,1-.05.13c-.41.82-.8,1.7-1.17,2.55s-.78,1.78-1.22,2.64a23.77,23.77,0,0,0-1.34,3.23c-1.86,4.35-1.32,8.48,1.31,10.36,3.6,2.66,7.64.36,10.39-2,5.46-5,9.38-11.24,13.17-17.33l.93-1.5a30.67,30.67,0,0,0,4.63-11.4A7,7,0,0,0,116.3,37a7.26,7.26,0,0,0-4.68-3.08,4.76,4.76,0,0,1-2.79-1.4c-.88-.88-1.29-.85-1.43-.83a3.36,3.36,0,0,0-1.64,1.11l-5.46,5.47c-2.2,2.2-4.77,2.25-6.88.14L81.23,26.22c-2.11-2.11-2.06-4.68.14-6.88l5.46-5.47A3.38,3.38,0,0,0,88,12.24c0-.14,0-.55-.84-1.44A4.22,4.22,0,0,1,85.7,8c-.79-3.72-4.82-6.55-8.33-5.85A35.17,35.17,0,0,0,65.92,6.74c-6.7,4-13.61,8.06-19,14-2.38,2.74-4.69,6.77-2,10.36,1.85,2.59,5.8,3.1,10.32,1.34a23.18,23.18,0,0,0,3.28-1.36c.86-.43,1.76-.83,2.63-1.21s1.73-.76,2.55-1.17,2.46-1.06,3.41.52a1,1,0,0,1,.13.64A6.09,6.09,0,0,0,69.05,35a6.84,6.84,0,0,0,5.76,1.82,1,1,0,0,1,.73.2,38.07,38.07,0,0,1,3.6,3.31A39.23,39.23,0,0,1,82.44,44a1,1,0,0,1,.2.79,6.33,6.33,0,0,0,1.82,5.71,6.82,6.82,0,0,0,5.26,1.81Zm24,2h0Z"/><path class="cls-16" d="M74.59,34.66a5.16,5.16,0,1,1,3.65-8.81h0a5.16,5.16,0,0,1-3.65,8.81Zm0-8.33a3.17,3.17,0,0,0-2.24,5.4,3.23,3.23,0,0,0,4.47,0,3.17,3.17,0,0,0,0-4.47A3.13,3.13,0,0,0,74.59,26.33Z"/><path class="cls-17" d="M90,50.07a5.16,5.16,0,1,1,3.65-8.81h0A5.16,5.16,0,0,1,90,50.07Zm0-8.32a3.16,3.16,0,1,0,2.24.92h0A3.19,3.19,0,0,0,90,41.75Z"/><path class="cls-18" d="M106,32.2a1,1,0,0,1-.71-.29,1,1,0,0,1,0-1.41,2,2,0,0,0,0-3L92.12,14.45a2,2,0,0,0-3,0,1,1,0,0,1-1.42,0,1,1,0,0,1,0-1.41,4,4,0,0,1,5.79,0l13.09,13.09a4,4,0,0,1,0,5.79A1,1,0,0,1,106,32.2Z"/><path class="cls-19" d="M107.64,54.47a3.15,3.15,0,0,1-2.22-5.37,3.22,3.22,0,0,1,4.45,0,3.15,3.15,0,0,1-2.23,5.37Zm0-4.29a1.15,1.15,0,0,0-.81,2,1.17,1.17,0,0,0,1.62,0,1.13,1.13,0,0,0,0-1.61A1.11,1.11,0,0,0,107.64,50.18Z"/><path class="cls-20" d="M101,47.78a3.14,3.14,0,0,1-2.22-5.36,3.21,3.21,0,0,1,4.44,0A3.14,3.14,0,0,1,101,47.78Zm0-4.28a1.18,1.18,0,0,0-.81.33,1.16,1.16,0,0,0,0,1.62,1.14,1.14,0,0,0,1.62,0,1.14,1.14,0,0,0-.81-2Z"/><path class="cls-21" d="M107.64,47.77a3.15,3.15,0,0,1-2.22-5.37,3.22,3.22,0,0,1,4.45,0,3.15,3.15,0,0,1-2.23,5.37Zm0-4.29a1.15,1.15,0,0,0-.81,2,1.17,1.17,0,0,0,1.62,0,1.13,1.13,0,0,0,0-1.61h0A1.11,1.11,0,0,0,107.64,43.48Z"/><path class="cls-19" d="M101,54.47a3.15,3.15,0,0,1-2.22-5.37,3.21,3.21,0,0,1,4.44,0A3.15,3.15,0,0,1,101,54.47Zm0-4.29a1.15,1.15,0,0,0-.81,2,1.17,1.17,0,0,0,1.62,0,1.15,1.15,0,0,0,0-1.61A1.13,1.13,0,0,0,101,50.18Z"/><path class="cls-22" d="M74.63,14.36a2.37,2.37,0,0,1-1.83-.86,1.91,1.91,0,0,1-.43-1.62.53.53,0,0,1,0-.12l1-3a1.67,1.67,0,0,1,1.18-1.22,2.07,2.07,0,0,1,2,.52l2,2.06a1.89,1.89,0,0,1,.55,1.67,2,2,0,0,1-1.06,1.47l-.13,0-3.08,1A1.19,1.19,0,0,1,74.63,14.36Zm-.28-2.12a.38.38,0,0,0,.17.1l2.73-.91-2-1.93Z"/><path class="cls-23" d="M68.87,22a2.09,2.09,0,0,1-1.47-.61L65.35,19.3a1.91,1.91,0,0,1-.55-1.67,2,2,0,0,1,1.07-1.47l.13-.05,3.08-1,.12,0a2.06,2.06,0,0,1,1.83.62,2.08,2.08,0,0,1,.63,1.84.56.56,0,0,1,0,.12l-1,3a1.66,1.66,0,0,1-1.17,1.22A1.87,1.87,0,0,1,68.87,22Zm-2.1-4,2,1.93.91-2.73a.5.5,0,0,0-.12-.13Zm3.91-.65h0Z"/><path class="cls-24" d="M75.26,21.93a1.73,1.73,0,0,1-.32,0,2,2,0,0,1-1.46-1.06l-.06-.13-1-3.08a.53.53,0,0,1,0-.12A2,2,0,0,1,73,15.68a2.06,2.06,0,0,1,1.84-.63l.12,0,3,1a1.71,1.71,0,0,1,1.22,1.18,2.08,2.08,0,0,1-.53,2l-2,2.05A1.89,1.89,0,0,1,75.26,21.93Zm-.91-4.77.93,2.77,1.92-2L74.48,17A.4.4,0,0,0,74.35,17.16Z"/><path class="cls-25" d="M69.54,14.37a1.87,1.87,0,0,1-.34,0l-.12,0-3.08-1-.13,0a2,2,0,0,1-1.07-1.47,1.9,1.9,0,0,1,.55-1.67L67.4,8a1.94,1.94,0,0,1,1.68-.54,2,2,0,0,1,1.46,1.06.75.75,0,0,1,.06.13l1,3.08a.56.56,0,0,1,0,.12A2.06,2.06,0,0,1,71,13.71,2.12,2.12,0,0,1,69.54,14.37Zm-2.72-2.92,2.73.91a.5.5,0,0,0,.12-.13l-.92-2.78Z"/><path class="cls-26" d="M96.79,35h0a1,1,0,0,1-.71-.3l-8.85-8.84a1,1,0,1,1,1.42-1.42l8.14,8.14L101.34,28a1,1,0,0,1,1.42,0,1,1,0,0,1,0,1.41l-5.27,5.26A1,1,0,0,1,96.79,35Z"/><path class="cls-27" d="M88.76,20.25a1,1,0,0,1-.71-.29,1,1,0,0,1,0-1.41L90,16.63a1,1,0,0,1,1.42,0,1,1,0,0,1,0,1.41L89.47,20A1,1,0,0,1,88.76,20.25Z"/><path class="cls-28" d="M94,71.92a1,1,0,0,1-.83-.45,1,1,0,0,1,.28-1.38,28.09,28.09,0,0,0,8.21-8.63,1,1,0,0,1,1.94-.12c.39,1.26-4.11,7.1-9,10.41A1,1,0,0,1,94,71.92Zm7.69-10h0Zm0,0h0Z"/><path class="cls-29" d="M83.92,39.83a1,1,0,0,1-.71-.3l-3.09-3.09A1,1,0,0,1,81.53,35l3.09,3.09a1,1,0,0,1,0,1.41A1,1,0,0,1,83.92,39.83Z"/><path class="cls-30" d="M11.15,100.32a1,1,0,0,1-.79-.38c-4.9-6.2-4.14-15.34-4.11-15.73a1,1,0,1,1,2,.18c0,.08-.71,8.75,3.69,14.31a1,1,0,0,1-.16,1.41A1,1,0,0,1,11.15,100.32Z"/></g></g></svg>