<svg xmlns="http://www.w3.org/2000/svg" xmlns:xlink="http://www.w3.org/1999/xlink" viewBox="0 0 126.33 127"><defs><style>.cls-1{fill:url(#Безымянный_градиент_2);}.cls-2{fill:url(#Безымянный_градиент_2-2);}.cls-3{fill:url(#Безымянный_градиент_2-5);}.cls-4{fill:url(#Безымянный_градиент_2-6);}.cls-5{fill:url(#Безымянный_градиент_2-7);}.cls-6{fill:url(#Безымянный_градиент_2-8);}.cls-7{fill:url(#Безымянный_градиент_2-10);}.cls-8{fill:url(#Безымянный_градиент_2-11);}.cls-9{fill:url(#Безымянный_градиент_2-18);}.cls-10{fill:url(#Безымянный_градиент_2-19);}.cls-11{fill:url(#Безымянный_градиент_2-21);}.cls-12{fill:url(#Безымянный_градиент_2-22);}.cls-13{fill:url(#Безымянный_градиент_2-23);}.cls-14{fill:url(#Безымянный_градиент_2-24);}.cls-15{fill:url(#Безымянный_градиент_2-25);}.cls-16{fill:url(#Безымянный_градиент_2-26);}.cls-17{fill:url(#Безымянный_градиент_2-27);}.cls-18{fill:url(#Безымянный_градиент_2-28);}</style><linearGradient id="Безымянный_градиент_2" x1="-7.31" y1="103.28" x2="130.83" y2="103.28" gradientUnits="userSpaceOnUse"><stop offset="0" stop-color="#fccb36"/><stop offset="1" stop-color="#f49f24"/></linearGradient><linearGradient id="Безымянный_градиент_2-2" x1="-7.31" y1="120.21" x2="130.83" y2="120.21" xlink:href="#Безымянный_градиент_2"/><linearGradient id="Безымянный_градиент_2-5" x1="-7.31" y1="126" x2="130.83" y2="126" xlink:href="#Безымянный_градиент_2"/><linearGradient id="Безымянный_градиент_2-6" x1="-7.31" y1="71.94" x2="130.83" y2="71.94" xlink:href="#Безымянный_градиент_2"/><linearGradient id="Безымянный_градиент_2-7" x1="-7.31" y1="88.86" x2="130.83" y2="88.86" xlink:href="#Безымянный_градиент_2"/><linearGradient id="Безымянный_градиент_2-8" x1="-7.31" y1="98.72" x2="130.83" y2="98.72" xlink:href="#Безымянный_градиент_2"/><linearGradient id="Безымянный_градиент_2-10" x1="-7.31" y1="94.65" x2="130.83" y2="94.65" xlink:href="#Безымянный_градиент_2"/><linearGradient id="Безымянный_градиент_2-11" x1="-7.31" y1="86.58" x2="130.83" y2="86.58" xlink:href="#Безымянный_градиент_2"/><linearGradient id="Безымянный_градиент_2-18" x1="-7.31" y1="27.56" x2="130.83" y2="27.56" xlink:href="#Безымянный_градиент_2"/><linearGradient id="Безымянный_градиент_2-19" x1="-7.31" y1="54.12" x2="130.83" y2="54.12" xlink:href="#Безымянный_градиент_2"/><linearGradient id="Безымянный_градиент_2-21" x1="-7.31" y1="10.6" x2="130.83" y2="10.6" xlink:href="#Безымянный_градиент_2"/><linearGradient id="Безымянный_градиент_2-22" x1="-7.31" y1="15.38" x2="130.83" y2="15.38" xlink:href="#Безымянный_градиент_2"/><linearGradient id="Безымянный_градиент_2-23" x1="-7.31" y1="40.45" x2="130.83" y2="40.45" xlink:href="#Безымянный_градиент_2"/><linearGradient id="Безымянный_градиент_2-24" x1="-7.31" y1="44.84" x2="130.83" y2="44.84" xlink:href="#Безымянный_градиент_2"/><linearGradient id="Безымянный_градиент_2-25" x1="-7.31" y1="29.82" x2="130.83" y2="29.82" xlink:href="#Безымянный_градиент_2"/><linearGradient id="Безымянный_градиент_2-26" x1="-7.31" y1="30.55" x2="130.83" y2="30.55" xlink:href="#Безымянный_градиент_2"/><linearGradient id="Безымянный_градиент_2-27" x1="-7.31" y1="23.52" x2="130.83" y2="23.52" xlink:href="#Безымянный_градиент_2"/><linearGradient id="Безымянный_градиент_2-28" x1="-7.31" y1="36.31" x2="130.83" y2="36.31" xlink:href="#Безымянный_градиент_2"/></defs><g id="Слой_2" data-name="Слой 2"><g id="Режим_изоляции" data-name="Режим изоляции"><path class="cls-1" d="M39.85,115.42c-3.4,0-6.46-2.42-7.89-6.21a3.43,3.43,0,0,1-1-5.41,11.27,11.27,0,0,1-.33-2.73c0-5.56,4-9.92,9.21-9.92s9.21,4.36,9.21,9.92a11.27,11.27,0,0,1-.33,2.73,3.46,3.46,0,0,1,.92,2.35,3.38,3.38,0,0,1-1.91,3.06C46.31,113,43.25,115.42,39.85,115.42Zm0-22.27c-4,0-7.21,3.48-7.21,7.92a9.32,9.32,0,0,0,.42,2.78,1,1,0,0,1-.4,1.13,1.39,1.39,0,0,0-.61,1.17,1.37,1.37,0,0,0,1,1.33,1,1,0,0,1,.68.65c1.07,3.21,3.49,5.29,6.15,5.29s5.08-2.08,6.15-5.29a1,1,0,0,1,.68-.65,1.37,1.37,0,0,0,1-1.33A1.39,1.39,0,0,0,47,105a1,1,0,0,1-.4-1.13,9.32,9.32,0,0,0,.42-2.78C47.06,96.63,43.89,93.15,39.85,93.15Z"/><path class="cls-2" d="M55.57,127H41.83a1,1,0,1,1,0-2H54.57v-6.47a36.39,36.39,0,0,0-29.44,0V125h9.12a1,1,0,0,1,0,2H24.13a1,1,0,0,1-1-1v-8.11a1,1,0,0,1,.58-.91A38.37,38.37,0,0,1,56,117a1,1,0,0,1,.58.91V126A1,1,0,0,1,55.57,127Z"/><path class="cls-1" d="M86.7,115.42c-3.41,0-6.46-2.42-7.89-6.21a3.41,3.41,0,0,1-1-5.41,11.28,11.28,0,0,1-.34-2.73c0-5.56,4-9.92,9.22-9.92s9.21,4.36,9.21,9.92a11.28,11.28,0,0,1-.34,2.73,3.41,3.41,0,0,1-1,5.41C93.15,113,90.1,115.42,86.7,115.42Zm0-22.27c-4,0-7.22,3.48-7.22,7.92a9.33,9.33,0,0,0,.43,2.78,1,1,0,0,1-.4,1.13,1.4,1.4,0,0,0,.35,2.5,1,1,0,0,1,.68.65c1.08,3.21,3.5,5.29,6.16,5.29s5.07-2.08,6.15-5.29a1,1,0,0,1,.68-.65,1.4,1.4,0,0,0,.35-2.5,1,1,0,0,1-.39-1.13,9.32,9.32,0,0,0,.42-2.78C93.91,96.63,90.74,93.15,86.7,93.15Z"/><path class="cls-2" d="M102.42,127H71a1,1,0,0,1-1-1v-8.11a1,1,0,0,1,.58-.91,38.39,38.39,0,0,1,32.29,0,1,1,0,0,1,.58.91V126A1,1,0,0,1,102.42,127ZM72,125h29.45v-6.47a36.41,36.41,0,0,0-29.45,0Z"/><path class="cls-3" d="M71,127h-64a1,1,0,0,1,0-2H71a1,1,0,0,1,0,2Z"/><path class="cls-4" d="M16.72,84.07c-3.4,0-6.45-2.42-7.89-6.2a3.43,3.43,0,0,1-1-5.41,11.42,11.42,0,0,1-.33-2.74c0-5.56,4.05-9.92,9.21-9.92a8.85,8.85,0,0,1,5.14,1.64,1,1,0,0,1,.24,1.39,1,1,0,0,1-1.4.24,6.83,6.83,0,0,0-4-1.27c-4,0-7.21,3.48-7.21,7.92a9.27,9.27,0,0,0,.42,2.78,1,1,0,0,1-.39,1.13,1.39,1.39,0,0,0-.62,1.17,1.37,1.37,0,0,0,1,1.33,1,1,0,0,1,.68.65c1.08,3.21,3.49,5.29,6.15,5.29S21.8,80,22.88,76.78a1,1,0,0,1,.67-.65,1.36,1.36,0,0,0,1-1.33,1.41,1.41,0,0,0-.61-1.17,1,1,0,0,1-.4-1.13,9.27,9.27,0,0,0,.42-2.78,8.85,8.85,0,0,0-.68-3.45,1,1,0,0,1,1.84-.78,10.72,10.72,0,0,1,.84,4.23,11.42,11.42,0,0,1-.33,2.74,3.43,3.43,0,0,1-1,5.41C23.18,81.65,20.13,84.07,16.72,84.07Z"/><path class="cls-5" d="M27.51,95.65H1a1,1,0,0,1-1-1V86.54a1,1,0,0,1,.58-.91,38.39,38.39,0,0,1,32.29,0,1,1,0,0,1,.58.91v3.54a1,1,0,1,1-2,0v-2.9A36.41,36.41,0,0,0,2,87.18v6.47H27.51a1,1,0,1,1,0,2Z"/><path class="cls-6" d="M25.49,99.72H1a1,1,0,0,1,0-2H25.49a1,1,0,0,1,0,2Z"/><path class="cls-4" d="M63.17,84.07c-3.4,0-6.46-2.42-7.89-6.2a3.43,3.43,0,0,1-1-5.41A11.42,11.42,0,0,1,54,69.72c0-5.56,4-9.92,9.21-9.92s9.21,4.36,9.21,9.92a11.42,11.42,0,0,1-.33,2.74,3.43,3.43,0,0,1-1,5.41C69.62,81.65,66.57,84.07,63.17,84.07Zm0-22.27c-4.05,0-7.21,3.48-7.21,7.92a9.27,9.27,0,0,0,.42,2.78,1,1,0,0,1-.4,1.13,1.41,1.41,0,0,0-.61,1.17,1.36,1.36,0,0,0,1,1.33,1,1,0,0,1,.67.65c1.08,3.21,3.5,5.29,6.16,5.29s5.07-2.08,6.15-5.29a1,1,0,0,1,.68-.65,1.37,1.37,0,0,0,1-1.33,1.39,1.39,0,0,0-.62-1.17A1,1,0,0,1,70,72.5a9.27,9.27,0,0,0,.42-2.78C70.38,65.28,67.21,61.8,63.17,61.8Z"/><path class="cls-7" d="M74.46,95.65H51.88a1,1,0,1,1,0-2H74.46a1,1,0,1,1,0,2Z"/><path class="cls-8" d="M78.89,91.08a1,1,0,0,1-1-1v-2.9a36.41,36.41,0,0,0-29.45,0v2.9a1,1,0,0,1-2,0V86.54a1,1,0,0,1,.58-.91,38.39,38.39,0,0,1,32.29,0,1,1,0,0,1,.58.91v3.54A1,1,0,0,1,78.89,91.08Z"/><path class="cls-6" d="M71.69,99.72h-17a1,1,0,0,1,0-2h17a1,1,0,0,1,0,2Z"/><path class="cls-4" d="M109.61,84.07c-3.4,0-6.45-2.42-7.89-6.2a3.43,3.43,0,0,1-1-5.41,11.42,11.42,0,0,1-.33-2.74c0-5.56,4-9.92,9.21-9.92s9.21,4.36,9.21,9.92a11.42,11.42,0,0,1-.33,2.74,3.43,3.43,0,0,1-1,5.41C116.07,81.65,113,84.07,109.61,84.07Zm0-22.27c-4,0-7.21,3.48-7.21,7.92a9.27,9.27,0,0,0,.42,2.78,1,1,0,0,1-.4,1.13,1.41,1.41,0,0,0-.61,1.17,1.37,1.37,0,0,0,1,1.33,1,1,0,0,1,.68.65c1.08,3.21,3.49,5.29,6.15,5.29s5.08-2.08,6.16-5.29a1,1,0,0,1,.67-.65,1.37,1.37,0,0,0,1-1.33,1.41,1.41,0,0,0-.61-1.17,1,1,0,0,1-.4-1.13,9.27,9.27,0,0,0,.42-2.78C116.82,65.28,113.66,61.8,109.61,61.8Z"/><path class="cls-6" d="M125.33,99.72H101.05a1,1,0,1,1,0-2h24.28a1,1,0,1,1,0,2Z"/><path class="cls-5" d="M125.33,95.65h-6.92a1,1,0,0,1,0-2h5.92V87.18a36.39,36.39,0,0,0-29.44,0v3a1,1,0,0,1-2,0V86.54a1,1,0,0,1,.58-.91,38.39,38.39,0,0,1,32.29,0,1,1,0,0,1,.57.91v8.11A1,1,0,0,1,125.33,95.65Z"/><path class="cls-3" d="M125.33,127H102.42a1,1,0,0,1,0-2h22.91a1,1,0,0,1,0,2Z"/><path class="cls-3" d="M12.86,127H1a1,1,0,0,1,0-2H12.86a1,1,0,1,1,0,2Z"/><path class="cls-9" d="M108.78,55.12a1,1,0,0,1-1-1V2h-91V53.12h8.71a1,1,0,1,1,0,2H15.78a1,1,0,0,1-1-1V1a1,1,0,0,1,1-1h93a1,1,0,0,1,1,1V54.12A1,1,0,0,1,108.78,55.12Z"/><path class="cls-10" d="M92.7,55.12H20.49a1,1,0,0,1,0-2H92.7a1,1,0,0,1,0,2Z"/><path class="cls-10" d="M108.78,55.12h-7.12a1,1,0,0,1,0-2h7.12a1,1,0,0,1,0,2Z"/><path class="cls-11" d="M56.33,11.6H26.22a1,1,0,0,1,0-2H56.33a1,1,0,0,1,0,2Z"/><path class="cls-12" d="M40.18,16.38h-14a1,1,0,0,1,0-2h14a1,1,0,0,1,0,2Z"/><path class="cls-13" d="M61.45,41.45h-14a1,1,0,1,1,0-2h14a1,1,0,0,1,0,2Z"/><path class="cls-14" d="M61.45,45.84H53.32a1,1,0,1,1,0-2h8.13a1,1,0,0,1,0,2Z"/><path class="cls-15" d="M33.75,38.34a8.53,8.53,0,1,1,8.52-8.52A8.54,8.54,0,0,1,33.75,38.34Zm0-15.05a6.53,6.53,0,1,0,6.52,6.53A6.54,6.54,0,0,0,33.75,23.29Z"/><path class="cls-16" d="M58.24,35.15a4.6,4.6,0,1,1,4.59-4.6A4.6,4.6,0,0,1,58.24,35.15Zm0-7.19a2.6,2.6,0,1,0,2.59,2.59A2.59,2.59,0,0,0,58.24,28Z"/><path class="cls-17" d="M89.05,33.94H78.18a1,1,0,0,1-.87-.5L71.87,24a1,1,0,0,1,0-1l5.44-9.42a1,1,0,0,1,.87-.5H89.05a1,1,0,0,1,.87.5L95.36,23a1,1,0,0,1,0,1l-5.44,9.42A1,1,0,0,1,89.05,33.94Zm-10.3-2h9.73l4.86-8.42L88.48,15.1H78.75l-4.86,8.42Z"/><path class="cls-18" d="M92.64,40.81H84.55a1,1,0,0,1,0-2h7.52l3.76-6.51a1,1,0,0,1,1.36-.36,1,1,0,0,1,.37,1.36l-4,7A1,1,0,0,1,92.64,40.81Z"/></g></g></svg>