<svg xmlns="http://www.w3.org/2000/svg" xmlns:xlink="http://www.w3.org/1999/xlink" viewBox="0 0 117.49 114.77"><defs><style>.cls-1{fill:url(#Безымянный_градиент_2);}.cls-2{fill:url(#Безымянный_градиент_2-2);}.cls-3{fill:url(#Безымянный_градиент_2-5);}.cls-4{fill:url(#Безымянный_градиент_2-6);}.cls-5{fill:url(#Безымянный_градиент_2-7);}</style><linearGradient id="Безымянный_градиент_2" x1="-13.78" y1="40.38" x2="132.46" y2="40.38" gradientUnits="userSpaceOnUse"><stop offset="0" stop-color="#fccb36"/><stop offset="1" stop-color="#f49f24"/></linearGradient><linearGradient id="Безымянный_градиент_2-2" x1="-13.78" y1="93.53" x2="132.46" y2="93.53" xlink:href="#Безымянный_градиент_2"/><linearGradient id="Безымянный_градиент_2-5" x1="-13.78" y1="108.16" x2="132.46" y2="108.16" xlink:href="#Безымянный_градиент_2"/><linearGradient id="Безымянный_градиент_2-6" x1="-13.78" y1="40.38" x2="132.46" y2="40.38" xlink:href="#Безымянный_градиент_2"/><linearGradient id="Безымянный_градиент_2-7" x1="-13.78" y1="40.38" x2="132.46" y2="40.38" xlink:href="#Безымянный_градиент_2"/></defs><g id="Слой_2" data-name="Слой 2"><g id="Режим_изоляции" data-name="Режим изоляции"><path class="cls-1" d="M4.16,80.75H113.34a1,1,0,0,0,1-1V1a1,1,0,0,0-1-1H4.16a1,1,0,0,0-1,1V79.75A1,1,0,0,0,4.16,80.75ZM5.16,2H112.34V78.75H5.16Z"/><path class="cls-2" d="M42.56,98.58a1,1,0,0,0,1-1v-2a7.14,7.14,0,0,0-7.14-7.14H26.76a7.14,7.14,0,0,0-7.14,7.14v2a1,1,0,0,0,2,0v-2a5.14,5.14,0,0,1,5.14-5.14h9.66a5.15,5.15,0,0,1,5.14,5.14v2A1,1,0,0,0,42.56,98.58Z"/><path class="cls-2" d="M69.72,98.58a1,1,0,0,0,1-1v-2a7.15,7.15,0,0,0-7.14-7.14H53.92a7.14,7.14,0,0,0-7.14,7.14v2a1,1,0,1,0,2,0v-2a5.14,5.14,0,0,1,5.14-5.14h9.66a5.15,5.15,0,0,1,5.14,5.14v2A1,1,0,0,0,69.72,98.58Z"/><path class="cls-2" d="M96.88,98.58a1,1,0,0,0,1-1v-2a7.15,7.15,0,0,0-7.15-7.14H81.07a7.15,7.15,0,0,0-7.14,7.14v2a1,1,0,0,0,2,0v-2a5.15,5.15,0,0,1,5.14-5.14h9.66a5.15,5.15,0,0,1,5.15,5.14v2A1,1,0,0,0,96.88,98.58Z"/><path class="cls-3" d="M116.49,112.77h-5V108.7a7.15,7.15,0,0,0-7.15-7.14H94.65a7.15,7.15,0,0,0-7.14,7.14v4.07H84.3V108.7a7.15,7.15,0,0,0-7.14-7.14H67.5a7.15,7.15,0,0,0-7.15,7.14v4.07H57.14V108.7A7.14,7.14,0,0,0,50,101.56H40.34a7.14,7.14,0,0,0-7.14,7.14v4.07H30V108.7a7.14,7.14,0,0,0-7.14-7.14H13.18A7.14,7.14,0,0,0,6,108.7v4.07H1a1,1,0,0,0,0,2H116.49a1,1,0,0,0,0-2Zm-27-4.07a5.14,5.14,0,0,1,5.14-5.14h9.66a5.15,5.15,0,0,1,5.15,5.14v4.07H89.51Zm-27.16,0a5.15,5.15,0,0,1,5.15-5.14h9.66a5.14,5.14,0,0,1,5.14,5.14v4.07H62.35Zm-27.15,0a5.14,5.14,0,0,1,5.14-5.14H50a5.14,5.14,0,0,1,5.14,5.14v4.07H35.2ZM8,108.7a5.14,5.14,0,0,1,5.14-5.14h9.66A5.14,5.14,0,0,1,28,108.7v4.07H8Z"/><path class="cls-4" d="M67.67,39.51,55,32.18a1,1,0,0,0-1.5.86V47.71a1,1,0,0,0,.5.86,1,1,0,0,0,.5.14,1,1,0,0,0,.5-.14l12.7-7.33a1,1,0,0,0,0-1.73ZM55.47,46V34.78l9.7,5.6Z"/><path class="cls-5" d="M75.5,24.11H42A4.91,4.91,0,0,0,37.09,29V51.73A4.91,4.91,0,0,0,42,56.64H75.5a4.92,4.92,0,0,0,4.92-4.91V29A4.92,4.92,0,0,0,75.5,24.11Zm2.92,27.62a2.91,2.91,0,0,1-2.92,2.91H42a2.91,2.91,0,0,1-2.91-2.91V29A2.91,2.91,0,0,1,42,26.11H75.5A2.92,2.92,0,0,1,78.42,29Z"/></g></g></svg>