<svg xmlns="http://www.w3.org/2000/svg" xmlns:xlink="http://www.w3.org/1999/xlink" viewBox="0 0 111.04 76.32"><defs><style>.cls-1{fill:url(#Безымянный_градиент_2);}.cls-2{fill:url(#Безымянный_градиент_2-2);}.cls-3{fill:url(#Безымянный_градиент_2-3);}.cls-4{fill:url(#Безымянный_градиент_2-4);}.cls-5{fill:url(#Безымянный_градиент_2-5);}.cls-6{fill:url(#Безымянный_градиент_2-6);}.cls-7{fill:url(#Безымянный_градиент_2-7);}.cls-8{fill:url(#Безымянный_градиент_2-8);}.cls-9{fill:url(#Безымянный_градиент_2-10);}</style><linearGradient id="Безымянный_градиент_2" x1="-15.17" y1="50.59" x2="122.26" y2="50.59" gradientUnits="userSpaceOnUse"><stop offset="0" stop-color="#fccb36"/><stop offset="1" stop-color="#f49f24"/></linearGradient><linearGradient id="Безымянный_градиент_2-2" x1="-15.17" y1="43.91" x2="122.26" y2="43.91" xlink:href="#Безымянный_градиент_2"/><linearGradient id="Безымянный_градиент_2-3" x1="-15.17" y1="57.28" x2="122.26" y2="57.28" xlink:href="#Безымянный_градиент_2"/><linearGradient id="Безымянный_градиент_2-4" x1="-15.17" y1="50.59" x2="122.26" y2="50.59" xlink:href="#Безымянный_градиент_2"/><linearGradient id="Безымянный_градиент_2-5" x1="-15.17" y1="50.69" x2="122.26" y2="50.69" xlink:href="#Безымянный_градиент_2"/><linearGradient id="Безымянный_градиент_2-6" x1="-15.17" y1="58.36" x2="122.26" y2="58.36" xlink:href="#Безымянный_градиент_2"/><linearGradient id="Безымянный_градиент_2-7" x1="-15.17" y1="50.69" x2="122.26" y2="50.69" xlink:href="#Безымянный_градиент_2"/><linearGradient id="Безымянный_градиент_2-8" x1="-15.17" y1="43.01" x2="122.26" y2="43.01" xlink:href="#Безымянный_градиент_2"/><linearGradient id="Безымянный_градиент_2-10" x1="-15.17" y1="38.16" x2="122.26" y2="38.16" xlink:href="#Безымянный_градиент_2"/></defs><g id="Слой_2" data-name="Слой 2"><g id="Layer_1" data-name="Layer 1"><path class="cls-1" d="M61.82,49.59H38.9a1,1,0,0,0,0,2H61.82a1,1,0,0,0,0-2Z"/><path class="cls-2" d="M61.82,42.91H38.9a1,1,0,0,0,0,2H61.82a1,1,0,0,0,0-2Z"/><path class="cls-3" d="M48.36,56.28H38.9a1,1,0,0,0,0,2h9.46a1,1,0,0,0,0-2Z"/><path class="cls-4" d="M92.81,47.17l-7-1-3.12-6.32a1,1,0,0,0-.89-.56,1,1,0,0,0-.9.56L77.8,46.15l-7,1a1,1,0,0,0-.55,1.7l5,4.93-1.19,6.94a1,1,0,0,0,1,1.17,1,1,0,0,0,.47-.11l6.24-3.28,6.24,3.28a1,1,0,0,0,1-.08,1,1,0,0,0,.4-1L88.32,53.8l5.05-4.93a1,1,0,0,0-.56-1.7Zm-6.27,5.56a1,1,0,0,0-.28.88l.94,5.48L82.28,56.5a1,1,0,0,0-.93,0l-4.91,2.59.94-5.48a1,1,0,0,0-.29-.88l-4-3.87,5.49-.8a1,1,0,0,0,.75-.55l2.46-5,2.45,5a1,1,0,0,0,.76.55l5.49.8Z"/><path class="cls-5" d="M93.22,32H17.79a7.86,7.86,0,0,0-7.85,7.85V61.51a7.86,7.86,0,0,0,7.85,7.85H93.22a7.86,7.86,0,0,0,7.85-7.85V39.86A7.86,7.86,0,0,0,93.22,32Zm5.85,29.5a5.86,5.86,0,0,1-5.85,5.85H29.1a1.09,1.09,0,0,0,0-.26V65a1,1,0,0,0-2,0V67.1a1.09,1.09,0,0,0,.05.26H17.79a5.86,5.86,0,0,1-5.85-5.85V39.86A5.86,5.86,0,0,1,17.79,34H27.2a1.09,1.09,0,0,0-.05.26V36.4a1,1,0,0,0,2,0V34.27a1.09,1.09,0,0,0,0-.26H93.22a5.86,5.86,0,0,1,5.85,5.85Z"/><path class="cls-6" d="M28.15,56.3a1,1,0,0,0-1,1v2.13a1,1,0,0,0,2,0V57.3A1,1,0,0,0,28.15,56.3Z"/><path class="cls-7" d="M28.15,48.62a1,1,0,0,0-1,1v2.13a1,1,0,0,0,2,0V49.62A1,1,0,0,0,28.15,48.62Z"/><path class="cls-8" d="M28.15,40.94a1,1,0,0,0-1,1v2.13a1,1,0,0,0,2,0V41.94A1,1,0,0,0,28.15,40.94Z"/><path class="cls-5" d="M19.82,42.93a1,1,0,0,0-1,1V57.44a1,1,0,0,0,2,0V43.93A1,1,0,0,0,19.82,42.93Z"/><path class="cls-9" d="M110,31.67a3.15,3.15,0,0,1-.44,0l1.27-5.74a7.86,7.86,0,0,0-6-9.37L31.26.19a7.85,7.85,0,0,0-9.37,6L17.7,25.05H7.63a1,1,0,0,0-1,1A5.64,5.64,0,0,1,1,31.68a1,1,0,0,0-1,1v3.25a1,1,0,0,0,.62.92,1.87,1.87,0,0,1,1.17,1.73A1.87,1.87,0,0,1,.62,40.31a1,1,0,0,0-.62.93V44a1,1,0,0,0,.62.92,1.87,1.87,0,0,1,1.17,1.73A1.87,1.87,0,0,1,.62,48.38a1,1,0,0,0-.62.93v2.76A1,1,0,0,0,.62,53a1.87,1.87,0,0,1,1.17,1.73A1.87,1.87,0,0,1,.62,56.45a1,1,0,0,0-.62.92v2.76a1,1,0,0,0,.62.93,1.87,1.87,0,0,1,1.17,1.73A1.87,1.87,0,0,1,.62,64.52a1,1,0,0,0-.62.92v3.25a1,1,0,0,0,1,1,5.64,5.64,0,0,1,5.63,5.63,1,1,0,0,0,1,1h95.84a1,1,0,0,0,1-1A5.64,5.64,0,0,1,110,69.7a1,1,0,0,0,1-1V65.44a1,1,0,0,0-.62-.92,1.83,1.83,0,0,1-.47-.28l-.06-.06a1.58,1.58,0,0,1-.28-.3,1,1,0,0,1-.08-.14,1.59,1.59,0,0,1-.16-.32,1.21,1.21,0,0,0,0-.14,2,2,0,0,1-.07-.49,1.93,1.93,0,0,1,.07-.49.56.56,0,0,0,0-.12,1.84,1.84,0,0,1,.19-.4l0,0a1.56,1.56,0,0,1,.33-.35l.1-.08a1.46,1.46,0,0,1,.42-.25h0l.06,0a1,1,0,0,0,.56-.89V57.37a1,1,0,0,0-.62-.92,1.83,1.83,0,0,1-.47-.28l-.06-.06a1.58,1.58,0,0,1-.28-.3,1,1,0,0,1-.08-.14,1.59,1.59,0,0,1-.16-.32s0-.09,0-.14a1.57,1.57,0,0,1-.08-.49,2.08,2.08,0,0,1,.07-.5.58.58,0,0,0,0-.14,1.82,1.82,0,0,1,.16-.31,1,1,0,0,1,.08-.14,2.7,2.7,0,0,1,.28-.31.12.12,0,0,0,0,0,2.08,2.08,0,0,1,.48-.28,1,1,0,0,0,.62-.92V49.31a1,1,0,0,0-.62-.93h0a1.72,1.72,0,0,1-.47-.28,2.24,2.24,0,0,1-.33-.36l-.08-.13a1.77,1.77,0,0,1-.15-.31.88.88,0,0,0,0-.15,2,2,0,0,1-.07-.49,1.57,1.57,0,0,1,.08-.49s0-.1,0-.14a1.59,1.59,0,0,1,.16-.32,1,1,0,0,1,.08-.14,2.7,2.7,0,0,1,.28-.31.12.12,0,0,0,0,0,2.08,2.08,0,0,1,.48-.28A1,1,0,0,0,111,44V41.24a1,1,0,0,0-.62-.93,1.83,1.83,0,0,1-.47-.28l-.06-.06a1.58,1.58,0,0,1-.28-.3.64.64,0,0,1-.08-.14,1.82,1.82,0,0,1-.16-.31.78.78,0,0,0,0-.14,2.08,2.08,0,0,1-.07-.5,1.62,1.62,0,0,1,.08-.49c0-.05,0-.1,0-.14a1.91,1.91,0,0,1,.16-.32.57.57,0,0,1,.08-.13,2.14,2.14,0,0,1,.28-.32.12.12,0,0,0,0,0,2.08,2.08,0,0,1,.48-.28,1,1,0,0,0,.62-.92V32.67A1,1,0,0,0,110,31.67ZM23.84,6.59a5.86,5.86,0,0,1,7-4.45l73.64,16.34a5.87,5.87,0,0,1,4.44,7l-1.25,5.63a5.64,5.64,0,0,1-3.18-5.05,1,1,0,0,0-1-1H19.75ZM109,35.32l-.17.13-.18.12h0a3.91,3.91,0,0,0-.57.58l0,.06a3.91,3.91,0,0,0-.4.65l0,.1a3.75,3.75,0,0,0-.25.71s0,.07,0,.11a4.16,4.16,0,0,0-.09.79,4.07,4.07,0,0,0,.09.79s0,.07,0,.11a3.52,3.52,0,0,0,.25.71.54.54,0,0,0,0,.11,4.37,4.37,0,0,0,.4.65l0,.06a4,4,0,0,0,.58.58h0l.14.1.21.15v1.55l-.17.13-.18.12h0a3.84,3.84,0,0,0-.57.57.18.18,0,0,1,0,.07,3.91,3.91,0,0,0-.4.65l0,.1a3.75,3.75,0,0,0-.25.71s0,.07,0,.11a4.16,4.16,0,0,0-.09.79,3.33,3.33,0,0,0,.09.78.52.52,0,0,0,0,.11,3.4,3.4,0,0,0,.24.7,1,1,0,0,0,0,.1,4.71,4.71,0,0,0,.4.65l0,0a4,4,0,0,0,1,.87v1.55l-.21.15-.14.1h0a3.18,3.18,0,0,0-.58.58l0,.05a4.46,4.46,0,0,0-.4.66.31.31,0,0,0,0,.1,3.75,3.75,0,0,0-.25.71s0,.07,0,.11a4.07,4.07,0,0,0-.09.79,4.16,4.16,0,0,0,.09.79s0,.07,0,.11a3.75,3.75,0,0,0,.25.71l0,.1a3.91,3.91,0,0,0,.4.65l0,.06a3.18,3.18,0,0,0,.58.58h0l.14.1L109,58v1.55a4,4,0,0,0-.56.44l0,0,0,0a3.44,3.44,0,0,0-.46.55l0,.07a3.29,3.29,0,0,0-.3.55.54.54,0,0,0,0,.11,3.3,3.3,0,0,0-.2.63l0,.16a3.84,3.84,0,0,0-.07.69,4.16,4.16,0,0,0,.09.79s0,.07,0,.11a3.75,3.75,0,0,0,.25.71l0,.1a3.91,3.91,0,0,0,.4.65l0,.06a3.54,3.54,0,0,0,.58.58h0l.14.1.21.15v1.73a7.65,7.65,0,0,0-6.47,6.54H29.15V72.65a1,1,0,0,0-2,0v1.67H8.56A7.63,7.63,0,0,0,2,67.76V66.05a3.84,3.84,0,0,0,1.79-3.26A3.84,3.84,0,0,0,2,59.53V58a3.84,3.84,0,0,0,1.79-3.26A3.84,3.84,0,0,0,2,51.46V49.91a3.84,3.84,0,0,0,1.79-3.26A3.84,3.84,0,0,0,2,43.39V41.84a3.84,3.84,0,0,0,1.79-3.26A3.84,3.84,0,0,0,2,35.32V33.61a7.63,7.63,0,0,0,6.56-6.56H27.15v1.67a1,1,0,0,0,2,0V27.05h73.39a7.65,7.65,0,0,0,5.54,6.33l.08,0h.14c.23.06.47.13.71.17Z"/></g></g></svg>