<svg xmlns="http://www.w3.org/2000/svg" xmlns:xlink="http://www.w3.org/1999/xlink" viewBox="0 0 84.14 113.76"><defs><style>.cls-1{fill:url(#Безымянный_градиент_2);}.cls-2{fill:url(#Безымянный_градиент_2-3);}</style><linearGradient id="Безымянный_градиент_2" x1="-8.4" y1="56.88" x2="88.85" y2="56.88" gradientUnits="userSpaceOnUse"><stop offset="0" stop-color="#fccb36"/><stop offset="1" stop-color="#f49f24"/></linearGradient><linearGradient id="Безымянный_градиент_2-3" x1="-8.4" y1="56.88" x2="88.85" y2="56.88" xlink:href="#Безымянный_градиент_2"/></defs><g id="Слой_2" data-name="Слой 2"><g id="Layer_1" data-name="Layer 1"><path class="cls-1" d="M6.2,108.56H77.94a1,1,0,0,0,1-1V6.2a1,1,0,0,0-1-1H6.2a1,1,0,0,0-1,1V107.56A1,1,0,0,0,6.2,108.56ZM7.2,7.2H76.94v99.36H7.2Z"/><path class="cls-1" d="M83.14,0H1A1,1,0,0,0,0,1V112.76a1,1,0,0,0,1,1H83.14a1,1,0,0,0,1-1V1A1,1,0,0,0,83.14,0Zm-1,111.76H2V2H82.14Z"/><path class="cls-2" d="M64.64,50.37h0l-16.27.12L43.45,35a1.45,1.45,0,0,0-2.76,0L35.78,50.49l-16.27-.12h0A1.44,1.44,0,0,0,18.66,53l13.23,9.46L26.75,77.89A1.44,1.44,0,0,0,29,79.51l13.09-9.66,13.09,9.66a1.44,1.44,0,0,0,2.23-1.62L52.25,62.45,65.48,53a1.44,1.44,0,0,0-.84-2.62ZM50.75,61.06a1.43,1.43,0,0,0-.53,1.64l4.72,14.16L42.93,68a1.44,1.44,0,0,0-1.72,0l-12,8.87L33.92,62.7a1.45,1.45,0,0,0-.53-1.64L21.24,52.38l14.93.11a1.48,1.48,0,0,0,1.39-1l4.51-14.23,4.5,14.23a1.44,1.44,0,0,0,1.38,1h0l14.93-.11Z"/></g></g></svg>