<svg xmlns="http://www.w3.org/2000/svg" xmlns:xlink="http://www.w3.org/1999/xlink" viewBox="0 0 121.16 118.36"><defs><style>.cls-1{fill:url(#Безымянный_градиент_2);}.cls-2{fill:url(#Безымянный_градиент_2-2);}.cls-3{fill:url(#Безымянный_градиент_2-3);}.cls-4{fill:url(#Безымянный_градиент_2-4);}</style><linearGradient id="Безымянный_градиент_2" x1="-8.24" y1="35.4" x2="124.45" y2="35.4" gradientUnits="userSpaceOnUse"><stop offset="0" stop-color="#fccb36"/><stop offset="1" stop-color="#f49f24"/></linearGradient><linearGradient id="Безымянный_градиент_2-2" x1="-8.24" y1="27.05" x2="124.45" y2="27.05" xlink:href="#Безымянный_градиент_2"/><linearGradient id="Безымянный_градиент_2-3" x1="-8.24" y1="10.4" x2="124.45" y2="10.4" xlink:href="#Безымянный_градиент_2"/><linearGradient id="Безымянный_градиент_2-4" x1="-8.24" y1="59.18" x2="124.45" y2="59.18" xlink:href="#Безымянный_градиент_2"/></defs><g id="Слой_2" data-name="Слой 2"><g id="Layer_1" data-name="Layer 1"><path class="cls-1" d="M83.69,20.21a1,1,0,0,0,0,2,27.41,27.41,0,0,1,27.38,27.38,1,1,0,0,0,2,0A29.41,29.41,0,0,0,83.69,20.21Z"/><path class="cls-2" d="M17.53,15.9A29.45,29.45,0,0,0,8.09,37.47a1,1,0,0,0,2,0,27.48,27.48,0,0,1,8.8-20.11,1,1,0,1,0-1.36-1.46Z"/><path class="cls-3" d="M37.47,8.09a29.19,29.19,0,0,0-12.32,2.7,1,1,0,0,0-.49,1.33,1,1,0,0,0,.91.58,1,1,0,0,0,.42-.09,27.14,27.14,0,0,1,11.48-2.52,1,1,0,0,0,0-2Z"/><path class="cls-4" d="M121.16,49.59a37.46,37.46,0,0,0-53.27-34A37.46,37.46,0,1,0,33.51,74.73l-.67,5.17a1,1,0,0,0,1,1.13h2.64c-.36,1.93-1.75,3.84-4.17,5.71C29.43,89,28,91.34,28,93.81s1.46,4.85,4.33,7.07,4.27,4.45,4.27,6.71-1.44,4.52-4.27,6.71a1,1,0,0,0,.62,1.79,1,1,0,0,0,.61-.21c3.34-2.59,5-5.38,5-8.29s-1.7-5.7-5-8.29C31.17,97.47,30,95.63,30,93.81s1.2-3.66,3.56-5.49c3-2.29,4.62-4.74,5-7.29h3a1,1,0,0,0,1-1.13l-.68-5.21a36.93,36.93,0,0,0,11.54-3.28,37.54,37.54,0,0,0,26,15.4L78.69,92a1,1,0,0,0,.24.79,1,1,0,0,0,.75.34h2.49c.37,2.34,2,4.58,5,6.67,2.33,1.66,3.52,3.32,3.52,4.93s-1.19,3.28-3.52,4.93c-3.37,2.39-5.08,5-5.08,7.68a1,1,0,0,0,2,0c0-2,1.43-4.06,4.24-6s4.36-4.25,4.36-6.56-1.47-4.51-4.36-6.56c-2.35-1.66-3.72-3.35-4.11-5h3.11a1,1,0,0,0,.75-.34,1,1,0,0,0,.24-.79l-.68-5.18A37.63,37.63,0,0,0,121.16,49.59ZM40.58,72.8a1,1,0,0,0-.7.37,1,1,0,0,0-.21.76l.67,5.1H35L35.63,74a1,1,0,0,0-.21-.76,1,1,0,0,0-.7-.37A35.47,35.47,0,1,1,66.08,16.52,37.52,37.52,0,0,0,46.21,49.59a37.11,37.11,0,0,0,6,20.15A35.2,35.2,0,0,1,40.58,72.8ZM86.44,85a1,1,0,0,0-.7.36,1,1,0,0,0-.21.76l.66,5.08H80.82L81.49,86a1,1,0,0,0-.21-.75,1,1,0,0,0-.7-.37,35.47,35.47,0,1,1,5.86,0Z"/></g></g></svg>