<svg xmlns="http://www.w3.org/2000/svg" xmlns:xlink="http://www.w3.org/1999/xlink" viewBox="0 0 118.24 114.77"><defs><style>.cls-1{fill:url(#Безымянный_градиент_2);}.cls-2{fill:url(#Безымянный_градиент_2-2);}.cls-3{fill:url(#Безымянный_градиент_2-3);}.cls-4{fill:url(#Безымянный_градиент_2-4);}.cls-5{fill:url(#Безымянный_градиент_2-5);}.cls-6{fill:url(#Безымянный_градиент_2-6);}.cls-7{fill:url(#Безымянный_градиент_2-7);}.cls-8{fill:url(#Безымянный_градиент_2-8);}.cls-9{fill:url(#Безымянный_градиент_2-9);}</style><linearGradient id="Безымянный_градиент_2" x1="-4.9" y1="57.38" x2="121.53" y2="57.38" gradientUnits="userSpaceOnUse"><stop offset="0" stop-color="#fccb36"/><stop offset="1" stop-color="#f49f24"/></linearGradient><linearGradient id="Безымянный_градиент_2-2" x1="-4.9" y1="90.78" x2="121.53" y2="90.78" xlink:href="#Безымянный_градиент_2"/><linearGradient id="Безымянный_градиент_2-3" x1="-4.9" y1="86.97" x2="121.53" y2="86.97" xlink:href="#Безымянный_градиент_2"/><linearGradient id="Безымянный_градиент_2-4" x1="-4.9" y1="101.67" x2="121.53" y2="101.67" xlink:href="#Безымянный_градиент_2"/><linearGradient id="Безымянный_градиент_2-5" x1="-4.9" y1="101.68" x2="121.53" y2="101.68" xlink:href="#Безымянный_градиент_2"/><linearGradient id="Безымянный_градиент_2-6" x1="-4.9" y1="104.47" x2="121.53" y2="104.47" xlink:href="#Безымянный_градиент_2"/><linearGradient id="Безымянный_градиент_2-7" x1="-4.9" y1="80.48" x2="121.53" y2="80.48" xlink:href="#Безымянный_градиент_2"/><linearGradient id="Безымянный_градиент_2-8" x1="-4.9" y1="107.3" x2="121.53" y2="107.3" xlink:href="#Безымянный_градиент_2"/><linearGradient id="Безымянный_градиент_2-9" x1="-4.9" y1="88.21" x2="121.53" y2="88.21" xlink:href="#Безымянный_градиент_2"/></defs><g id="Слой_2" data-name="Слой 2"><g id="Layer_1" data-name="Layer 1"><path class="cls-1" d="M115.93,47.92A29.14,29.14,0,0,0,88.5,25.85V12.7a1,1,0,0,0-2,0V25.85a29.23,29.23,0,0,0-13.26,3.61V1a1,1,0,0,0-1-1H6.81a1,1,0,0,0-1,1V112.77H1a1,1,0,0,0,0,2H106.44a1,1,0,0,0,1-.9l3.87-38.81a1,1,0,0,0,.09-.73v0l2-20.43h1.78a3,3,0,0,0,.72-6Zm-2.07-.1H88.5v-20A27.17,27.17,0,0,1,113.86,47.82Zm-27.36,0H61.15A27.19,27.19,0,0,1,72.56,32.2,1,1,0,0,0,73,32,27.32,27.32,0,0,1,86.5,27.84ZM63.59,53.88H86.5V78.57A19.28,19.28,0,0,1,82.84,77a37.65,37.65,0,0,0-17.41-4.7Zm-3.79-2a1,1,0,1,1,0-2.06H86.5v2.06ZM7.81,2H71.24V30.68A29.2,29.2,0,0,0,59.07,47.92a3,3,0,0,0,.73,6h1.78l5.88,58.89H7.81Zm97.73,110.77H69.47L65.63,74.32a35.55,35.55,0,0,1,16.24,4.44,21.56,21.56,0,0,0,4.63,1.89V96a1,1,0,0,0,2,0V81.11a21.72,21.72,0,0,0,14.37-2.35A34.62,34.62,0,0,1,109.21,76Zm3.88-38.91A37,37,0,0,0,101.89,77,19.73,19.73,0,0,1,88.5,79.08V53.88h22.92Zm5.79-22H88.5V49.82h26.71a1,1,0,0,1,0,2.06Z"/><path class="cls-2" d="M102.27,90.06a1,1,0,0,0,.7,1.71,1,1,0,0,0,.71-.29,1,1,0,0,0,.29-.71,1,1,0,0,0-.29-.71A1,1,0,0,0,102.27,90.06Z"/><path class="cls-3" d="M92.65,86l-.19.06-.17.09-.15.13a1,1,0,0,0-.22.32,1,1,0,0,0-.07.38.68.68,0,0,0,0,.2,1.33,1.33,0,0,0,0,.19,1,1,0,0,0,.1.17.57.57,0,0,0,.12.15l.15.13.17.09.19.06.2,0a1,1,0,0,0,.38-.08,1,1,0,0,0,.32-.22.93.93,0,0,0,.13-.15.91.91,0,0,0,.09-.17,1.39,1.39,0,0,0,.06-.19,1.36,1.36,0,0,0,0-.2,1,1,0,0,0-.3-.7A1,1,0,0,0,92.65,86Z"/><path class="cls-4" d="M77.59,101a1,1,0,0,0-.16-.12.56.56,0,0,0-.17-.09.6.6,0,0,0-.19-.06,1.05,1.05,0,0,0-.9.27,1.15,1.15,0,0,0-.21.33,1,1,0,0,0-.08.38,1.05,1.05,0,0,0,.29.71.93.93,0,0,0,.33.21,1,1,0,0,0,.38.08l.19,0a.6.6,0,0,0,.19-.06.56.56,0,0,0,.17-.09l.16-.12a1.15,1.15,0,0,0,.21-.33.94.94,0,0,0,0-.76A1,1,0,0,0,77.59,101Z"/><path class="cls-5" d="M95.26,101a1,1,0,0,0,.7,1.71,1.05,1.05,0,0,0,.71-.29,1,1,0,0,0,0-1.42A1,1,0,0,0,95.26,101Z"/><path class="cls-6" d="M101.15,103.76a.61.61,0,0,0-.16-.12,1,1,0,0,0-.17-.1l-.18-.05a.9.9,0,0,0-.4,0l-.18.05-.18.1a.79.79,0,0,0-.15.12.93.93,0,0,0-.21.33.94.94,0,0,0,0,.76,1.15,1.15,0,0,0,.21.33l.15.12a.76.76,0,0,0,.18.09.64.64,0,0,0,.18.06l.2,0,.2,0a.64.64,0,0,0,.18-.06.56.56,0,0,0,.17-.09l.16-.12a1.15,1.15,0,0,0,.21-.33.94.94,0,0,0,0-.76A.93.93,0,0,0,101.15,103.76Z"/><path class="cls-7" d="M72.25,79.65a.56.56,0,0,0-.17-.09.6.6,0,0,0-.19-.06,1,1,0,0,0-.58.06,1,1,0,0,0-.32.21,1,1,0,0,0-.29.71.68.68,0,0,0,0,.2,1.21,1.21,0,0,0,0,.18l.09.18.13.15a1,1,0,0,0,.32.21,1.09,1.09,0,0,0,.39.08l.19,0a.6.6,0,0,0,.19-.06.56.56,0,0,0,.17-.09l.15-.12.13-.15.09-.18.06-.18a1.36,1.36,0,0,0,0-.2,1,1,0,0,0-.3-.71Z"/><path class="cls-8" d="M85.58,106.91l-.09-.17-.13-.15a1,1,0,0,0-1.41,0A1,1,0,0,0,84,108a.87.87,0,0,0,.32.22,1,1,0,0,0,.38.08,1.09,1.09,0,0,0,.39-.08.87.87,0,0,0,.32-.22.64.64,0,0,0,.13-.15l.09-.17a1.05,1.05,0,0,0,0-.19.62.62,0,0,0,0-.19.68.68,0,0,0,0-.2A1.33,1.33,0,0,0,85.58,106.91Z"/><path class="cls-9" d="M79.16,87.82l-.09-.17a.93.93,0,0,0-.13-.15.64.64,0,0,0-.15-.13l-.17-.09-.19,0a1.05,1.05,0,0,0-.58,0,1,1,0,0,0-.32.22.57.57,0,0,0-.12.15,1,1,0,0,0-.1.17,1.33,1.33,0,0,0,0,.19.65.65,0,0,0,0,.2,1,1,0,0,0,.07.38,1,1,0,0,0,.22.32.87.87,0,0,0,.32.22,1.09,1.09,0,0,0,.39.08l.19,0,.19-.06.17-.09a.64.64,0,0,0,.15-.13.87.87,0,0,0,.22-.32,1,1,0,0,0,.08-.38,1.23,1.23,0,0,0,0-.2Z"/><path class="cls-1" d="M54,52.83l-9.41-1.19-4.36-8.43a1,1,0,0,0-.9-.54,1,1,0,0,0-.89.57l-4,8.58L25,53.36a1,1,0,0,0-.52,1.71l6.91,6.5L30,71a1,1,0,0,0,1,1.15,1,1,0,0,0,.49-.12l8.31-4.57,8.48,4.27a1,1,0,0,0,1-.1,1,1,0,0,0,.38-1L47.9,61.27l6.68-6.74a1,1,0,0,0,.23-1A1,1,0,0,0,54,52.83Zm-7.88,7.41a1,1,0,0,0-.27.89L47.33,69l-7.14-3.59a1,1,0,0,0-.93,0l-7,3.84,1.21-7.9a1,1,0,0,0-.31-.88L27.34,55l7.89-1.29a1,1,0,0,0,.74-.56l3.41-7.23L43,53a1,1,0,0,0,.76.54l7.93,1Z"/></g></g></svg>