<svg xmlns="http://www.w3.org/2000/svg" xmlns:xlink="http://www.w3.org/1999/xlink" viewBox="0 0 362.07 251.22"><defs><style>.cls-1{fill:url(#Безымянный_градиент_2);}.cls-2{fill:url(#Безымянный_градиент_2-2);}.cls-3{fill:url(#Безымянный_градиент_2-3);}.cls-32,.cls-4{fill:url(#Безымянный_градиент_2-4);}.cls-4{clip-path:url(#clip-path);}.cls-5{fill:url(#Безымянный_градиент_2-5);}.cls-6{fill:url(#Безымянный_градиент_2-6);}.cls-7{fill:url(#Безымянный_градиент_2-7);}.cls-8{fill:url(#Безымянный_градиент_2-8);}.cls-9{fill:url(#Безымянный_градиент_2-9);}.cls-10{fill:url(#Безымянный_градиент_2-10);}.cls-11{fill:url(#Безымянный_градиент_2-11);}.cls-12{fill:url(#Безымянный_градиент_2-12);}.cls-13{fill:url(#Безымянный_градиент_2-13);}.cls-14{fill:url(#Безымянный_градиент_2-14);}.cls-15{fill:url(#Безымянный_градиент_2-15);}.cls-16{fill:url(#Безымянный_градиент_2-16);}.cls-17{fill:url(#Безымянный_градиент_2-17);}.cls-18{fill:url(#Безымянный_градиент_2-19);}.cls-19{fill:url(#Безымянный_градиент_2-20);}.cls-20{fill:url(#Безымянный_градиент_2-21);}.cls-21{fill:url(#Безымянный_градиент_2-23);}.cls-22{fill:url(#Безымянный_градиент_2-24);}.cls-23{fill:url(#Безымянный_градиент_2-25);}.cls-24{fill:url(#Безымянный_градиент_2-26);}.cls-25{fill:url(#Безымянный_градиент_2-27);}.cls-26{fill:url(#Безымянный_градиент_2-28);}.cls-27{fill:url(#Безымянный_градиент_2-30);}.cls-28{clip-path:url(#clip-path-2);}.cls-29{fill:url(#Безымянный_градиент_2-32);}.cls-30{clip-path:url(#clip-path-3);}.cls-31{fill:url(#Безымянный_градиент_2-34);}.cls-33{clip-path:url(#clip-path-4);}.cls-34{fill:url(#Безымянный_градиент_2-37);}.cls-35{clip-path:url(#clip-path-5);}.cls-36{fill:url(#Безымянный_градиент_2-39);}.cls-37{clip-path:url(#clip-path-6);}.cls-38{fill:url(#Безымянный_градиент_2-41);}.cls-39{clip-path:url(#clip-path-7);}.cls-40{fill:url(#Безымянный_градиент_2-43);}</style><linearGradient id="Безымянный_градиент_2" x1="-22.26" y1="190.85" x2="393.46" y2="190.85" gradientUnits="userSpaceOnUse"><stop offset="0" stop-color="#fccb36"/><stop offset="1" stop-color="#f49f24"/></linearGradient><linearGradient id="Безымянный_градиент_2-2" x1="-22.26" y1="197.74" x2="393.46" y2="197.74" xlink:href="#Безымянный_градиент_2"/><linearGradient id="Безымянный_градиент_2-3" x1="-22.26" y1="167.36" x2="393.46" y2="167.36" xlink:href="#Безымянный_градиент_2"/><linearGradient id="Безымянный_градиент_2-4" x1="-22.26" y1="165.2" x2="393.46" y2="165.2" xlink:href="#Безымянный_градиент_2"/><clipPath id="clip-path"><path class="cls-3" d="M249.78,182.15c-.34,0-.69,0-1.05-.05l-2.14-.16c-1.75-.12-4.05-.29-6.13-.47a1,1,0,1,1,.18-2c2.06.18,4.36.34,6.1.47l2.15.16c3.64.3,5.32-1,5.63-4.21.1-1,.24-2.31.4-3.83.3-3,.69-6.66.92-9.33.19-2.23-.12-3.8-1-4.78a4.82,4.82,0,0,0-3.51-1.44c-1.91-.15-6.09-.53-10.52-.93s-9.26-.85-11.18-1l-.8,0c-3.21,0-4.82,1.57-5.07,4.93a1,1,0,0,1-1.07.92,1,1,0,0,1-.92-1.07c.35-4.75,3.12-7.1,8-6.74,1.95.14,6.66.57,11.22,1,4.23.39,8.6.79,10.49.93a6.84,6.84,0,0,1,4.88,2.14c1.2,1.42,1.67,3.46,1.43,6.25s-.62,6.39-.93,9.37c-.15,1.51-.29,2.86-.39,3.82C256.13,180.07,253.81,182.15,249.78,182.15Z"/></clipPath><linearGradient id="Безымянный_градиент_2-5" x1="-22.26" y1="169.19" x2="393.46" y2="169.19" xlink:href="#Безымянный_градиент_2"/><linearGradient id="Безымянный_градиент_2-6" x1="-22.26" y1="184.12" x2="393.46" y2="184.12" xlink:href="#Безымянный_градиент_2"/><linearGradient id="Безымянный_градиент_2-7" x1="-22.26" y1="176.46" x2="393.46" y2="176.46" xlink:href="#Безымянный_градиент_2"/><linearGradient id="Безымянный_градиент_2-8" x1="-22.26" y1="74.59" x2="393.46" y2="74.59" xlink:href="#Безымянный_градиент_2"/><linearGradient id="Безымянный_градиент_2-9" x1="-22.26" y1="97.55" x2="393.46" y2="97.55" xlink:href="#Безымянный_градиент_2"/><linearGradient id="Безымянный_градиент_2-10" x1="-22.26" y1="176.38" x2="393.46" y2="176.38" xlink:href="#Безымянный_градиент_2"/><linearGradient id="Безымянный_градиент_2-11" x1="-22.26" y1="176.11" x2="393.46" y2="176.11" xlink:href="#Безымянный_градиент_2"/><linearGradient id="Безымянный_градиент_2-12" x1="-22.26" y1="156.08" x2="393.46" y2="156.08" xlink:href="#Безымянный_градиент_2"/><linearGradient id="Безымянный_градиент_2-13" x1="-22.26" y1="196.13" x2="393.46" y2="196.13" xlink:href="#Безымянный_градиент_2"/><linearGradient id="Безымянный_градиент_2-14" x1="-22.26" y1="176.38" x2="393.46" y2="176.38" xlink:href="#Безымянный_градиент_2"/><linearGradient id="Безымянный_градиент_2-15" x1="-22.26" y1="199.39" x2="393.46" y2="199.39" xlink:href="#Безымянный_градиент_2"/><linearGradient id="Безымянный_градиент_2-16" x1="-22.26" y1="222.39" x2="393.46" y2="222.39" xlink:href="#Безымянный_градиент_2"/><linearGradient id="Безымянный_градиент_2-17" x1="-22.26" y1="245.4" x2="393.46" y2="245.4" xlink:href="#Безымянный_градиент_2"/><linearGradient id="Безымянный_градиент_2-19" x1="-22.26" y1="153.38" x2="393.46" y2="153.38" xlink:href="#Безымянный_градиент_2"/><linearGradient id="Безымянный_градиент_2-20" x1="-22.26" y1="130.37" x2="393.46" y2="130.37" xlink:href="#Безымянный_градиент_2"/><linearGradient id="Безымянный_градиент_2-21" x1="-22.26" y1="107.37" x2="393.46" y2="107.37" xlink:href="#Безымянный_градиент_2"/><linearGradient id="Безымянный_градиент_2-23" x1="-22.26" y1="86.41" x2="393.46" y2="86.41" xlink:href="#Безымянный_градиент_2"/><linearGradient id="Безымянный_градиент_2-24" x1="-22.26" y1="63.95" x2="393.46" y2="63.95" xlink:href="#Безымянный_градиент_2"/><linearGradient id="Безымянный_градиент_2-25" x1="-22.26" y1="41.49" x2="393.46" y2="41.49" xlink:href="#Безымянный_градиент_2"/><linearGradient id="Безымянный_градиент_2-26" x1="-22.26" y1="19.04" x2="393.46" y2="19.04" xlink:href="#Безымянный_градиент_2"/><linearGradient id="Безымянный_градиент_2-27" x1="-22.26" y1="85.85" x2="393.46" y2="85.85" xlink:href="#Безымянный_градиент_2"/><linearGradient id="Безымянный_градиент_2-28" x1="-22.26" y1="81" x2="393.46" y2="81" xlink:href="#Безымянный_градиент_2"/><linearGradient id="Безымянный_градиент_2-30" x1="-22.26" y1="80.97" x2="393.46" y2="80.97" xlink:href="#Безымянный_градиент_2"/><clipPath id="clip-path-2"><path class="cls-1" d="M270.47,202.27a6.43,6.43,0,0,1-2.83-.76c-1.25-.62-4-1.81-6.59-2.95-2.11-.93-4.11-1.81-5.12-2.29-2.94-1.41-3.82-3.48-2.6-6.16.29-.62.65-1.48,1-2.41.76-1.78,1.63-3.8,2.36-5.23h0c1.47-2.91,3.45-3.72,6.47-2.46,2.08.86,9,4,11.56,5.17l.47.22c2.93,1.32,3.77,3.51,2.5,6.5-.91,2.12-2,4.37-2.81,6.18l-.72,1.54a4.32,4.32,0,0,1-2.44,2.44A4,4,0,0,1,270.47,202.27Zm-9.69-20.82c-.64,0-1.4.23-2.26,1.92h0c-.7,1.37-1.55,3.36-2.3,5.12-.41.95-.78,1.82-1.07,2.45-.65,1.43-.59,2.46,1.64,3.53,1,.47,3,1.33,5.07,2.25,2.64,1.16,5.37,2.36,6.67,3a3.41,3.41,0,0,0,2.57.45,2.35,2.35,0,0,0,1.29-1.38l.73-1.56c.84-1.79,1.89-4,2.78-6.11s.43-3-1.48-3.9L274,187c-2.59-1.17-9.46-4.3-11.5-5.14A4.42,4.42,0,0,0,260.78,181.45Zm-3.15,1.47h0Z"/></clipPath><linearGradient id="Безымянный_градиент_2-32" x1="-22.26" y1="191.15" x2="393.46" y2="191.15" xlink:href="#Безымянный_градиент_2"/><clipPath id="clip-path-3"><path class="cls-2" d="M278.24,202.24a2.63,2.63,0,0,1-1.95-1.12c-1.05-1.23-2.19-3.73-1.42-5.44h0c.74-1.68,3.37-2.44,5.64-2.44s3.85.79,4,2.11-1,1.88-1.76,2.24a4.42,4.42,0,0,0-1.52,1,5.37,5.37,0,0,0-1.07,1.93,2.2,2.2,0,0,1-1.52,1.68A1.44,1.44,0,0,1,278.24,202.24Zm.07-2h0Zm-1.62-3.76a3.05,3.05,0,0,0,.34,2.06,4.29,4.29,0,0,0,1.15,1.62c0-.08.08-.22.12-.33a7.38,7.38,0,0,1,1.44-2.56,5.93,5.93,0,0,1,2.19-1.5l.48-.24a5.13,5.13,0,0,0-1.9-.3c-1.92,0-3.55.66-3.82,1.25Z"/></clipPath><linearGradient id="Безымянный_градиент_2-34" x1="-22.26" y1="197.9" x2="393.46" y2="197.9" xlink:href="#Безымянный_градиент_2"/><clipPath id="clip-path-4"><path class="cls-4" d="M223,172l-2-.14s.66-10.05.84-12.48a1,1,0,0,1,2,.15C223.62,161.92,223,172,223,172Z"/></clipPath><linearGradient id="Безымянный_градиент_2-37" x1="-22.26" y1="167.52" x2="393.46" y2="167.52" xlink:href="#Безымянный_градиент_2"/><clipPath id="clip-path-5"><path class="cls-5" d="M263.87,176.83a5.17,5.17,0,0,1-2.17-.58c-2.22-1.05-5.5-3.91-5.5-6.73h0a5.67,5.67,0,0,1,2-3.86c2.3-2.31,6.11-4.11,8.66-4.11a2.88,2.88,0,0,1,2.67,1.24c.93,1.49-.19,2.79-1.1,3.83a7.68,7.68,0,0,0-1.78,2.78,9.49,9.49,0,0,0-.35,3.91,3.05,3.05,0,0,1-.93,3A2.26,2.26,0,0,1,263.87,176.83Zm-5.67-7.31c0,1.51,2,3.66,3.95,4.72,1.23.67,1.83.61,1.92.55.25-.21.29-.3.2-1.31a11.67,11.67,0,0,1,.42-4.64,9.61,9.61,0,0,1,2.19-3.54c.74-.84,1-1.25.92-1.45s-.74-.3-1-.3c-2,0-5.33,1.61-7.24,3.52a4,4,0,0,0-1.38,2.45Z"/></clipPath><linearGradient id="Безымянный_градиент_2-39" x1="-22.26" y1="169.73" x2="393.46" y2="169.73" xlink:href="#Безымянный_градиент_2"/><clipPath id="clip-path-6"><path class="cls-6" d="M210.4,198.27c-2.44,0-4-1.34-4.85-4.13l-.56-1.77c-.85-2.68-2.14-6.73-2.74-8.94-1.1-4,.26-6.54,4.15-7.8,2.83-.92,10.72-3.31,15-4.59l1.9-.58a10,10,0,0,1,2.84-.49c3.17,0,4.34,2.49,5,4.66l1.62,5.28,1.5,4.9c1.23,4.14,0,6.55-4.16,7.83-3.4,1.06-13.73,4.25-16.87,5.17A9.93,9.93,0,0,1,210.4,198.27ZM226.11,172a7.87,7.87,0,0,0-2.26.41h0L222,173c-4.24,1.28-12.13,3.67-14.93,4.58s-3.66,2.4-2.85,5.38c.6,2.17,1.88,6.19,2.73,8.86l.56,1.77c.84,2.68,2.1,3.26,5.18,2.35s13.44-4.1,16.84-5.16c3.07-.95,3.76-2.25,2.83-5.34-.23-.78-.82-2.71-1.49-4.89l-1.63-5.29C228.37,172.51,227.4,172,226.11,172Zm-2.55-.55h0Z"/></clipPath><linearGradient id="Безымянный_градиент_2-41" x1="-22.26" y1="184.42" x2="393.46" y2="184.42" xlink:href="#Безымянный_градиент_2"/><clipPath id="clip-path-7"><path class="cls-7" d="M238.73,183.58l-.39,0c-2.19-.11-5.87-1.38-6.84-3.72h0c-.84-2.06.55-4.62,1.45-6,1.51-2.25,3.94-4.52,6-4.52a2.29,2.29,0,0,1,1.36.42c1.33,1,.82,2.44.42,3.63a6.7,6.7,0,0,0-.52,2.81,8.38,8.38,0,0,0,1,3.26,2.81,2.81,0,0,1,.25,2.9C241.13,182.93,240.42,183.58,238.73,183.58Zm-5.38-4.5c.39.94,2.12,1.95,4,2.34a3.54,3.54,0,0,0,2.32,0c.09-.18.11-.22-.29-1a10.33,10.33,0,0,1-1.22-4,8.49,8.49,0,0,1,.62-3.66,4.45,4.45,0,0,0,.33-1.34.36.36,0,0,0-.22-.06c-.91,0-2.85,1.46-4.31,3.63-1.11,1.66-1.6,3.26-1.26,4.1Z"/></clipPath><linearGradient id="Безымянный_градиент_2-43" x1="-22.26" y1="176.94" x2="393.46" y2="176.94" xlink:href="#Безымянный_градиент_2"/></defs><g id="Слой_2" data-name="Слой 2"><g id="Layer_1" data-name="Layer 1"><path class="cls-8" d="M322.82,122.7a.83.83,0,0,1-.22,0,1,1,0,0,1-.76-1.19l4.49-20.25A19.54,19.54,0,0,0,311.5,77.92L90.82,29a19.53,19.53,0,0,0-23.3,14.83l-13.09,59a1,1,0,1,1-2-.43l13.08-59A21.54,21.54,0,0,1,91.25,27L311.93,76a21.54,21.54,0,0,1,16.36,25.69l-4.5,20.25A1,1,0,0,1,322.82,122.7Z"/><path class="cls-9" d="M324.47,195.09a1,1,0,0,1-.46-1.88,21,21,0,0,1,12.9-2.1l1.76-8a9.58,9.58,0,0,1,3.73-16.79l1.51-6.81a9.58,9.58,0,0,1,3.73-16.8l1.51-6.81a9.58,9.58,0,0,1,3.73-16.8l1.51-6.81a9.58,9.58,0,0,1,3.73-16.8l1.76-8A20.94,20.94,0,0,1,345.07,64L66.56,2.19A20.9,20.9,0,0,1,42.88,17.26l-1.76,7.93A9.58,9.58,0,0,1,37.39,42l-1.51,6.81a9.58,9.58,0,0,1-3.73,16.8L30.64,72.4a9.58,9.58,0,0,1-3.73,16.8L25.4,96a9.59,9.59,0,0,1,3.53,6.42,1,1,0,0,1-2,.23,7.6,7.6,0,0,0-3.22-5.41,1,1,0,0,1-.41-1l1.79-8.08a1,1,0,0,1,.81-.76A7.59,7.59,0,0,0,29,73.64a1,1,0,0,1-.41-1l1.79-8.07a1,1,0,0,1,.81-.77A7.59,7.59,0,0,0,34.2,50a1,1,0,0,1-.41-1l1.79-8.07a1,1,0,0,1,.81-.77,7.59,7.59,0,0,0,3-13.73,1,1,0,0,1-.41-1l2.11-9.5a1,1,0,0,1,1.19-.76A18.89,18.89,0,0,0,64.84.78,1,1,0,0,1,66,0L346.45,62.26a1,1,0,0,1,.76,1.2A18.94,18.94,0,0,0,361.3,85.9a1,1,0,0,1,.75,1.19l-2.12,9.52a1,1,0,0,1-.81.77,7.58,7.58,0,0,0-3,13.72,1,1,0,0,1,.41,1l-1.8,8.08a1,1,0,0,1-.81.77,7.58,7.58,0,0,0-3,13.72,1,1,0,0,1,.41,1l-1.8,8.08a1,1,0,0,1-.81.76,7.59,7.59,0,0,0-3,13.73,1,1,0,0,1,.41,1l-1.8,8.07a1,1,0,0,1-.81.77,7.58,7.58,0,0,0-3,13.73,1,1,0,0,1,.41,1l-2.12,9.52a1,1,0,0,1-1.18.76A18.92,18.92,0,0,0,324.93,195,1,1,0,0,1,324.47,195.09Z"/><path class="cls-10" d="M308.11,251.22H20.87a1,1,0,0,1-1-1A18.9,18.9,0,0,0,1,231.35a1,1,0,0,1-1-1v-9.74a1,1,0,0,1,.62-.92,7.57,7.57,0,0,0,4.74-7,7.56,7.56,0,0,0-4.74-7A1,1,0,0,1,0,204.7v-8.27a1,1,0,0,1,.62-.93,7.56,7.56,0,0,0,4.74-7,7.58,7.58,0,0,0-4.74-7,1,1,0,0,1-.62-.92v-8.27a1,1,0,0,1,.62-.93,7.56,7.56,0,0,0,4.74-7,7.56,7.56,0,0,0-4.74-7,1,1,0,0,1-.62-.92v-8.28a1,1,0,0,1,.62-.92,7.56,7.56,0,0,0,4.74-7,7.56,7.56,0,0,0-4.74-7,1,1,0,0,1-.62-.93v-9.74a1,1,0,0,1,1-1,18.89,18.89,0,0,0,18.87-18.87,1,1,0,0,1,1-1H308.11a1,1,0,0,1,1,1,18.94,18.94,0,0,0,18.62,18.86,1,1,0,0,1,1,1v9.75a1,1,0,0,1-.62.93,7.58,7.58,0,0,0,0,14.06,1,1,0,0,1,.62.92v8.28a1,1,0,0,1-.62.92,7.58,7.58,0,0,0,0,14.06,1,1,0,0,1,.62.93v8.27a1,1,0,0,1-.62.92,7.58,7.58,0,0,0,0,14.06,1,1,0,0,1,.62.93v8.27a1,1,0,0,1-.62.93,7.58,7.58,0,0,0,0,14.06,1,1,0,0,1,.62.92v9.76a1,1,0,0,1-1,1,18.93,18.93,0,0,0-18.62,18.85A1,1,0,0,1,308.11,251.22Zm-286.26-2H307.14a21,21,0,0,1,19.57-19.82v-8.14a9.59,9.59,0,0,1,0-17.21v-7a9.59,9.59,0,0,1,0-17.21v-7a9.58,9.58,0,0,1,0-17.2v-7a9.58,9.58,0,0,1,0-17.2v-8.15a21,21,0,0,1-19.57-19.82H21.85A20.91,20.91,0,0,1,2,123.39v8.12a9.53,9.53,0,0,1,5.36,8.6A9.54,9.54,0,0,1,2,148.71v7a9.54,9.54,0,0,1,5.36,8.6A9.53,9.53,0,0,1,2,172.89v7a9.55,9.55,0,0,1,5.36,8.6A9.56,9.56,0,0,1,2,197.08v7a9.56,9.56,0,0,1,5.36,8.61A9.55,9.55,0,0,1,2,221.26v8.12A20.9,20.9,0,0,1,21.85,249.22Z"/><path class="cls-11" d="M183.29,177.11H114.6a1,1,0,0,1,0-2h68.69a1,1,0,0,1,0,2Z"/><path class="cls-12" d="M183.29,157.08H114.6a1,1,0,0,1,0-2h68.69a1,1,0,0,1,0,2Z"/><path class="cls-13" d="M142.93,197.13H114.6a1,1,0,0,1,0-2h28.33a1,1,0,0,1,0,2Z"/><path class="cls-14" d="M291.06,230.36H37.65a7.86,7.86,0,0,1-7.85-7.85V130.26a7.86,7.86,0,0,1,7.85-7.85H291.06a7.87,7.87,0,0,1,7.86,7.85v92.25A7.87,7.87,0,0,1,291.06,230.36Zm-253.41-106a5.85,5.85,0,0,0-5.85,5.85v92.25a5.86,5.86,0,0,0,5.85,5.85H291.06a5.87,5.87,0,0,0,5.86-5.85V130.26a5.86,5.86,0,0,0-5.86-5.85Z"/><path class="cls-15" d="M82.37,203.58a1,1,0,0,1-1-1V196.2a1,1,0,0,1,2,0v6.38A1,1,0,0,1,82.37,203.58Z"/><path class="cls-16" d="M82.37,226.58a1,1,0,0,1-1-1V219.2a1,1,0,0,1,2,0v6.38A1,1,0,0,1,82.37,226.58Z"/><path class="cls-17" d="M82.37,249.59a1,1,0,0,1-1-1V242.2a1,1,0,0,1,2,0v6.39A1,1,0,0,1,82.37,249.59Z"/><path class="cls-14" d="M82.37,180.58a1,1,0,0,1-1-1v-6.39a1,1,0,0,1,2,0v6.39A1,1,0,0,1,82.37,180.58Z"/><path class="cls-18" d="M82.37,157.57a1,1,0,0,1-1-1v-6.38a1,1,0,0,1,2,0v6.38A1,1,0,0,1,82.37,157.57Z"/><path class="cls-19" d="M82.37,134.57a1,1,0,0,1-1-1v-6.39a1,1,0,0,1,2,0v6.39A1,1,0,0,1,82.37,134.57Z"/><path class="cls-20" d="M82.37,111.56a1,1,0,0,1-1-1v-6.38a1,1,0,0,1,2,0v6.38A1,1,0,0,1,82.37,111.56Z"/><path class="cls-14" d="M57.4,197.64a1,1,0,0,1-1-1V156.12a1,1,0,0,1,2,0v40.52A1,1,0,0,1,57.4,197.64Z"/><path class="cls-21" d="M109.16,90.53a.76.76,0,0,1-.21,0,1,1,0,0,1-.76-1.19l1.38-6.23a1,1,0,0,1,2,.43l-1.38,6.23A1,1,0,0,1,109.16,90.53Z"/><path class="cls-22" d="M114.15,68.07a.83.83,0,0,1-.22,0,1,1,0,0,1-.76-1.19l1.38-6.23a1,1,0,0,1,2,.43l-1.39,6.24A1,1,0,0,1,114.15,68.07Z"/><path class="cls-23" d="M119.13,45.61l-.21,0a1,1,0,0,1-.76-1.2l1.38-6.23a1,1,0,0,1,1.95.43l-1.38,6.24A1,1,0,0,1,119.13,45.61Z"/><path class="cls-24" d="M124.12,23.15a.82.82,0,0,1-.22,0,1,1,0,0,1-.76-1.19l1.38-6.24a1,1,0,0,1,2,.44l-1.39,6.23A1,1,0,0,1,124.12,23.15Z"/><path class="cls-25" d="M274.91,100.56l-.22,0a1,1,0,0,1-.76-1.19L280,71.93a1,1,0,0,1,2,.43l-6.08,27.41A1,1,0,0,1,274.91,100.56Z"/><path class="cls-26" d="M81.1,101.78l-.22,0a1,1,0,0,1-.76-1.2L88.9,61a1,1,0,1,1,1.95.43L82.07,101A1,1,0,0,1,81.1,101.78Z"/><path class="cls-10" d="M308.11,251.22H20.87a1,1,0,0,1-1-1A18.9,18.9,0,0,0,1,231.35a1,1,0,0,1-1-1v-9.74a1,1,0,0,1,.62-.92,7.57,7.57,0,0,0,4.74-7,7.56,7.56,0,0,0-4.74-7A1,1,0,0,1,0,204.7v-8.27a1,1,0,0,1,.62-.93,7.56,7.56,0,0,0,4.74-7,7.58,7.58,0,0,0-4.74-7,1,1,0,0,1-.62-.92v-8.27a1,1,0,0,1,.62-.93,7.56,7.56,0,0,0,4.74-7,7.56,7.56,0,0,0-4.74-7,1,1,0,0,1-.62-.92v-8.28a1,1,0,0,1,.62-.92,7.56,7.56,0,0,0,4.74-7,7.56,7.56,0,0,0-4.74-7,1,1,0,0,1-.62-.93v-9.74a1,1,0,0,1,1-1,18.89,18.89,0,0,0,18.87-18.87,1,1,0,0,1,1-1H308.11a1,1,0,0,1,1,1,18.94,18.94,0,0,0,18.62,18.86,1,1,0,0,1,1,1v9.75a1,1,0,0,1-.62.93,7.59,7.59,0,0,0,0,14.06,1,1,0,0,1,.62.92v8.28a1,1,0,0,1-.62.92,7.58,7.58,0,0,0-2,12.86,7.71,7.71,0,0,0,2,1.2,1,1,0,0,1,.62.93v8.27a1,1,0,0,1-.62.92,8.15,8.15,0,0,0-1.91,1.13,7.59,7.59,0,0,0,1.91,12.93,1,1,0,0,1,.62.93v8.27a1,1,0,0,1-.62.93,7.59,7.59,0,0,0,0,14.06,1,1,0,0,1,.62.92v9.76a1,1,0,0,1-1,1,18.93,18.93,0,0,0-18.62,18.85A1,1,0,0,1,308.11,251.22Zm-286.26-2H307.14a21,21,0,0,1,19.57-19.82v-8.14a10.22,10.22,0,0,1-1.79-1.14,9.57,9.57,0,0,1-.62-14.37,9.83,9.83,0,0,1,2.41-1.7v-7a10.28,10.28,0,0,1-1.79-1.15,9.57,9.57,0,0,1,0-14.91,10.28,10.28,0,0,1,1.79-1.15v-7a9.58,9.58,0,0,1-5.36-8.6,9.54,9.54,0,0,1,3.57-7.46,9.67,9.67,0,0,1,1.79-1.14v-7a10.22,10.22,0,0,1-1.79-1.14,9.58,9.58,0,0,1,0-14.92,9.67,9.67,0,0,1,1.79-1.14v-8.15a21,21,0,0,1-19.57-19.82H21.85A20.91,20.91,0,0,1,2,123.39v8.12a9.53,9.53,0,0,1,5.36,8.6A9.54,9.54,0,0,1,2,148.71v7a9.54,9.54,0,0,1,5.36,8.6A9.53,9.53,0,0,1,2,172.89v7a9.55,9.55,0,0,1,5.36,8.6A9.56,9.56,0,0,1,2,197.08v7a9.56,9.56,0,0,1,5.36,8.61A9.55,9.55,0,0,1,2,221.26v8.12A20.9,20.9,0,0,1,21.85,249.22Z"/><path class="cls-27" d="M224.06,103.54a.86.86,0,0,1-.22,0l-91-20.19a1,1,0,0,1-.76-1.2l5.09-23a1,1,0,0,1,1.2-.76L255.92,84.49a1,1,0,0,1,.76,1.2l-3.79,17.07a1,1,0,0,1-1.95-.43l3.57-16.1L138.94,60.58l-4.66,21,90,20a1,1,0,0,1-.22,2Z"/><path class="cls-1" d="M270.47,202.27a6.43,6.43,0,0,1-2.83-.76c-1.25-.62-4-1.81-6.59-2.95-2.11-.93-4.11-1.81-5.12-2.29-2.94-1.41-3.82-3.48-2.6-6.16.29-.62.65-1.48,1-2.41.76-1.78,1.63-3.8,2.36-5.23h0c1.47-2.91,3.45-3.72,6.47-2.46,2.08.86,9,4,11.56,5.17l.47.22c2.93,1.32,3.77,3.51,2.5,6.5-.91,2.12-2,4.37-2.81,6.18l-.72,1.54a4.32,4.32,0,0,1-2.44,2.44A4,4,0,0,1,270.47,202.27Zm-9.69-20.82c-.64,0-1.4.23-2.26,1.92h0c-.7,1.37-1.55,3.36-2.3,5.12-.41.95-.78,1.82-1.07,2.45-.65,1.43-.59,2.46,1.64,3.53,1,.47,3,1.33,5.07,2.25,2.64,1.16,5.37,2.36,6.67,3a3.41,3.41,0,0,0,2.57.45,2.35,2.35,0,0,0,1.29-1.38l.73-1.56c.84-1.79,1.89-4,2.78-6.11s.43-3-1.48-3.9L274,187c-2.59-1.17-9.46-4.3-11.5-5.14A4.42,4.42,0,0,0,260.78,181.45Zm-3.15,1.47h0Z"/><g class="cls-28"><path class="cls-29" d="M274.1,211.9a.93.93,0,0,1-.4-.09L245,199.4a1,1,0,0,1-.52-1.32L256.21,171a1,1,0,0,1,1.31-.52l28.69,12.42a1,1,0,0,1,.52,1.31L275,211.29a1,1,0,0,1-.55.54A1.21,1.21,0,0,1,274.1,211.9ZM246.73,198l26.85,11.62,10.92-25.24-26.85-11.61Z"/></g><path class="cls-2" d="M278.24,202.24a2.63,2.63,0,0,1-1.95-1.12c-1.05-1.23-2.19-3.73-1.42-5.44h0c.74-1.68,3.37-2.44,5.64-2.44s3.85.79,4,2.11-1,1.88-1.76,2.24a4.42,4.42,0,0,0-1.52,1,5.37,5.37,0,0,0-1.07,1.93,2.2,2.2,0,0,1-1.52,1.68A1.44,1.44,0,0,1,278.24,202.24Zm.07-2h0Zm-1.62-3.76a3.05,3.05,0,0,0,.34,2.06,4.29,4.29,0,0,0,1.15,1.62c0-.08.08-.22.12-.33a7.38,7.38,0,0,1,1.44-2.56,5.93,5.93,0,0,1,2.19-1.5l.48-.24a5.13,5.13,0,0,0-1.9-.3c-1.92,0-3.55.66-3.82,1.25Z"/><g class="cls-30"><path class="cls-31" d="M282.33,205.72a1,1,0,0,1-.39-.08l-10-4.32a1.05,1.05,0,0,1-.53-.55,1,1,0,0,1,0-.77l4-9.32a1,1,0,0,1,1.31-.52l10,4.32a1,1,0,0,1,.53.55,1,1,0,0,1,0,.76l-4,9.33a1,1,0,0,1-.55.53A.94.94,0,0,1,282.33,205.72Zm-8.66-5.84,8.14,3.52,3.24-7.48-8.14-3.53Z"/></g><path class="cls-3" d="M249.78,182.15c-.34,0-.69,0-1.05-.05l-2.14-.16c-1.75-.12-4.05-.29-6.13-.47a1,1,0,1,1,.18-2c2.06.18,4.36.34,6.1.47l2.15.16c3.64.3,5.32-1,5.63-4.21.1-1,.24-2.31.4-3.83.3-3,.69-6.66.92-9.33.19-2.23-.12-3.8-1-4.78a4.82,4.82,0,0,0-3.51-1.44c-1.91-.15-6.09-.53-10.52-.93s-9.26-.85-11.18-1l-.8,0c-3.21,0-4.82,1.57-5.07,4.93a1,1,0,0,1-1.07.92,1,1,0,0,1-.92-1.07c.35-4.75,3.12-7.1,8-6.74,1.95.14,6.66.57,11.22,1,4.23.39,8.6.79,10.49.93a6.84,6.84,0,0,1,4.88,2.14c1.2,1.42,1.67,3.46,1.43,6.25s-.62,6.39-.93,9.37c-.15,1.51-.29,2.86-.39,3.82C256.13,180.07,253.81,182.15,249.78,182.15Z"/><path class="cls-32" d="M223,172l-2-.14s.66-10.05.84-12.48a1,1,0,0,1,2,.15C223.62,161.92,223,172,223,172Z"/><g class="cls-33"><path class="cls-34" d="M256.86,185.83h-.09l-38.15-3.6a1,1,0,0,1-.9-1.09l2.93-31a1,1,0,0,1,.36-.68,1,1,0,0,1,.73-.22l38.14,3.61a1,1,0,0,1,.91,1.08l-2.94,31a1,1,0,0,1-.35.68A1,1,0,0,1,256.86,185.83Zm-37.05-5.51L256,183.74l2.74-29-36.15-3.42Z"/></g><path class="cls-5" d="M263.87,176.83a5.17,5.17,0,0,1-2.17-.58c-2.22-1.05-5.5-3.91-5.5-6.73h0a5.67,5.67,0,0,1,2-3.86c2.3-2.31,6.11-4.11,8.66-4.11a2.88,2.88,0,0,1,2.67,1.24c.93,1.49-.19,2.79-1.1,3.83a7.68,7.68,0,0,0-1.78,2.78,9.49,9.49,0,0,0-.35,3.91,3.05,3.05,0,0,1-.93,3A2.26,2.26,0,0,1,263.87,176.83Zm-5.67-7.31c0,1.51,2,3.66,3.95,4.72,1.23.67,1.83.61,1.92.55.25-.21.29-.3.2-1.31a11.67,11.67,0,0,1,.42-4.64,9.61,9.61,0,0,1,2.19-3.54c.74-.84,1-1.25.92-1.45s-.74-.3-1-.3c-2,0-5.33,1.61-7.24,3.52a4,4,0,0,0-1.38,2.45Z"/><g class="cls-35"><path class="cls-36" d="M269.53,179.08h-.1l-13.68-1.29a1,1,0,0,1-.9-1.09l1.46-15.4a1,1,0,0,1,1.09-.9l13.68,1.29a1,1,0,0,1,.67.36,1,1,0,0,1,.23.73l-1.46,15.4A1,1,0,0,1,269.53,179.08Zm-12.59-3.2L268.63,177l1.26-13.41-11.69-1.11Z"/></g><path class="cls-6" d="M210.4,198.27c-2.44,0-4-1.34-4.85-4.13l-.56-1.77c-.85-2.68-2.14-6.73-2.74-8.94-1.1-4,.26-6.54,4.15-7.8,2.83-.92,10.72-3.31,15-4.59l1.9-.58a10,10,0,0,1,2.84-.49c3.17,0,4.34,2.49,5,4.66l1.62,5.28,1.5,4.9c1.23,4.14,0,6.55-4.16,7.83-3.4,1.06-13.73,4.25-16.87,5.17A9.93,9.93,0,0,1,210.4,198.27ZM226.11,172a7.87,7.87,0,0,0-2.26.41h0L222,173c-4.24,1.28-12.13,3.67-14.93,4.58s-3.66,2.4-2.85,5.38c.6,2.17,1.88,6.19,2.73,8.86l.56,1.77c.84,2.68,2.1,3.26,5.18,2.35s13.44-4.1,16.84-5.16c3.07-.95,3.76-2.25,2.83-5.34-.23-.78-.82-2.71-1.49-4.89l-1.63-5.29C228.37,172.51,227.4,172,226.11,172Zm-2.55-.55h0Z"/><g class="cls-37"><path class="cls-38" d="M205.4,208.45a1,1,0,0,1-1-.68l-11.19-33.84a1,1,0,0,1,.06-.76,1,1,0,0,1,.58-.5l37-12.23a1,1,0,0,1,1.27.63l11.19,33.83a1,1,0,0,1-.64,1.27l-37,12.23A.89.89,0,0,1,205.4,208.45Zm-9.92-34.2L206,206.19l35.09-11.61-10.56-31.93Z"/></g><path class="cls-7" d="M238.73,183.58l-.39,0c-2.19-.11-5.87-1.38-6.84-3.72h0c-.84-2.06.55-4.62,1.45-6,1.51-2.25,3.94-4.52,6-4.52a2.29,2.29,0,0,1,1.36.42c1.33,1,.82,2.44.42,3.63a6.7,6.7,0,0,0-.52,2.81,8.38,8.38,0,0,0,1,3.26,2.81,2.81,0,0,1,.25,2.9C241.13,182.93,240.42,183.58,238.73,183.58Zm-5.38-4.5c.39.94,2.12,1.95,4,2.34a3.54,3.54,0,0,0,2.32,0c.09-.18.11-.22-.29-1a10.33,10.33,0,0,1-1.22-4,8.49,8.49,0,0,1,.62-3.66,4.45,4.45,0,0,0,.33-1.34.36.36,0,0,0-.22-.06c-.91,0-2.85,1.46-4.31,3.63-1.11,1.66-1.6,3.26-1.26,4.1Z"/><g class="cls-39"><path class="cls-40" d="M232.22,187.54a1,1,0,0,1-.45-.11,1.06,1.06,0,0,1-.5-.58L226.35,172a1,1,0,0,1,.63-1.26l13-4.31a1,1,0,0,1,.76.05,1,1,0,0,1,.5.58l4.93,14.89a1,1,0,0,1-.64,1.27l-13,4.31A1.19,1.19,0,0,1,232.22,187.54Zm-3.66-15.26,4.3,13L244,181.59l-4.29-13Z"/></g></g></g></svg>