<svg xmlns="http://www.w3.org/2000/svg" xmlns:xlink="http://www.w3.org/1999/xlink" viewBox="0 0 512.51 512"><defs><style>.cls-1{fill:url(#Безымянный_градиент_2);}</style><linearGradient id="Безымянный_градиент_2" y1="256" x2="512.51" y2="256" gradientUnits="userSpaceOnUse"><stop offset="0" stop-color="#fccb36"/><stop offset="1" stop-color="#f49f24"/></linearGradient></defs><g id="Слой_2" data-name="Слой 2"><g id="Layer_1" data-name="Layer 1"><path class="cls-1" d="M512,256c0,141.23-114.77,256-256,256S0,397.23,0,256,114.77,0,256,0a259.59,259.59,0,0,1,46.51,4.27,21.25,21.25,0,0,1-7.68,41.81A213.45,213.45,0,0,0,256,42.67C138.45,42.67,42.67,138.45,42.67,256S138.45,469.33,256,469.33,469.33,373.55,469.33,256a237,237,0,0,0-3.41-38.83,21.25,21.25,0,0,1,41.81-7.68A259.59,259.59,0,0,1,512,256ZM274.35,129.28a21.33,21.33,0,0,0,6-42.24A185.82,185.82,0,0,0,256,85.33C161.92,85.33,85.33,161.92,85.33,256S161.92,426.67,256,426.67,426.67,350.08,426.67,256A185.82,185.82,0,0,0,425,231.68a21.33,21.33,0,0,0-42.24,6A130.92,130.92,0,0,1,384,256,128,128,0,1,1,256,128,130.92,130.92,0,0,1,274.35,129.28Zm-45,64.85a21.28,21.28,0,0,0-30.08-1.7A85.36,85.36,0,1,0,319.79,313,21.3,21.3,0,0,0,288,284.59a42.61,42.61,0,0,1-74.45-28.38,42.24,42.24,0,0,1,14.29-31.78,21.28,21.28,0,0,0,1.71-30.08Zm33.07,25.6a21.25,21.25,0,0,0,0,30.08A21,21,0,0,0,277.55,256a21.81,21.81,0,0,0,15.14-6.19L393.17,149.33h55.26a22,22,0,0,0,15.14-6.18l42.67-42.67A21.35,21.35,0,0,0,491.31,64H448.64V21.33A21.05,21.05,0,0,0,435.41,1.71,21,21,0,0,0,412.16,6.4L369.49,49.07a21.1,21.1,0,0,0-6.18,15.14v55.26L262.83,220Z"/></g></g></svg>