<svg xmlns="http://www.w3.org/2000/svg" xmlns:xlink="http://www.w3.org/1999/xlink" viewBox="0 0 24 24"><defs><style>.cls-1{fill:url(#Безымянный_градиент_2);}</style><linearGradient id="Безымянный_градиент_2" y1="12" x2="24" y2="12" gradientUnits="userSpaceOnUse"><stop offset="0" stop-color="#fccb36"/><stop offset="1" stop-color="#f49f24"/></linearGradient></defs><g id="Слой_2" data-name="Слой 2"><g id="Layer_1" data-name="Layer 1"><path class="cls-1" d="M1,7A1,1,0,0,1,0,6V5A5,5,0,0,1,5,0H6A1,1,0,0,1,6,2H5A3,3,0,0,0,2,5V6A1,1,0,0,1,1,7Zm1,7V10a1,1,0,0,0-2,0v4a1,1,0,0,0,2,0Zm5,9a1,1,0,0,0-1-1H5a3,3,0,0,1-3-3V18a1,1,0,0,0-2,0v1a5,5,0,0,0,5,5H6A1,1,0,0,0,7,23Zm17-4V18a1,1,0,0,0-2,0v1a3,3,0,0,1-3,3H18a1,1,0,0,0,0,2h1A5,5,0,0,0,24,19Zm0-5V10a1,1,0,0,0-2,0v4a1,1,0,0,0,2,0Zm0-8V5a5,5,0,0,0-5-5H18a1,1,0,0,0,0,2h1a3,3,0,0,1,3,3V6a1,1,0,0,0,2,0ZM15,1a1,1,0,0,0-1-1H10a1,1,0,0,0,0,2h4A1,1,0,0,0,15,1Zm0,22a1,1,0,0,0-1-1H10a1,1,0,0,0,0,2h4A1,1,0,0,0,15,23Z"/></g></g></svg>