<svg xmlns="http://www.w3.org/2000/svg" xmlns:xlink="http://www.w3.org/1999/xlink" viewBox="0 0 469.33 512"><defs><style>.cls-1{fill:url(#Безымянный_градиент_2);}</style><linearGradient id="Безымянный_градиент_2" y1="256" x2="469.33" y2="256" gradientUnits="userSpaceOnUse"><stop offset="0" stop-color="#fccb36"/><stop offset="1" stop-color="#f49f24"/></linearGradient></defs><g id="Слой_2" data-name="Слой 2"><g id="Layer_1" data-name="Layer 1"><path class="cls-1" d="M469.33,234.67A85.42,85.42,0,0,0,384,149.33V106.67A106.79,106.79,0,0,0,277.33,0H192A106.79,106.79,0,0,0,85.33,106.67v42.66A85.42,85.42,0,0,0,0,234.67V341.33c0,.37,0,.75,0,1.11a64.07,64.07,0,0,0,64,62.89H213.33v64H128A21.34,21.34,0,0,0,128,512H341.33a21.34,21.34,0,1,0,0-42.67H256v-64H405.33a64.06,64.06,0,0,0,64-62.89c0-.36,0-.72,0-1.11Zm-42.66,0V281a63.65,63.65,0,0,0-21.34-3.67H384V192A42.72,42.72,0,0,1,426.67,234.67ZM128,106.67a64.07,64.07,0,0,1,64-64h85.33a64.07,64.07,0,0,1,64,64V277.33H128ZM85.33,192v85.33H64A63.55,63.55,0,0,0,42.67,281V234.67A42.71,42.71,0,0,1,85.33,192Zm320,170.67H64A21.34,21.34,0,0,1,64,320H405.33a21.34,21.34,0,1,1,0,42.67Z"/></g></g></svg>