<svg xmlns="http://www.w3.org/2000/svg" xmlns:xlink="http://www.w3.org/1999/xlink" viewBox="0 0 512 512"><defs><style>.cls-1{fill:url(#Безымянный_градиент_2);}.cls-2{fill:url(#Безымянный_градиент_2-2);}</style><linearGradient id="Безымянный_градиент_2" y1="256" x2="512" y2="256" gradientUnits="userSpaceOnUse"><stop offset="0" stop-color="#fccb36"/><stop offset="1" stop-color="#f49f24"/></linearGradient><linearGradient id="Безымянный_градиент_2-2" x1="158.94" y1="256" x2="353.06" y2="256" xlink:href="#Безымянный_градиент_2"/></defs><g id="Слой_2" data-name="Слой 2"><g id="Layer_1" data-name="Layer 1"><path class="cls-1" d="M256,0C114.84,0,0,114.84,0,256S114.84,512,256,512,512,397.16,512,256,397.16,0,256,0Zm0,469.33c-117.63,0-213.33-95.7-213.33-213.33S138.37,42.67,256,42.67,469.33,138.37,469.33,256,373.63,469.33,256,469.33Z"/><path class="cls-2" d="M202.08,281.15v25.91h55.61a17.39,17.39,0,0,1,17.39,17.39h0a17.39,17.39,0,0,1-17.39,17.38H202.08v23.08a21.57,21.57,0,0,1-21.57,21.57h0a21.57,21.57,0,0,1-21.57-21.57V144.08a18.56,18.56,0,0,1,18.56-18.56h77q46.46,0,72.5,19.91t26.05,58.07q0,37.83-26.05,57.74t-72.5,19.91Zm93.24-108.34Q281.06,162,254.18,162h-52.1V246.3h52.1q26.54,0,41-11.11t14.44-31.36Q309.59,183.6,295.32,172.81Z"/></g></g></svg>