<svg xmlns="http://www.w3.org/2000/svg" xmlns:xlink="http://www.w3.org/1999/xlink" viewBox="0 0 512 512"><defs><style>.cls-1{fill:url(#Безымянный_градиент_2);}</style><linearGradient id="Безымянный_градиент_2" y1="256" x2="512" y2="256" gradientUnits="userSpaceOnUse"><stop offset="0" stop-color="#fccb36"/><stop offset="1" stop-color="#f49f24"/></linearGradient></defs><g id="Слой_2" data-name="Слой 2"><g id="Layer_1" data-name="Layer 1"><path class="cls-1" d="M405.33,42.67H384V21.33a21.34,21.34,0,0,0-42.67,0V42.67H170.67V21.33a21.34,21.34,0,0,0-42.67,0V42.67H106.67A106.79,106.79,0,0,0,0,149.33v256A106.79,106.79,0,0,0,106.67,512H405.33A106.79,106.79,0,0,0,512,405.33v-256A106.79,106.79,0,0,0,405.33,42.67ZM106.67,85.33H405.33a64.08,64.08,0,0,1,64,64v21.34H42.67V149.33A64.08,64.08,0,0,1,106.67,85.33Zm298.66,384H106.67a64.07,64.07,0,0,1-64-64v-192H469.33v192A64.07,64.07,0,0,1,405.33,469.33ZM380.42,280.58a21.33,21.33,0,0,1-.54,30.16L278.76,408.19a64,64,0,0,1-90.22-.28l-48-44.62a21.33,21.33,0,0,1,29-31.26l48.59,45.16c9.24,9.18,22.68,8.58,30.7.56L350.25,280a21.37,21.37,0,0,1,30.17.55Z"/></g></g></svg>