<svg width="20" height="24" viewBox="0 0 433.1 512" xmlns="http://www.w3.org/2000/svg" xmlns:xlink="http://www.w3.org/1999/xlink">
    <defs>
        <linearGradient id="yellow-gradient" x1="60.6" y1="66.25" x2="372.5" y2="378.15"
                        gradientUnits="userSpaceOnUse">
            <stop offset="0" stop-color="#fccb36"/>
            <stop offset="1"
                  stop-color="#f49f24"/>
        </linearGradient>
    </defs>
    <path fill="url(#yellow-gradient)"
          d="M369.67,63.43A216.55,216.55,0,0,0,0,216.55c0,117,110.64,214.34,170.08,266.62,8.26,7.27,15.39,13.54,21.07,18.85a37.31,37.31,0,0,0,50.8,0c5.68-5.31,12.81-11.58,21.07-18.85C322.46,430.89,433.1,333.56,433.1,216.55A215.13,215.13,0,0,0,369.67,63.43ZM216.55,303.8A95.43,95.43,0,1,1,312,208.37,95.54,95.54,0,0,1,216.55,303.8Z"/>
</svg>