<svg xmlns="http://www.w3.org/2000/svg" xmlns:xlink="http://www.w3.org/1999/xlink" viewBox="0 0 109.66 121.96"><defs><style>.cls-1{fill:url(#Безымянный_градиент_2);}.cls-2{fill:url(#Безымянный_градиент_2-2);}.cls-3{fill:url(#Безымянный_градиент_2-3);}.cls-4{fill:url(#Безымянный_градиент_2-4);}.cls-5{fill:url(#Безымянный_градиент_2-5);}.cls-6{fill:url(#Безымянный_градиент_2-6);}.cls-7{fill:url(#Безымянный_градиент_2-7);}.cls-8{fill:url(#Безымянный_градиент_2-8);}.cls-9{fill:url(#Безымянный_градиент_2-9);}.cls-10{fill:url(#Безымянный_градиент_2-10);}.cls-11{fill:url(#Безымянный_градиент_2-11);}.cls-12{fill:url(#Безымянный_градиент_2-12);}.cls-13{fill:url(#Безымянный_градиент_2-13);}.cls-14{fill:url(#Безымянный_градиент_2-14);}.cls-15{fill:url(#Безымянный_градиент_2-15);}.cls-16{fill:url(#Безымянный_градиент_2-16);}.cls-17{fill:url(#Безымянный_градиент_2-17);}.cls-18{fill:url(#Безымянный_градиент_2-18);}.cls-19{fill:url(#Безымянный_градиент_2-19);}.cls-20{fill:url(#Безымянный_градиент_2-20);}.cls-21{fill:url(#Безымянный_градиент_2-21);}.cls-22{fill:url(#Безымянный_градиент_2-22);}</style><linearGradient id="Безымянный_градиент_2" x1="-7.47" y1="12.08" x2="116.35" y2="12.08" gradientUnits="userSpaceOnUse"><stop offset="0" stop-color="#fccb36"/><stop offset="1" stop-color="#f49f24"/></linearGradient><linearGradient id="Безымянный_градиент_2-2" x1="-7.47" y1="20.11" x2="116.35" y2="20.11" xlink:href="#Безымянный_градиент_2"/><linearGradient id="Безымянный_градиент_2-3" x1="-7.47" y1="4.96" x2="116.35" y2="4.96" xlink:href="#Безымянный_градиент_2"/><linearGradient id="Безымянный_градиент_2-4" x1="-7.47" y1="93.66" x2="116.35" y2="93.66" xlink:href="#Безымянный_градиент_2"/><linearGradient id="Безымянный_градиент_2-5" x1="-7.47" y1="102.3" x2="116.35" y2="102.3" xlink:href="#Безымянный_градиент_2"/><linearGradient id="Безымянный_градиент_2-6" x1="-7.47" y1="118.29" x2="116.35" y2="118.29" xlink:href="#Безымянный_градиент_2"/><linearGradient id="Безымянный_градиент_2-7" x1="-7.47" y1="83.92" x2="116.35" y2="83.92" xlink:href="#Безымянный_градиент_2"/><linearGradient id="Безымянный_градиент_2-8" x1="-7.47" y1="92.12" x2="116.35" y2="92.12" xlink:href="#Безымянный_градиент_2"/><linearGradient id="Безымянный_градиент_2-9" x1="-7.47" y1="99.5" x2="116.35" y2="99.5" xlink:href="#Безымянный_градиент_2"/><linearGradient id="Безымянный_градиент_2-10" x1="-7.47" y1="56.53" x2="116.35" y2="56.53" xlink:href="#Безымянный_градиент_2"/><linearGradient id="Безымянный_градиент_2-11" x1="-7.47" y1="60.85" x2="116.35" y2="60.85" xlink:href="#Безымянный_градиент_2"/><linearGradient id="Безымянный_градиент_2-12" x1="-7.47" y1="65.02" x2="116.35" y2="65.02" xlink:href="#Безымянный_градиент_2"/><linearGradient id="Безымянный_градиент_2-13" x1="-7.47" y1="80.52" x2="116.35" y2="80.52" xlink:href="#Безымянный_градиент_2"/><linearGradient id="Безымянный_градиент_2-14" x1="-7.47" y1="87.14" x2="116.35" y2="87.14" xlink:href="#Безымянный_градиент_2"/><linearGradient id="Безымянный_градиент_2-15" x1="-7.47" y1="68.8" x2="116.35" y2="68.8" xlink:href="#Безымянный_градиент_2"/><linearGradient id="Безымянный_градиент_2-16" x1="-7.47" y1="61.94" x2="116.35" y2="61.94" xlink:href="#Безымянный_градиент_2"/><linearGradient id="Безымянный_градиент_2-17" x1="-7.47" y1="56.33" x2="116.35" y2="56.33" xlink:href="#Безымянный_градиент_2"/><linearGradient id="Безымянный_градиент_2-18" x1="-7.47" y1="20.74" x2="116.35" y2="20.74" xlink:href="#Безымянный_градиент_2"/><linearGradient id="Безымянный_градиент_2-19" x1="-7.47" y1="25.07" x2="116.35" y2="25.07" xlink:href="#Безымянный_градиент_2"/><linearGradient id="Безымянный_градиент_2-20" x1="-7.47" y1="29.23" x2="116.35" y2="29.23" xlink:href="#Безымянный_градиент_2"/><linearGradient id="Безымянный_градиент_2-21" x1="-7.47" y1="44.73" x2="116.35" y2="44.73" xlink:href="#Безымянный_градиент_2"/><linearGradient id="Безымянный_градиент_2-22" x1="-7.47" y1="51.36" x2="116.35" y2="51.36" xlink:href="#Безымянный_градиент_2"/></defs><g id="Слой_2" data-name="Слой 2"><g id="Режим_изоляции" data-name="Режим изоляции"><path class="cls-1" d="M54.08,8.2l-6.49,6.33a1,1,0,0,0,.7,1.72A1,1,0,0,0,49,16l6.49-6.33a1,1,0,1,0-1.4-1.43Z"/><path class="cls-2" d="M42.65,21.72a1,1,0,0,0,.69-.28l1.26-1.22a1,1,0,1,0-1.4-1.43L42,20a1,1,0,0,0,0,1.41A1,1,0,0,0,42.65,21.72Z"/><path class="cls-3" d="M47.41,9.93a1,1,0,0,0,.69-.29l8.13-7.92A1,1,0,0,0,54.84.28L46.71,8.21a1,1,0,0,0,0,1.42A1,1,0,0,0,47.41,9.93Z"/><path class="cls-4" d="M72.63,91.93a1,1,0,0,0-1.24.7L71,94.15a1,1,0,0,0,.7,1.23,1.26,1.26,0,0,0,.27,0,1,1,0,0,0,1-.74l.42-1.52A1,1,0,0,0,72.63,91.93Z"/><path class="cls-5" d="M71.14,97.28a1,1,0,0,0-1.23.7l-2.24,8.11a1,1,0,0,0,.69,1.23,1.24,1.24,0,0,0,.27,0,1,1,0,0,0,1-.73l2.25-8.11A1,1,0,0,0,71.14,97.28Z"/><path class="cls-6" d="M58.76,114.66,36.28,120a1,1,0,0,0,.23,2l.23,0,22.48-5.33a1,1,0,0,0-.46-1.94Z"/><path class="cls-7" d="M18.87,82.29a1.69,1.69,0,0,0-.9,3.26,1.41,1.41,0,0,0,.45.07,1.69,1.69,0,0,0,.84-.23,1.66,1.66,0,0,0,.79-1,1.7,1.7,0,0,0-1.18-2.08Zm-.53,1.93a.32.32,0,0,1-.19-.15.31.31,0,0,1,0-.23.4.4,0,0,1,.15-.19.33.33,0,0,1,.42.12.31.31,0,0,1-.35.45Z"/><path class="cls-8" d="M48.17,90.48A1.7,1.7,0,0,0,46.24,93a1.72,1.72,0,0,0,1,.8,1.74,1.74,0,0,0,.45.06,1.7,1.7,0,0,0,1.63-1.24h0A1.7,1.7,0,0,0,48.17,90.48Zm-.53,1.93a.3.3,0,0,1-.22-.37l.59.16A.29.29,0,0,1,47.64,92.41ZM47.42,92a.31.31,0,0,1,.3-.22h.08A.25.25,0,0,1,48,92a.27.27,0,0,1,0,.23Z"/><path class="cls-9" d="M22.43,97.86A1.69,1.69,0,0,0,20.35,99a1.7,1.7,0,0,0,1.18,2.09,1.74,1.74,0,0,0,.45.06A1.7,1.7,0,0,0,23.61,100h0A1.7,1.7,0,0,0,22.43,97.86Zm-.16,1.72a.3.3,0,0,1-.37.21.31.31,0,0,1-.22-.38l.59.17Zm-.59-.17a.31.31,0,0,1,.3-.22h.08a.3.3,0,0,1,.19.14.29.29,0,0,1,0,.24Z"/><path class="cls-10" d="M25.42,54.89a1.75,1.75,0,0,0-1.29.16,1.73,1.73,0,0,0-.8,1,1.7,1.7,0,0,0,.16,1.29,1.73,1.73,0,0,0,1,.8,1.88,1.88,0,0,0,.46.06A1.64,1.64,0,0,0,25.8,58a1.67,1.67,0,0,0,.8-1A1.71,1.71,0,0,0,25.42,54.89Zm-.3,1.9a.33.33,0,0,1-.24,0,.3.3,0,0,1-.21-.37.29.29,0,0,1,.15-.19.29.29,0,0,1,.41.12.31.31,0,0,1,0,.23A.28.28,0,0,1,25.12,56.79Z"/><path class="cls-11" d="M41.05,59.22a1.7,1.7,0,0,0-.9,3.27,1.74,1.74,0,0,0,.45.06,1.7,1.7,0,0,0,1.63-1.24h0A1.7,1.7,0,0,0,41.05,59.22Zm-.16,1.72a.29.29,0,0,1-.37.21.31.31,0,0,1-.22-.38l.59.17Zm-.59-.17a.31.31,0,0,1,.3-.22h.08a.3.3,0,0,1,.21.38Z"/><path class="cls-12" d="M56.09,63.39a1.69,1.69,0,1,0-.9,3.26,1.74,1.74,0,0,0,.45.06,1.7,1.7,0,0,0,1.63-1.24h0A1.69,1.69,0,0,0,56.09,63.39Zm-.53,1.92a.3.3,0,0,1-.22-.37l.59.16A.29.29,0,0,1,55.56,65.31Zm-.22-.37a.31.31,0,0,1,.3-.23h.08a.31.31,0,0,1,.21.38Z"/><path class="cls-13" d="M26.78,82.15a1.76,1.76,0,0,0,.46.06A1.68,1.68,0,0,0,28.86,81a1.69,1.69,0,1,0-3.1.38A1.64,1.64,0,0,0,26.78,82.15Zm.53-1.93a.32.32,0,0,1,.19.15.3.3,0,0,1-.35.44.29.29,0,0,1-.21-.37.3.3,0,0,1,.14-.19A.31.31,0,0,1,27.31,80.22Z"/><path class="cls-14" d="M9.79,85.51a1.71,1.71,0,0,0-1.29.16,1.69,1.69,0,0,0-.79,1A1.66,1.66,0,0,0,7.86,88a1.73,1.73,0,0,0,1,.8,1.88,1.88,0,0,0,.46.06,1.75,1.75,0,0,0,.83-.22,1.7,1.7,0,0,0-.38-3.11Zm-.3,1.9a.31.31,0,0,1-.23,0,.3.3,0,0,1-.19-.14.33.33,0,0,1,0-.24.33.33,0,0,1,.15-.18.31.31,0,0,1,.23,0A.28.28,0,0,1,9.6,87a.31.31,0,0,1,0,.23A.3.3,0,0,1,9.49,87.41Z"/><path class="cls-15" d="M16.66,68a1.69,1.69,0,0,0-2.95,1.67,1.67,1.67,0,0,0,1,.8,1.82,1.82,0,0,0,.46.06,1.64,1.64,0,0,0,.83-.22,1.67,1.67,0,0,0,.8-1A1.72,1.72,0,0,0,16.66,68ZM15.1,69.09a.31.31,0,0,1-.18-.14.31.31,0,0,1,0-.23.3.3,0,0,1,.14-.19.33.33,0,0,1,.24,0,.38.38,0,0,1,.18.15.31.31,0,0,1,0,.23A.3.3,0,0,1,15.1,69.09Z"/><path class="cls-16" d="M109.63,54.89,99.14,17a.85.85,0,0,0-.11-.26,1,1,0,0,0-.75-.93L93.6,14.72a1,1,0,1,0-.46,2l3.41.81L73.18,40.27,41.41,32.74,64.79,10,86.53,15.1a1,1,0,0,0,1.21-.74A1,1,0,0,0,87,13.15L64.71,7.87a1,1,0,0,0-.93.26L39.09,32.22a1,1,0,0,0-.17,1.18.86.86,0,0,0,0,.28l3,10.7L11.39,51.62a1,1,0,0,0-.75.93,1.23,1.23,0,0,0-.12.26L0,90.68a1,1,0,0,0,.26,1L25,115.74s0,0,0,0a.77.77,0,0,0,.21.14l.09,0a1,1,0,0,0,.35.07h0a.91.91,0,0,0,.23,0l33.56-8a1,1,0,0,0,.73-.71l8.5-30.7,15,3.57a.85.85,0,0,0,.23,0,1,1,0,0,0,.38-.08c.05,0,.08,0,.13-.08a2,2,0,0,0,.19-.12l24.69-24.09A1,1,0,0,0,109.63,54.89ZM36.48,76.06,13.11,53.26l31.77-7.53,23.37,22.8ZM12,55,35.06,77.46l-9.88,35.67L2.12,90.64Zm46.45,51.27-31.34,7.43L37,78l31.35-7.43ZM69.26,74.71l1.45-5.24a1.33,1.33,0,0,0,0-.28A1,1,0,0,0,70.57,68L45.88,43.92a1,1,0,0,0-.93-.26l-1.08.26-2.53-9.14,31.34,7.43,9.87,35.67Zm15.22,2.63L74.61,41.68,97.67,19.19l9.87,35.66Z"/><path class="cls-17" d="M62.78,54.86a1.62,1.62,0,0,0-1.29-.16,1.69,1.69,0,0,0-1.18,2.08,1.67,1.67,0,0,0,.8,1,1.64,1.64,0,0,0,.83.22A1.82,1.82,0,0,0,62.4,58a1.67,1.67,0,0,0,1-.8,1.68,1.68,0,0,0,.16-1.28A1.64,1.64,0,0,0,62.78,54.86ZM62,56.62a.29.29,0,0,1-.24,0,.3.3,0,0,1-.14-.19.31.31,0,0,1,0-.23.33.33,0,0,1,.18-.15h.08a.42.42,0,0,1,.16,0,.3.3,0,0,1,.14.19A.29.29,0,0,1,62,56.62Z"/><path class="cls-18" d="M84.7,22.43a1.74,1.74,0,0,0,.45-.06,1.69,1.69,0,0,0,1.18-2.08,1.7,1.7,0,0,0-2.08-1.18,1.69,1.69,0,0,0-1.18,2.08h0A1.69,1.69,0,0,0,84.7,22.43Zm-.3-1.61a.32.32,0,0,1,.22-.38h.08a.3.3,0,0,1,.29.23l-.59.16Zm.59-.16a.31.31,0,0,1-.21.38.32.32,0,0,1-.38-.22Z"/><path class="cls-19" d="M68.61,23.44a1.69,1.69,0,0,0-1.18,2.08,1.67,1.67,0,0,0,.8,1,1.64,1.64,0,0,0,.83.22,1.82,1.82,0,0,0,.46-.06,1.67,1.67,0,0,0,1-.8,1.69,1.69,0,0,0-1.93-2.46Zm.54,1.92a.31.31,0,0,1-.38-.21.31.31,0,0,1,0-.23.33.33,0,0,1,.18-.15h.08a.29.29,0,0,1,.16,0,.3.3,0,0,1,.14.19A.29.29,0,0,1,69.15,25.36Z"/><path class="cls-20" d="M53.57,27.6a1.67,1.67,0,0,0-1,.8,1.68,1.68,0,0,0,.64,2.3,1.65,1.65,0,0,0,.83.23,1.83,1.83,0,0,0,.46-.07,1.69,1.69,0,0,0,1-.79,1.69,1.69,0,0,0-1.93-2.47Zm.54,1.93a.32.32,0,0,1-.38-.22.3.3,0,0,1,.21-.37l.08,0a.42.42,0,0,1,.16,0,.3.3,0,0,1,.14.19.31.31,0,0,1,0,.23A.33.33,0,0,1,54.11,29.53Z"/><path class="cls-21" d="M82,43.1a1.69,1.69,0,0,0-1.18,2.08h0a1.7,1.7,0,0,0,1.63,1.24,1.74,1.74,0,0,0,.45-.06A1.69,1.69,0,0,0,82,43.1ZM82.51,45a.3.3,0,0,1-.37-.22l.59-.16A.32.32,0,0,1,82.51,45Zm-.37-.22h0a.29.29,0,0,1,.21-.37l.08,0a.31.31,0,0,1,.3.23Z"/><path class="cls-22" d="M98.69,51.81a1.71,1.71,0,0,0,1.64,1.24,1.74,1.74,0,0,0,.45-.06,1.7,1.7,0,0,0-.9-3.27,1.72,1.72,0,0,0-1.19,2.09Zm1.34-.37a.32.32,0,0,1,.22-.38h.08a.31.31,0,0,1,.29.22l-.59.17Zm.59-.16a.29.29,0,0,1-.21.37.31.31,0,0,1-.38-.21Z"/></g></g></svg>