<svg xmlns="http://www.w3.org/2000/svg" xmlns:xlink="http://www.w3.org/1999/xlink" viewBox="0 0 66.55 118.67"><defs><style>.cls-1{fill:url(#Безымянный_градиент_2);}.cls-2{fill:url(#Безымянный_градиент_2-2);}.cls-3{fill:url(#Безымянный_градиент_2-3);}.cls-4{fill:url(#Безымянный_градиент_2-4);}.cls-5{fill:url(#Безымянный_градиент_2-5);}.cls-6{fill:url(#Безымянный_градиент_2-6);}.cls-7{fill:url(#Безымянный_градиент_2-7);}.cls-8{fill:url(#Безымянный_градиент_2-8);}.cls-9{fill:url(#Безымянный_градиент_2-9);}.cls-10{fill:url(#Безымянный_градиент_2-10);}.cls-11{fill:url(#Безымянный_градиент_2-11);}.cls-12{fill:url(#Безымянный_градиент_2-12);}.cls-13{fill:url(#Безымянный_градиент_2-13);}.cls-14{fill:url(#Безымянный_градиент_2-14);}.cls-15{fill:url(#Безымянный_градиент_2-15);}</style><linearGradient id="Безымянный_градиент_2" x1="13.92" y1="6.66" x2="16.21" y2="6.66" gradientUnits="userSpaceOnUse"><stop offset="0" stop-color="#fccb36"/><stop offset="1" stop-color="#f49f24"/></linearGradient><linearGradient id="Безымянный_градиент_2-2" x1="18.85" y1="6.66" x2="21.15" y2="6.66" xlink:href="#Безымянный_градиент_2"/><linearGradient id="Безымянный_градиент_2-3" x1="23.79" y1="6.66" x2="26.08" y2="6.66" xlink:href="#Безымянный_градиент_2"/><linearGradient id="Безымянный_градиент_2-4" x1="16.34" y1="10.41" x2="18.63" y2="10.41" xlink:href="#Безымянный_градиент_2"/><linearGradient id="Безымянный_градиент_2-5" x1="21.37" y1="10.41" x2="23.66" y2="10.41" xlink:href="#Безымянный_градиент_2"/><linearGradient id="Безымянный_градиент_2-6" x1="26.4" y1="10.41" x2="28.69" y2="10.41" xlink:href="#Безымянный_градиент_2"/><linearGradient id="Безымянный_градиент_2-7" x1="11.31" y1="10.41" x2="13.6" y2="10.41" xlink:href="#Безымянный_градиент_2"/><linearGradient id="Безымянный_градиент_2-8" x1="23.79" y1="26.47" x2="26.08" y2="26.47" xlink:href="#Безымянный_градиент_2"/><linearGradient id="Безымянный_градиент_2-9" x1="18.85" y1="26.47" x2="21.15" y2="26.47" xlink:href="#Безымянный_градиент_2"/><linearGradient id="Безымянный_градиент_2-10" x1="13.92" y1="26.47" x2="16.21" y2="26.47" xlink:href="#Безымянный_градиент_2"/><linearGradient id="Безымянный_градиент_2-11" x1="21.37" y1="22.72" x2="23.66" y2="22.72" xlink:href="#Безымянный_градиент_2"/><linearGradient id="Безымянный_градиент_2-12" x1="16.34" y1="22.72" x2="18.63" y2="22.72" xlink:href="#Безымянный_градиент_2"/><linearGradient id="Безымянный_градиент_2-13" x1="11.31" y1="22.72" x2="13.6" y2="22.72" xlink:href="#Безымянный_градиент_2"/><linearGradient id="Безымянный_градиент_2-14" x1="26.4" y1="22.72" x2="28.69" y2="22.72" xlink:href="#Безымянный_градиент_2"/><linearGradient id="Безымянный_градиент_2-15" x1="0" y1="59.34" x2="66.55" y2="59.34" xlink:href="#Безымянный_градиент_2"/></defs><g id="Слой_2" data-name="Слой 2"><g id="Режим_изоляции" data-name="Режим изоляции"><path class="cls-1" d="M15.21,5.66h-.29a1,1,0,1,0,0,2h.29a1,1,0,0,0,0-2Z"/><path class="cls-2" d="M20.15,5.66h-.3a1,1,0,0,0,0,2h.3a1,1,0,0,0,0-2Z"/><path class="cls-3" d="M25.08,5.66h-.29a1,1,0,0,0,0,2h.29a1,1,0,0,0,0-2Z"/><path class="cls-4" d="M17.63,9.41h-.29a1,1,0,0,0,0,2h.29a1,1,0,0,0,0-2Z"/><path class="cls-5" d="M22.66,9.41h-.29a1,1,0,0,0,0,2h.29a1,1,0,0,0,0-2Z"/><path class="cls-6" d="M27.69,9.41H27.4a1,1,0,0,0,0,2h.29a1,1,0,0,0,0-2Z"/><path class="cls-7" d="M12.6,9.41h-.29a1,1,0,1,0,0,2h.29a1,1,0,0,0,0-2Z"/><path class="cls-8" d="M24.79,27.47h.29a1,1,0,0,0,0-2h-.29a1,1,0,0,0,0,2Z"/><path class="cls-9" d="M19.85,27.47h.3a1,1,0,0,0,0-2h-.3a1,1,0,0,0,0,2Z"/><path class="cls-10" d="M14.92,27.47h.29a1,1,0,0,0,0-2h-.29a1,1,0,0,0,0,2Z"/><path class="cls-11" d="M22.37,23.72h.29a1,1,0,0,0,0-2h-.29a1,1,0,0,0,0,2Z"/><path class="cls-12" d="M17.34,23.72h.29a1,1,0,0,0,0-2h-.29a1,1,0,0,0,0,2Z"/><path class="cls-13" d="M12.31,23.72h.29a1,1,0,1,0,0-2h-.29a1,1,0,0,0,0,2Z"/><path class="cls-14" d="M27.4,23.72h.29a1,1,0,0,0,0-2H27.4a1,1,0,0,0,0,2Z"/><path class="cls-15" d="M61.09,97.11c-7.14-4.68-16.19,1.6-25.76,8.25-10.56,7.34-21.48,14.92-30.4,8.37a5.1,5.1,0,0,1-2-3.67A5.18,5.18,0,0,1,4.39,106c1.72-1.78,4.69-1.6,7.56-1.42,3.19.19,6.48.39,8.05-2.24.72-1.2.86-3.69.87-5.16h1.84a1,1,0,0,0,1-1V89.88a4.92,4.92,0,0,0,4.74-4.53L31.13,29a1.1,1.1,0,0,0,0-.16,16.48,16.48,0,0,0,5.13-9.11h.65a3.13,3.13,0,0,0,0-6.25h-.65a16.52,16.52,0,0,0-32.46,0H3.12a3.13,3.13,0,0,0,0,6.25h.65a16.52,16.52,0,0,0,5.11,9.1.5.5,0,0,0,0,.17l2.68,56.39a4.9,4.9,0,0,0,4.73,4.53v6.28a1,1,0,0,0,1,1h1.6a11.58,11.58,0,0,1-.58,4.13c-.95,1.59-3.39,1.44-6.22,1.27-3.17-.19-6.76-.41-9.12,2a7.25,7.25,0,0,0-2,5.64,7.06,7.06,0,0,0,2.81,5.11c10.06,7.4,22.1-1,32.72-8.34,9-6.25,17.51-12.15,23.53-8.22a9.64,9.64,0,0,1,4,11.31c-3.13,8.25-12.59,6.46-13,6.38a1,1,0,0,0-.4,2,16.52,16.52,0,0,0,2.89.24,17.09,17.09,0,0,0,3.26-.3,11.58,11.58,0,0,0,4.34-21.26ZM12,53.81h3.31v3.44A4.64,4.64,0,0,0,20,61.88h0a4.63,4.63,0,0,0,4.63-4.63V53.81h3.31L26.61,81.87H13.37Zm10.59-2H17.35V48.36a2.64,2.64,0,0,1,5.28,0Zm0,2v3.44A2.63,2.63,0,0,1,20,59.88h0a2.63,2.63,0,0,1-2.63-2.63V53.81ZM20,2A14.6,14.6,0,0,1,34.2,13.44H5.8A14.6,14.6,0,0,1,20,2ZM2,16.56a1.12,1.12,0,0,1,1.12-1.12H36.88a1.13,1.13,0,0,1,0,2.25H3.12A1.13,1.13,0,0,1,2,16.56Zm3.8,3.13H34.2a14.54,14.54,0,0,1-28.4,0ZM20,33.12a16.51,16.51,0,0,0,9.06-2.73L28,51.81H24.63V48.36a4.64,4.64,0,0,0-9.28,0v3.45H11.94l-1-21.44A16.35,16.35,0,0,0,20,33.12ZM13.54,85.25l-.07-1.38h13l-.06,1.38a3,3,0,0,1-3.07,2.66H16.6A2.94,2.94,0,0,1,13.54,85.25Zm4.73,4.66h3.44v5.25H18.27Z"/></g></g></svg>