<svg xmlns="http://www.w3.org/2000/svg" xmlns:xlink="http://www.w3.org/1999/xlink" viewBox="0 0 121.38 121.79"><defs><style>.cls-1{fill:url(#Безымянный_градиент_2);}.cls-2{fill:url(#Безымянный_градиент_2-2);}.cls-3{fill:url(#Безымянный_градиент_2-4);}.cls-4{fill:url(#Безымянный_градиент_2-7);}.cls-5{fill:url(#Безымянный_градиент_2-9);}.cls-6{fill:url(#Безымянный_градиент_2-10);}.cls-7{fill:url(#Безымянный_градиент_2-11);}.cls-8{fill:url(#Безымянный_градиент_2-13);}.cls-9{fill:url(#Безымянный_градиент_2-14);}.cls-10{fill:url(#Безымянный_градиент_2-15);}.cls-11{fill:url(#Безымянный_градиент_2-17);}.cls-12{fill:url(#Безымянный_градиент_2-18);}.cls-13{fill:url(#Безымянный_градиент_2-19);}.cls-14{fill:url(#Безымянный_градиент_2-21);}.cls-15{fill:url(#Безымянный_градиент_2-22);}</style><linearGradient id="Безымянный_градиент_2" x1="-8.87" y1="19.41" x2="125.43" y2="19.41" gradientUnits="userSpaceOnUse"><stop offset="0" stop-color="#fccb36"/><stop offset="1" stop-color="#f49f24"/></linearGradient><linearGradient id="Безымянный_градиент_2-2" x1="-8.87" y1="60.9" x2="125.43" y2="60.9" xlink:href="#Безымянный_градиент_2"/><linearGradient id="Безымянный_градиент_2-4" x1="-8.87" y1="102.38" x2="125.43" y2="102.38" xlink:href="#Безымянный_градиент_2"/><linearGradient id="Безымянный_градиент_2-7" x1="-8.87" y1="75.24" x2="125.43" y2="75.24" xlink:href="#Безымянный_градиент_2"/><linearGradient id="Безымянный_градиент_2-9" x1="-8.87" y1="72.95" x2="125.43" y2="72.95" xlink:href="#Безымянный_градиент_2"/><linearGradient id="Безымянный_градиент_2-10" x1="-8.87" y1="77.53" x2="125.43" y2="77.53" xlink:href="#Безымянный_градиент_2"/><linearGradient id="Безымянный_градиент_2-11" x1="-8.87" y1="14.54" x2="125.43" y2="14.54" xlink:href="#Безымянный_градиент_2"/><linearGradient id="Безымянный_градиент_2-13" x1="-8.87" y1="12.24" x2="125.43" y2="12.24" xlink:href="#Безымянный_градиент_2"/><linearGradient id="Безымянный_градиент_2-14" x1="-8.87" y1="16.83" x2="125.43" y2="16.83" xlink:href="#Безымянный_градиент_2"/><linearGradient id="Безымянный_градиент_2-15" x1="-8.87" y1="73.22" x2="125.43" y2="73.22" xlink:href="#Безымянный_градиент_2"/><linearGradient id="Безымянный_градиент_2-17" x1="-8.87" y1="70.93" x2="125.43" y2="70.93" xlink:href="#Безымянный_градиент_2"/><linearGradient id="Безымянный_градиент_2-18" x1="-8.87" y1="75.51" x2="125.43" y2="75.51" xlink:href="#Безымянный_градиент_2"/><linearGradient id="Безымянный_градиент_2-19" x1="-8.87" y1="29.63" x2="125.43" y2="29.63" xlink:href="#Безымянный_градиент_2"/><linearGradient id="Безымянный_градиент_2-21" x1="-8.87" y1="27.34" x2="125.43" y2="27.34" xlink:href="#Безымянный_градиент_2"/><linearGradient id="Безымянный_градиент_2-22" x1="-8.87" y1="31.92" x2="125.43" y2="31.92" xlink:href="#Безымянный_градиент_2"/></defs><g id="Слой_2" data-name="Слой 2"><g id="Режим_изоляции" data-name="Режим изоляции"><path class="cls-1" d="M59.69,20.67V36.82H54.35a1,1,0,0,0,0,2H67a1,1,0,0,0,0-2H61.69V20.67l18.25-19A1,1,0,0,0,80.13.61,1,1,0,0,0,79.21,0h-37a1,1,0,0,0-.92.61,1,1,0,0,0,.2,1.08Zm1-1.84-10-10.41h20ZM76.87,2,72.6,6.44l-.08,0H48.85l-.07,0L44.51,2Z"/><path class="cls-2" d="M47.45,79.31a1,1,0,0,0-1-1H41.11V62.16l18.24-19a1,1,0,0,0-.72-1.7H21.58a1,1,0,0,0-.72,1.7l18.25,19V78.31H33.77a1,1,0,0,0,0,2H46.45A1,1,0,0,0,47.45,79.31Zm-7.34-19-10-10.4h20ZM56.28,43.48,52,47.92H28.2l-4.27-4.44Z"/><path class="cls-2" d="M88.61,79.31a1,1,0,0,0-1-1H82.27V62.16l18.25-19a1,1,0,0,0,.2-1.09,1,1,0,0,0-.92-.61H62.74a1,1,0,0,0-.92.61,1,1,0,0,0,.2,1.09l18.25,19V78.31H74.93a1,1,0,0,0,0,2H87.61A1,1,0,0,0,88.61,79.31Zm-7.34-19-10-10.4h20ZM97.45,43.48l-4.27,4.44H69.36l-4.27-4.44Z"/><path class="cls-3" d="M79.21,83h-37a1,1,0,0,0-.92.61,1,1,0,0,0,.2,1.08l18.25,19v16.15H54.35a1,1,0,0,0,0,2H67a1,1,0,0,0,0-2H61.69V103.64l18.25-19a1,1,0,0,0,.19-1.08A1,1,0,0,0,79.21,83ZM60.69,101.8l-10-10.41h20ZM72.6,89.41l-.08,0H48.85l-.07,0L44.51,85H76.87Z"/><path class="cls-3" d="M121.1,84.66a1,1,0,0,0,.2-1.08,1,1,0,0,0-.92-.61H83.32a1,1,0,0,0-.92.61,1,1,0,0,0,.2,1.08l18.25,19v16.15H95.51a1,1,0,0,0,0,2h12.68a1,1,0,0,0,0-2h-5.34V103.64ZM91.85,91.39h20l-10,10.41ZM118,85l-4.27,4.44-.07,0H90l-.07,0L85.67,85Z"/><path class="cls-3" d="M38.05,83H1a1,1,0,0,0-.92.61,1,1,0,0,0,.2,1.08l18.25,19v16.15H13.19a1,1,0,0,0,0,2H25.87a1,1,0,0,0,0-2H20.53V103.64l18.24-19a1,1,0,0,0,.2-1.08A1,1,0,0,0,38.05,83ZM19.53,101.8l-10-10.41h20ZM31.44,89.41l-.08,0H7.69l-.07,0L3.35,85H35.7Z"/><path class="cls-4" d="M103.55,76.24h.54a1,1,0,0,0,0-2h-.54a1,1,0,0,0,0,2Z"/><path class="cls-4" d="M108.14,76.24h.54a1,1,0,0,0,0-2h-.54a1,1,0,0,0,0,2Z"/><path class="cls-5" d="M106.12,74.22a1,1,0,0,0,1-1v-.54a1,1,0,0,0-2,0v.54A1,1,0,0,0,106.12,74.22Z"/><path class="cls-6" d="M106.12,78.8a1,1,0,0,0,1-1v-.54a1,1,0,1,0-2,0v.54A1,1,0,0,0,106.12,78.8Z"/><path class="cls-7" d="M34.78,15.54h.54a1,1,0,0,0,0-2h-.54a1,1,0,0,0,0,2Z"/><path class="cls-7" d="M39.37,15.54h.54a1,1,0,0,0,0-2h-.54a1,1,0,0,0,0,2Z"/><path class="cls-8" d="M37.34,13.51a1,1,0,0,0,1-1V12a1,1,0,1,0-2,0v.54A1,1,0,0,0,37.34,13.51Z"/><path class="cls-9" d="M37.34,18.1a1,1,0,0,0,1-1v-.54a1,1,0,0,0-2,0v.54A1,1,0,0,0,37.34,18.1Z"/><path class="cls-10" d="M10.62,74.22h.54a1,1,0,0,0,0-2h-.54a1,1,0,0,0,0,2Z"/><path class="cls-10" d="M15.21,74.22h.54a1,1,0,0,0,0-2h-.54a1,1,0,0,0,0,2Z"/><path class="cls-11" d="M13.19,72.2a1,1,0,0,0,1-1v-.54a1,1,0,0,0-2,0v.54A1,1,0,0,0,13.19,72.2Z"/><path class="cls-12" d="M13.19,76.78a1,1,0,0,0,1-1v-.54a1,1,0,0,0-2,0v.54A1,1,0,0,0,13.19,76.78Z"/><path class="cls-13" d="M74.93,28.63a1,1,0,0,0,0,2h.54a1,1,0,0,0,0-2Z"/><path class="cls-13" d="M79.51,28.63a1,1,0,0,0,0,2h.54a1,1,0,0,0,0-2Z"/><path class="cls-14" d="M78.49,27.07a1,1,0,0,0-2,0v.54a1,1,0,0,0,2,0Z"/><path class="cls-15" d="M77.49,30.65a1,1,0,0,0-1,1v.54a1,1,0,0,0,2,0v-.54A1,1,0,0,0,77.49,30.65Z"/></g></g></svg>