<svg xmlns="http://www.w3.org/2000/svg" xmlns:xlink="http://www.w3.org/1999/xlink" viewBox="0 0 127 126.85"><defs><style>.cls-1{fill:url(#Безымянный_градиент_2);}.cls-2{fill:url(#Безымянный_градиент_2-2);}.cls-3{fill:url(#Безымянный_градиент_2-4);}.cls-4{fill:url(#Безымянный_градиент_2-5);}.cls-5{fill:url(#Безымянный_градиент_2-6);}.cls-6{fill:url(#Безымянный_градиент_2-7);}.cls-7{fill:url(#Безымянный_градиент_2-8);}.cls-8{fill:url(#Безымянный_градиент_2-9);}.cls-9{fill:url(#Безымянный_градиент_2-10);}.cls-10{fill:url(#Безымянный_градиент_2-11);}.cls-11{fill:url(#Безымянный_градиент_2-13);}.cls-12{fill:url(#Безымянный_градиент_2-14);}.cls-13{fill:url(#Безымянный_градиент_2-16);}.cls-14{fill:url(#Безымянный_градиент_2-17);}.cls-15{fill:url(#Безымянный_градиент_2-18);}.cls-16{fill:url(#Безымянный_градиент_2-19);}.cls-17{fill:url(#Безымянный_градиент_2-21);}</style><linearGradient id="Безымянный_градиент_2" x1="-3.94" y1="74.94" x2="128.1" y2="74.94" gradientUnits="userSpaceOnUse"><stop offset="0" stop-color="#fccb36"/><stop offset="1" stop-color="#f49f24"/></linearGradient><linearGradient id="Безымянный_градиент_2-2" x1="-3.94" y1="104.9" x2="128.1" y2="104.9" xlink:href="#Безымянный_градиент_2"/><linearGradient id="Безымянный_градиент_2-4" x1="-3.94" y1="94.22" x2="128.1" y2="94.22" xlink:href="#Безымянный_градиент_2"/><linearGradient id="Безымянный_градиент_2-5" x1="-3.94" y1="32.25" x2="128.1" y2="32.25" xlink:href="#Безымянный_градиент_2"/><linearGradient id="Безымянный_градиент_2-6" x1="-3.94" y1="64.45" x2="128.1" y2="64.45" xlink:href="#Безымянный_градиент_2"/><linearGradient id="Безымянный_градиент_2-7" x1="-3.94" y1="84.5" x2="128.1" y2="84.5" xlink:href="#Безымянный_градиент_2"/><linearGradient id="Безымянный_градиент_2-8" x1="-3.94" y1="102.22" x2="128.1" y2="102.22" xlink:href="#Безымянный_градиент_2"/><linearGradient id="Безымянный_градиент_2-9" x1="-3.94" y1="102.22" x2="128.1" y2="102.22" xlink:href="#Безымянный_градиент_2"/><linearGradient id="Безымянный_градиент_2-10" x1="-3.94" y1="21.76" x2="128.1" y2="21.76" xlink:href="#Безымянный_градиент_2"/><linearGradient id="Безымянный_градиент_2-11" x1="-3.94" y1="29.76" x2="128.1" y2="29.76" xlink:href="#Безымянный_градиент_2"/><linearGradient id="Безымянный_градиент_2-13" x1="-3.94" y1="41.38" x2="128.1" y2="41.38" xlink:href="#Безымянный_градиент_2"/><linearGradient id="Безымянный_градиент_2-14" x1="-3.94" y1="61.48" x2="128.1" y2="61.48" xlink:href="#Безымянный_градиент_2"/><linearGradient id="Безымянный_градиент_2-16" x1="-3.94" y1="54.69" x2="128.1" y2="54.69" xlink:href="#Безымянный_градиент_2"/><linearGradient id="Безымянный_градиент_2-17" x1="-3.94" y1="63.09" x2="128.1" y2="63.09" xlink:href="#Безымянный_градиент_2"/><linearGradient id="Безымянный_градиент_2-18" x1="-3.94" y1="63.09" x2="128.1" y2="63.09" xlink:href="#Безымянный_градиент_2"/><linearGradient id="Безымянный_градиент_2-19" x1="-3.94" y1="27.7" x2="128.1" y2="27.7" xlink:href="#Безымянный_градиент_2"/><linearGradient id="Безымянный_градиент_2-21" x1="-3.94" y1="65.05" x2="128.1" y2="65.05" xlink:href="#Безымянный_градиент_2"/></defs><g id="Слой_2" data-name="Слой 2"><g id="Режим_изоляции" data-name="Режим изоляции"><path class="cls-1" d="M98.32,79.5H45a1,1,0,0,1,0-2H98.32a2.56,2.56,0,0,0,0-5.11H28.68a2.56,2.56,0,0,0,0,5.11H39.15a1,1,0,1,1,0,2H28.68a4.56,4.56,0,0,1,0-9.11H98.32a4.56,4.56,0,0,1,0,9.11Z"/><path class="cls-2" d="M63.5,120.12A15.22,15.22,0,1,1,78.71,104.9,15.23,15.23,0,0,1,63.5,120.12Zm0-28.43A13.22,13.22,0,1,0,76.71,104.9,13.22,13.22,0,0,0,63.5,91.69Z"/><path class="cls-2" d="M63.5,114.08a9.18,9.18,0,1,1,9.18-9.18A9.19,9.19,0,0,1,63.5,114.08Zm0-16.36a7.18,7.18,0,1,0,7.18,7.18A7.19,7.19,0,0,0,63.5,97.72Z"/><path class="cls-3" d="M98.08,116.57a1,1,0,0,1-.83-.44,1,1,0,0,1,.28-1.39,61.59,61.59,0,0,0,26.78-42,1,1,0,0,1,1.14-.84,1,1,0,0,1,.84,1.13A63.57,63.57,0,0,1,98.63,116.4.94.94,0,0,1,98.08,116.57Z"/><path class="cls-4" d="M126,64.5a1,1,0,0,1-1-1A61.52,61.52,0,0,0,34.19,9.42,1,1,0,0,1,32.83,9a1,1,0,0,1,.4-1.36A63.53,63.53,0,0,1,127,63.5,1,1,0,0,1,126,64.5Z"/><path class="cls-5" d="M29.7,117.08a1,1,0,0,1-.54-.16A63.51,63.51,0,0,1,26.33,12a1,1,0,0,1,1.4.22,1,1,0,0,1-.22,1.4,61.51,61.51,0,0,0,2.73,101.61,1,1,0,0,1-.54,1.84Z"/><path class="cls-6" d="M86.4,91.51h-.12a1,1,0,0,1-.87-1.11l1.44-12a1,1,0,0,1,2,.24l-1.45,12A1,1,0,0,1,86.4,91.51Z"/><path class="cls-7" d="M89.77,126.85h-.1a1,1,0,0,1-.89-1.09L93.7,78.48a1,1,0,0,1,2,.21L90.76,126A1,1,0,0,1,89.77,126.85Z"/><path class="cls-8" d="M37.23,126.85a1,1,0,0,1-1-.9L31.31,78.69a1,1,0,0,1,.89-1.1,1,1,0,0,1,1.1.89l4.93,47.27a1,1,0,0,1-.9,1.09Z"/><path class="cls-9" d="M73.92,27.55a1,1,0,0,1-1-.74c-1.19-4.5-2.14-8-2.61-8.81A6.3,6.3,0,0,0,69,19.72c-1.18,1.79-2.8,4.24-6,5.07a10.82,10.82,0,0,1-7.79-.49l-.32-.16c-.34-.17-.51-.24-.6-.22s-.65.49-1,1.63a1,1,0,0,1-1.89-.66c.62-1.78,1.47-2.74,2.58-2.94a2.82,2.82,0,0,1,1.85.4l.31.15.09.05c.09.05,2.4,1.34,6.31.31,2.46-.64,3.78-2.64,4.84-4.25s1.91-2.9,3.53-2.59c1.37.25,1.68,1.25,4.06,10.28a1,1,0,0,1-.71,1.22A1.07,1.07,0,0,1,73.92,27.55Z"/><path class="cls-10" d="M60,31a1,1,0,0,1-.62-.21,2,2,0,0,0-1.12-.28,2,2,0,0,0-1.12.28,1,1,0,0,1-1.41-.17,1,1,0,0,1,.17-1.4,4.45,4.45,0,0,1,4.71,0A1,1,0,0,1,60,31Z"/><path class="cls-10" d="M70.53,31a1,1,0,0,1-.61-.21,2.4,2.4,0,0,0-2.25,0,1,1,0,0,1-1.23-1.57,4.45,4.45,0,0,1,4.71,0A1,1,0,0,1,70.53,31Z"/><path class="cls-11" d="M63.5,42.62a3.86,3.86,0,0,1-2.35-.7,1,1,0,1,1,1.23-1.58,2.38,2.38,0,0,0,2.24,0,1,1,0,1,1,1.24,1.58A3.91,3.91,0,0,1,63.5,42.62Z"/><path class="cls-12" d="M72.1,72.39H72a1,1,0,0,1-.85-1.12l2.62-19.81a1,1,0,0,1,.51-.75,1,1,0,0,1,.9,0l12.41,5.69c2.47,1.37,3.8,3.92,3.8,7.22v7.77a1,1,0,0,1-2,0V63.58c0-1.47-.35-4.13-2.7-5.43l-11.11-5.1L73.09,71.52A1,1,0,0,1,72.1,72.39Z"/><path class="cls-12" d="M54.9,72.39a1,1,0,0,1-1-.87L51.46,53.05,40.29,58.18c-2.29,1.27-2.64,3.93-2.64,5.4v7.77a1,1,0,0,1-2,0V63.58c0-3.3,1.33-5.85,3.73-7.18l12.48-5.73a1,1,0,0,1,.9,0,1,1,0,0,1,.51.75L55.9,71.26A1,1,0,0,1,55,72.38Z"/><path class="cls-13" d="M63.34,59.36a3,3,0,0,1-2.72-1.73l-2.07-4.38a2.26,2.26,0,0,1,2-3.22h5.49a2.25,2.25,0,0,1,2,3.22h0l-2.06,4.39A3,3,0,0,1,63.34,59.36ZM60.59,52a.23.23,0,0,0-.21.12.22.22,0,0,0,0,.24l2.07,4.39a1,1,0,0,0,.91.58,1,1,0,0,0,.91-.58l2.06-4.39a.25.25,0,0,0-.23-.36Zm6.63.79h0Z"/><path class="cls-14" d="M68.06,72.39a1,1,0,0,1-1-.89L65.29,54.91a1,1,0,0,1,2-.22l1.77,16.59a1,1,0,0,1-.88,1.1Z"/><path class="cls-15" d="M58.62,72.39h-.11a1,1,0,0,1-.89-1.1L59.4,54.69a1,1,0,0,1,1.1-.88,1,1,0,0,1,.88,1.1L59.61,71.5A1,1,0,0,1,58.62,72.39Z"/><path class="cls-16" d="M63.5,48.06c-5.69,0-10.8-4.14-13.14-10.6a5.21,5.21,0,0,1-1.46-8.65,29.43,29.43,0,0,1-.45-6.32c0-.28,0-.83,0-1.11a15,15,0,0,1,15-14,1,1,0,0,1,0,2,13.05,13.05,0,0,0-13,12.17c0,.26,0,.77,0,1A24.59,24.59,0,0,0,51,28.9a1,1,0,0,1-.4,1.13,3.19,3.19,0,0,0,.83,5.68,1,1,0,0,1,.68.64c2,5.9,6.45,9.71,11.4,9.71a1,1,0,0,1,0,2Z"/><path class="cls-16" d="M63.5,48.06a1,1,0,0,1,0-2c5,0,9.43-3.81,11.4-9.71a1,1,0,0,1,.68-.64A3.19,3.19,0,0,0,76.41,30,1,1,0,0,1,76,28.9a24.16,24.16,0,0,0,.54-6.36c0-.26,0-.77,0-1a13.05,13.05,0,0,0-13-12.17,1,1,0,0,1,0-2,15,15,0,0,1,15,14c0,.28,0,.83,0,1.11a29.43,29.43,0,0,1-.45,6.32,5.21,5.21,0,0,1-1.46,8.65C74.3,43.92,69.19,48.06,63.5,48.06Z"/><path class="cls-17" d="M80.57,68.5A3.45,3.45,0,1,1,84,65.05,3.46,3.46,0,0,1,80.57,68.5Zm0-4.9A1.45,1.45,0,1,0,82,65.05,1.45,1.45,0,0,0,80.57,63.6Z"/></g></g></svg>