<svg xmlns="http://www.w3.org/2000/svg" xmlns:xlink="http://www.w3.org/1999/xlink" viewBox="0 0 119 84.81"><defs><style>.cls-1{fill:url(#Безымянный_градиент_2);}.cls-2{fill:url(#Безымянный_градиент_2-2);}.cls-3{fill:url(#Безымянный_градиент_2-3);}.cls-4{fill:url(#Безымянный_градиент_2-4);}.cls-5{fill:url(#Безымянный_градиент_2-5);}.cls-6{fill:url(#Безымянный_градиент_2-6);}</style><linearGradient id="Безымянный_градиент_2" x1="-17.64" y1="42.41" x2="131.06" y2="42.41" gradientUnits="userSpaceOnUse"><stop offset="0" stop-color="#fccb36"/><stop offset="1" stop-color="#f49f24"/></linearGradient><linearGradient id="Безымянный_градиент_2-2" x1="-17.64" y1="46.59" x2="131.06" y2="46.59" xlink:href="#Безымянный_градиент_2"/><linearGradient id="Безымянный_градиент_2-3" x1="-17.64" y1="27.22" x2="131.06" y2="27.22" xlink:href="#Безымянный_градиент_2"/><linearGradient id="Безымянный_градиент_2-4" x1="-17.64" y1="64.69" x2="131.06" y2="64.69" xlink:href="#Безымянный_градиент_2"/><linearGradient id="Безымянный_градиент_2-5" x1="-17.64" y1="71.14" x2="131.06" y2="71.14" xlink:href="#Безымянный_градиент_2"/><linearGradient id="Безымянный_градиент_2-6" x1="-17.64" y1="42.41" x2="131.06" y2="42.41" xlink:href="#Безымянный_градиент_2"/></defs><g id="Слой_2" data-name="Слой 2"><g id="Layer_1" data-name="Layer 1"><path class="cls-1" d="M112,0H7A7,7,0,0,0,0,7v70.8a7,7,0,0,0,7,7H112a7,7,0,0,0,7-7V7A7,7,0,0,0,112,0Zm5,77.81a5,5,0,0,1-5,5H7a5,5,0,0,1-5-5V7A5,5,0,0,1,7,2H112a5,5,0,0,1,5,5Z"/><path class="cls-2" d="M109.94,37.15a1,1,0,0,0-1,1V55a1,1,0,0,0,2,0V38.15A1,1,0,0,0,109.94,37.15Z"/><path class="cls-3" d="M109.94,23.61a1,1,0,0,0-1,1v5.22a1,1,0,0,0,2,0V24.61A1,1,0,0,0,109.94,23.61Z"/><path class="cls-4" d="M12,56.21a1,1,0,0,0-1.42,0,1,1,0,0,0,0,1.41L26.09,73.17a1,1,0,0,0,1.41,0,1,1,0,0,0,0-1.41Z"/><path class="cls-5" d="M13.47,67.14a1,1,0,0,0-1.41,0,1,1,0,0,0,0,1.42l6.57,6.57a1,1,0,0,0,.71.3,1,1,0,0,0,.71-1.71Z"/><path class="cls-6" d="M70.62,41.54,49.39,29.28a1,1,0,0,0-1,0,1,1,0,0,0-.5.87V54.66a1,1,0,0,0,.5.87,1,1,0,0,0,.5.13,1,1,0,0,0,.5-.13L70.62,43.27a1,1,0,0,0,0-1.73ZM49.89,52.93v-21L68.12,42.41Z"/></g></g></svg>