<svg xmlns="http://www.w3.org/2000/svg" xmlns:xlink="http://www.w3.org/1999/xlink" viewBox="0 0 78.75 116.42"><defs><style>.cls-1{fill:url(#Безымянный_градиент_2);}.cls-2{fill:url(#Безымянный_градиент_2-2);}.cls-3{fill:url(#Безымянный_градиент_2-3);}.cls-4{fill:url(#Безымянный_градиент_2-4);}</style><linearGradient id="Безымянный_градиент_2" x1="-6.26" y1="58.21" x2="79.91" y2="58.21" gradientUnits="userSpaceOnUse"><stop offset="0" stop-color="#fccb36"/><stop offset="1" stop-color="#f49f24"/></linearGradient><linearGradient id="Безымянный_градиент_2-2" x1="-6.27" y1="94.48" x2="79.9" y2="94.48" xlink:href="#Безымянный_градиент_2"/><linearGradient id="Безымянный_градиент_2-3" x1="-6.26" y1="94.48" x2="79.91" y2="94.48" xlink:href="#Безымянный_градиент_2"/><linearGradient id="Безымянный_градиент_2-4" x1="-6.26" y1="8.17" x2="79.91" y2="8.17" xlink:href="#Безымянный_градиент_2"/></defs><g id="Слой_2" data-name="Слой 2"><g id="Layer_1" data-name="Layer 1"><path class="cls-1" d="M74.19,60H69.11V1a1,1,0,0,0-1-1H10.64a1,1,0,0,0-1,1V60H4.55a4.56,4.56,0,0,0,0,9.11H7.27l4.84,46.46a1,1,0,0,0,1,.89h.11a1,1,0,0,0,.89-1.1L9.28,69.07H15a1,1,0,0,0,0-2H4.55a2.56,2.56,0,0,1,0-5.11H74.19a2.56,2.56,0,1,1,0,5.11H20.85a1,1,0,1,0,0,2H62.59L61.28,80a1,1,0,0,0,.87,1.11h.12a1,1,0,0,0,1-.88L64.6,69.07h4.87l-4.82,46.25a1,1,0,0,0,.89,1.1h.1a1,1,0,0,0,1-.89l4.84-46.46h2.71a4.56,4.56,0,1,0,0-9.11ZM11.64,2H67.11V14.34H11.64Zm0,58V16.34H67.11V60Z"/><path class="cls-2" d="M39.37,79.26A15.22,15.22,0,1,0,54.59,94.48,15.23,15.23,0,0,0,39.37,79.26Zm0,28.43A13.22,13.22,0,1,1,52.59,94.48,13.22,13.22,0,0,1,39.37,107.69Z"/><path class="cls-3" d="M39.37,85.3a9.18,9.18,0,1,0,9.18,9.18A9.19,9.19,0,0,0,39.37,85.3Zm0,16.36a7.18,7.18,0,1,1,7.18-7.18A7.19,7.19,0,0,1,39.37,101.66Z"/><path class="cls-4" d="M29.5,7.17H16a1,1,0,0,0,0,2H29.5a1,1,0,0,0,0-2Z"/></g></g></svg>