<svg xmlns="http://www.w3.org/2000/svg" xmlns:xlink="http://www.w3.org/1999/xlink" viewBox="0 0 113.52 108.29"><defs><style>.cls-1{fill:url(#Безымянный_градиент_2);}.cls-2{fill:url(#Безымянный_градиент_2-2);}.cls-3{fill:url(#Безымянный_градиент_2-3);}.cls-4{fill:url(#Безымянный_градиент_2-4);}.cls-5{fill:url(#Безымянный_градиент_2-5);}.cls-6{fill:url(#Безымянный_градиент_2-6);}.cls-7{fill:url(#Безымянный_градиент_2-7);}.cls-8{fill:url(#Безымянный_градиент_2-8);}.cls-9{fill:url(#Безымянный_градиент_2-9);}.cls-10{fill:url(#Безымянный_градиент_2-10);}.cls-11{fill:url(#Безымянный_градиент_2-11);}.cls-12{fill:url(#Безымянный_градиент_2-12);}.cls-13{fill:url(#Безымянный_градиент_2-13);}.cls-14{fill:url(#Безымянный_градиент_2-14);}</style><linearGradient id="Безымянный_градиент_2" x1="-9.4" y1="13.51" x2="125.27" y2="13.51" gradientUnits="userSpaceOnUse"><stop offset="0" stop-color="#fccb36"/><stop offset="1" stop-color="#f49f24"/></linearGradient><linearGradient id="Безымянный_градиент_2-2" x1="-9.4" y1="18.82" x2="125.27" y2="18.82" xlink:href="#Безымянный_градиент_2"/><linearGradient id="Безымянный_градиент_2-3" x1="-9.4" y1="38.81" x2="125.27" y2="38.81" xlink:href="#Безымянный_градиент_2"/><linearGradient id="Безымянный_градиент_2-4" x1="-9.4" y1="41.71" x2="125.27" y2="41.71" xlink:href="#Безымянный_градиент_2"/><linearGradient id="Безымянный_градиент_2-5" x1="-9.4" y1="62.23" x2="125.27" y2="62.23" xlink:href="#Безымянный_градиент_2"/><linearGradient id="Безымянный_градиент_2-6" x1="-9.4" y1="4.65" x2="125.27" y2="4.65" xlink:href="#Безымянный_градиент_2"/><linearGradient id="Безымянный_градиент_2-7" x1="-9.4" y1="59.98" x2="125.27" y2="59.98" xlink:href="#Безымянный_градиент_2"/><linearGradient id="Безымянный_градиент_2-8" x1="-9.4" y1="41.35" x2="125.27" y2="41.35" xlink:href="#Безымянный_градиент_2"/><linearGradient id="Безымянный_градиент_2-9" x1="-9.4" y1="28.1" x2="125.27" y2="28.1" xlink:href="#Безымянный_градиент_2"/><linearGradient id="Безымянный_градиент_2-10" x1="-9.4" y1="11.92" x2="125.27" y2="11.92" xlink:href="#Безымянный_градиент_2"/><linearGradient id="Безымянный_градиент_2-11" x1="-9.4" y1="5.85" x2="125.27" y2="5.85" xlink:href="#Безымянный_градиент_2"/><linearGradient id="Безымянный_градиент_2-12" x1="-9.4" y1="27.22" x2="125.27" y2="27.22" xlink:href="#Безымянный_градиент_2"/><linearGradient id="Безымянный_градиент_2-13" x1="-9.4" y1="78.32" x2="125.27" y2="78.32" xlink:href="#Безымянный_градиент_2"/><linearGradient id="Безымянный_градиент_2-14" x1="-9.4" y1="67.82" x2="125.27" y2="67.82" xlink:href="#Безымянный_градиент_2"/></defs><g id="Слой_2" data-name="Слой 2"><g id="Режим_изоляции" data-name="Режим изоляции"><path class="cls-1" d="M67.88,18.16a4.65,4.65,0,1,0-3.29-1.36A4.62,4.62,0,0,0,67.88,18.16ZM66,11.63a2.64,2.64,0,0,1,3.75,0,2.66,2.66,0,0,1,0,3.75,2.71,2.71,0,0,1-3.75,0A2.64,2.64,0,0,1,66,11.63Z"/><path class="cls-2" d="M24.5,22.11a4.66,4.66,0,1,0-3.29,1.36A4.67,4.67,0,0,0,24.5,22.11Zm-5.17-5.17a2.66,2.66,0,1,1,0,3.76A2.68,2.68,0,0,1,19.33,16.94Z"/><path class="cls-3" d="M50.15,35.52a4.65,4.65,0,0,0,3.29,7.94,4.65,4.65,0,0,0,3.29-7.94A4.67,4.67,0,0,0,50.15,35.52Zm5.17,5.17a2.65,2.65,0,1,1,0-3.76A2.66,2.66,0,0,1,55.32,40.69Z"/><path class="cls-4" d="M35.9,41.71A4.64,4.64,0,1,0,34.54,45,4.62,4.62,0,0,0,35.9,41.71Zm-2.77,1.88a2.67,2.67,0,0,1-3.76,0,2.64,2.64,0,0,1-.77-1.88,2.58,2.58,0,0,1,.78-1.87,2.65,2.65,0,0,1,3.75,3.75Z"/><path class="cls-5" d="M23,58.94a4.65,4.65,0,0,0,3.29,7.94,4.65,4.65,0,0,0,3.29-7.94A4.67,4.67,0,0,0,23,58.94Zm5.17,5.17a2.65,2.65,0,0,1-3.75-3.75,2.61,2.61,0,0,1,1.87-.78,2.66,2.66,0,0,1,1.88,4.53Z"/><path class="cls-6" d="M51.6,9.31a4.66,4.66,0,0,0,3.29-7.95,4.65,4.65,0,0,0-6.58,6.58A4.6,4.6,0,0,0,51.6,9.31ZM49.72,2.78a2.65,2.65,0,1,1,3.75,3.75,2.72,2.72,0,0,1-3.75,0A2.64,2.64,0,0,1,49.72,2.78Z"/><path class="cls-7" d="M1.36,56.69a4.65,4.65,0,1,0,6.58,0A4.67,4.67,0,0,0,1.36,56.69Zm5.17,5.17a2.66,2.66,0,1,1,0-3.75A2.66,2.66,0,0,1,6.53,61.86Z"/><path class="cls-8" d="M11.57,41.32a5.33,5.33,0,0,1-7.23-2.08,1,1,0,1,0-1.75,1A7.31,7.31,0,0,0,9,44a7.22,7.22,0,0,0,3.52-.91,1,1,0,1,0-1-1.75Z"/><path class="cls-9" d="M64.56,33.33a1,1,0,0,0,1.26-1.56A5.31,5.31,0,0,1,65,24.29,1,1,0,1,0,63.46,23a7.33,7.33,0,0,0,1.1,10.3Z"/><path class="cls-10" d="M78.51,16.53h.16a1,1,0,0,0,.83-1.15,5.3,5.3,0,0,1,4.43-6.08,1,1,0,0,0-.32-2,7.33,7.33,0,0,0-6.09,8.37A1,1,0,0,0,78.51,16.53Z"/><path class="cls-11" d="M33.1,5.07a5.32,5.32,0,0,1,6.8,3.21,1,1,0,0,0,1,.66,1,1,0,0,0,.33-.06,1,1,0,0,0,.61-1.28,7.33,7.33,0,0,0-9.37-4.41,1,1,0,1,0,.68,1.88Z"/><path class="cls-12" d="M38.62,25.36A1,1,0,1,0,37,26.55,7.31,7.31,0,0,0,47.26,28a1,1,0,1,0-1.19-1.6A5.33,5.33,0,0,1,38.62,25.36Z"/><path class="cls-13" d="M26.26,73.87a7.32,7.32,0,0,0-6.55,8,1,1,0,0,0,1,.9h.1a1,1,0,0,0,.9-1.1,5.31,5.31,0,0,1,4.76-5.82,1,1,0,0,0-.2-2Z"/><path class="cls-14" d="M113.44,106.91,80.67,28a1,1,0,0,0-.73-.6,1,1,0,0,0-.9.28L32.87,73.81a1,1,0,0,0,.32,1.64L45,80.36h0l67.1,27.85a1,1,0,0,0,.38.07,1,1,0,0,0,.92-1.38ZM103,86.88A13.82,13.82,0,0,1,92.38,61.39ZM73.9,35.61A14.26,14.26,0,0,1,75.58,37,13.83,13.83,0,0,1,56,56.56a12.63,12.63,0,0,1-1.4-1.67ZM72.22,89.48,46.73,78.9A13.53,13.53,0,0,1,49.46,75,13.82,13.82,0,0,1,72.22,89.48Zm1.84.77A15.81,15.81,0,0,0,44.88,78.13l-9.54-4L53.19,56.32A15.06,15.06,0,0,0,54.6,58,15.83,15.83,0,0,0,77,35.59a16.32,16.32,0,0,0-1.66-1.42l4.07-4.06L91.62,59.54a15.78,15.78,0,0,0-4.48,25.51,15.6,15.6,0,0,0,16.58,3.66l7,16.73Z"/></g></g></svg>