<svg xmlns="http://www.w3.org/2000/svg" xmlns:xlink="http://www.w3.org/1999/xlink" viewBox="0 0 750 563.15"><defs><style>.cls-1{fill:none;}.cls-2{fill:#d9d6cc;}.cls-3{fill:#f16d5e;}.cls-4{fill:#3295c9;}.cls-5{clip-path:url(#clip-path);}.cls-6{fill-opacity:0.32;}.cls-7{fill:#fcad00;}.cls-8{clip-path:url(#clip-path-2);}.cls-9{fill-opacity:0.31;}.cls-10{fill:#50be3d;}.cls-11{clip-path:url(#clip-path-3);}.cls-12{clip-path:url(#clip-path-4);}.cls-13{fill:#f26d5f;fill-opacity:0.3;}.cls-14{fill:url(#Безымянный_градиент_2);}.cls-15{fill:url(#Безымянный_градиент_2-2);}</style><clipPath id="clip-path"><path class="cls-1" d="M83.1,31.58c-40,0-51.87,24-51.87,53.71V148c0-29.76,11.9-53.71,51.87-53.71H666.9c40,0,51.87,24,51.87,53.71V85.29c0-29.76-11.9-53.71-51.87-53.71Z"/></clipPath><clipPath id="clip-path-2"><path class="cls-1" d="M83.1,94.32c-40,0-51.87,24-51.87,53.71v62.74c0-29.76,11.9-53.71,51.87-53.71H666.9c40,0,51.87,23.95,51.87,53.71V148c0-29.76-11.9-53.71-51.87-53.71Z"/></clipPath><clipPath id="clip-path-3"><path class="cls-1" d="M83.1,157.06c-40,0-51.87,23.95-51.87,53.71v62.74c0-29.76,11.9-53.71,51.87-53.71H666.9c40,0,51.87,23.95,51.87,53.71V210.77c0-29.76-11.9-53.71-51.87-53.71Z"/></clipPath><clipPath id="clip-path-4"><path class="cls-1" d="M83.1,219.8c-40,0-51.87,23.95-51.87,53.71v7.61l176.4.32c47.13.09,66.43,19.05,86.07,45.58,5,6.76,11.09,15.92,17,21.86a90.87,90.87,0,0,0,128.54,0c5.94-5.94,12-15.1,17-21.86,19.64-26.53,38.94-45.49,86.07-45.58l176.4-.32v-7.61c0-29.76-11.9-53.71-51.87-53.71Z"/></clipPath><linearGradient id="Безымянный_градиент_2" x1="-275.22" y1="519.56" x2="-275.22" y2="525.86" gradientTransform="matrix(3.78, 0, 0, -3.78, 1055.83, 2244.79)" gradientUnits="userSpaceOnUse"><stop offset="0" stop-color="#cbc9be"/><stop offset="1" stop-color="#c8c5bb" stop-opacity="0"/></linearGradient><linearGradient id="Безымянный_градиент_2-2" x1="-275.22" y1="519.56" x2="-275.22" y2="525.86" gradientTransform="matrix(3.78, 0, 0, -3.78, 1774.61, 2244.79)" xlink:href="#Безымянный_градиент_2"/></defs><g id="Слой_2" data-name="Слой 2"><g id="svg5668"><g id="layer1"><g id="g4145"><path id="path4095" class="cls-2" d="M77,0C26.52,0,0,30.82,0,77V486.13c0,46.21,26.52,77,77,77H673c50.5,0,77-30.81,77-77V77c0-46.2-26.52-77-77-77Z"/><path id="rect3638" class="cls-3" d="M83.1,31.58c-40,0-51.87,24-51.87,53.71V281.12l176.4.32c47.13.09,66.43,19.05,86.07,45.58,5,6.76,11.09,15.92,17,21.86a90.87,90.87,0,0,0,128.54,0c5.94-5.94,12-15.1,17-21.86,19.64-26.53,38.94-45.49,86.07-45.58l176.4-.32V85.29c0-29.76-11.9-53.71-51.87-53.71Z"/><path id="path3676" class="cls-4" d="M83.1,31.58c-40,0-51.87,24-51.87,53.71V148c0-29.76,11.9-53.71,51.87-53.71H666.9c40,0,51.87,24,51.87,53.71V85.29c0-29.76-11.9-53.71-51.87-53.71Z"/><g class="cls-5"><path id="path3685" class="cls-6" d="M83.1,94.32c-40,0-51.87,24-51.87,53.71v62.74c0-29.76,11.9-53.71,51.87-53.71H666.9c40,0,51.87,23.95,51.87,53.71V148c0-29.76-11.9-53.71-51.87-53.71Z"/></g><path id="path3833" class="cls-7" d="M83.1,94.32c-40,0-51.87,24-51.87,53.71v62.74c0-29.76,11.9-53.71,51.87-53.71H666.9c40,0,51.87,23.95,51.87,53.71V148c0-29.76-11.9-53.71-51.87-53.71Z"/><g class="cls-8"><path id="path3835" class="cls-9" d="M83.1,157.06c-40,0-51.87,23.95-51.87,53.71v62.74c0-29.76,11.9-53.71,51.87-53.71H666.9c40,0,51.87,23.95,51.87,53.71V210.77c0-29.76-11.9-53.71-51.87-53.71Z"/></g><path id="path3837" class="cls-10" d="M83.1,157.06c-40,0-51.87,23.95-51.87,53.71v62.74c0-29.76,11.9-53.71,51.87-53.71H666.9c40,0,51.87,23.95,51.87,53.71V210.77c0-29.76-11.9-53.71-51.87-53.71Z"/><g class="cls-11"><path id="path3839" class="cls-9" d="M83.1,219.8c-40,0-51.87,23.95-51.87,53.71v62.74c0-29.76,11.9-53.71,51.87-53.71H666.9c40,0,51.87,23.95,51.87,53.71V273.51c0-29.76-11.9-53.71-51.87-53.71Z"/></g><g class="cls-12"><path id="path3848" class="cls-13" d="M77,0C26.52,0,0,30.82,0,77V486.13c0,46.21,26.52,77,77,77H673c50.5,0,77-30.81,77-77V77c0-46.2-26.52-77-77-77ZM83.1,31.58H666.9c40,0,51.87,24,51.87,53.71V281.12l-176.4.32c-47.13.09-66.43,19.05-86.07,45.58-5,6.76-11.09,15.92-17,21.86a90.87,90.87,0,0,1-128.54,0c-5.94-5.94-12-15.1-17-21.86-19.64-26.53-38.94-45.49-86.07-45.58l-176.4-.32V85.29C31.23,55.53,43.13,31.58,83.1,31.58Z"/></g><path id="rect4114" class="cls-14" d="M0,235.15H31.23v46H0Z"/><path id="path4129" class="cls-15" d="M718.77,235.15H750v46H718.77Z"/></g></g></g></g></svg>