<svg xmlns="http://www.w3.org/2000/svg" xmlns:xlink="http://www.w3.org/1999/xlink" viewBox="0 0 512.12 512"><defs><style>.cls-1{fill:url(#Безымянный_градиент_2);}</style><linearGradient id="Безымянный_градиент_2" y1="256" x2="512.12" y2="256" gradientUnits="userSpaceOnUse"><stop offset="0" stop-color="#fccb36"/><stop offset="1" stop-color="#f49f24"/></linearGradient></defs><g id="Слой_2" data-name="Слой 2"><g id="Layer_1" data-name="Layer 1"><path class="cls-1" d="M362.67,0a21.33,21.33,0,0,0-21.34,21.33c0,62.92-55.1,85.34-106.66,85.34H85.33A85.33,85.33,0,0,0,0,192v42.67A84.88,84.88,0,0,0,32.3,301l76.2,170.07a69,69,0,0,0,63,40.94,63.63,63.63,0,0,0,58-89.6L182.59,320h52.08c51.56,0,106.66,22.42,106.66,85.33a21.34,21.34,0,1,0,42.67,0v-384A21.33,21.33,0,0,0,362.67,0Zm-172,439.87a21,21,0,0,1-19.16,29.46,26.25,26.25,0,0,1-24-15.66L87.57,320h48.09Zm150.67-128.4a164.75,164.75,0,0,0-106.66-34.14H85.33a42.66,42.66,0,0,1-42.66-42.66V192a42.67,42.67,0,0,1,42.66-42.67H234.67a164.76,164.76,0,0,0,106.66-34Zm168.54,18.17a21.33,21.33,0,0,1-28.62,9.57h0l-42.67-21.33a21.34,21.34,0,1,1,19.07-38.19L500.31,301a21.34,21.34,0,0,1,9.56,28.53ZM429,137.64A21.34,21.34,0,0,1,438.55,109h0l42.67-21.33a21.34,21.34,0,0,1,19.07,38.19h0L457.64,147.2A21.33,21.33,0,0,1,429,137.66Zm-2.34,75.69A21.33,21.33,0,0,1,448,192h42.67a21.34,21.34,0,0,1,0,42.67H448A21.33,21.33,0,0,1,426.67,213.33Z"/></g></g></svg>