<svg xmlns="http://www.w3.org/2000/svg" xmlns:xlink="http://www.w3.org/1999/xlink" viewBox="0 0 512 512"><defs><style>.cls-1{fill:url(#Безымянный_градиент_2);}</style><linearGradient id="Безымянный_градиент_2" y1="256" x2="512" y2="256" gradientUnits="userSpaceOnUse"><stop offset="0" stop-color="#fccb36"/><stop offset="1" stop-color="#f49f24"/></linearGradient></defs><g id="Слой_2" data-name="Слой 2"><g id="Layer_1" data-name="Layer 1"><path class="cls-1" d="M405.33,0H106.67A106.8,106.8,0,0,0,0,106.67V405.33A106.8,106.8,0,0,0,106.67,512H405.33A106.8,106.8,0,0,0,512,405.33V106.67A106.8,106.8,0,0,0,405.33,0Zm21.34,234.67h42.66v42.66H426.67Zm0-42.67V149.33h42.66V192ZM384,234.67H128v-192H384ZM85.33,277.33H42.67V234.67H85.33Zm0-85.33H42.67V149.33H85.33ZM42.67,320H85.33v42.67H42.67ZM128,277.33H384v192H128ZM426.67,320h42.66v42.67H426.67Zm42.66-213.33H426.67V46.59A64,64,0,0,1,469.33,106.67Zm-384-60.08v60.08H42.67A64,64,0,0,1,85.33,46.59ZM42.67,405.33H85.33v60.08A64,64,0,0,1,42.67,405.33Zm384,60.08V405.33h42.66A64,64,0,0,1,426.67,465.41Z"/></g></g></svg>